<svg xmlns="http://www.w3.org/2000/svg" viewBox="0 0 57.61 57.31"><defs><style>.cls-1{fill:#1b3564;}.cls-2{fill:#fff;}</style></defs><g id="Layer_2" data-name="Layer 2"><g id="Layer_1-2" data-name="Layer 1"><path class="cls-1" d="M28.79,0A28.85,28.85,0,0,0,.08,26.29c0,.34-.06.68-.08,1V28.8a28.82,28.82,0,0,0,57.46,2.88c0-.33.06-.66.08-1,0-.63.07-1.26.07-1.89A28.86,28.86,0,0,0,28.79,0"/><path class="cls-2" d="M31.68,18.81a2.89,2.89,0,0,0-2,.83l-.86.86L28,19.65a2.87,2.87,0,1,0-4.07,4.06l4.95,4.95,4.65-4.74.21-.22a2.87,2.87,0,0,0,.84-2,2.85,2.85,0,0,0-2.89-2.86"/><path class="cls-2" d="M12.46,38.71,17,39.84l.49.5,1.07,4.54,8.79-8.78a12.24,12.24,0,0,1-7.53-3.82Z"/><path class="cls-2" d="M30.32,36.08l-.07.05L39,44.88l1.07-4.54.49-.5,4.55-1.13-7.37-6.43a12.22,12.22,0,0,1-7.42,3.8"/><path class="cls-2" d="M35.31,24.46l-.23.24L28.79,31l-6.52-6.53a4.45,4.45,0,1,1,6.3-6.28l.25.24.25-.24a4.44,4.44,0,0,1,6.52,6l-.25.24ZM40,23.93A11.18,11.18,0,1,0,28.78,35.11h0A11.18,11.18,0,0,0,40,23.93"/></g></g></svg>