<svg xmlns="http://www.w3.org/2000/svg" viewBox="0 0 147.69 265.03"><defs><style>.cls-1{fill:#f4d242;}.cls-2{fill:#59595b;}.cls-3{fill:#808183;}.cls-4{fill:#fff;}.cls-5{fill:#494c51;}.cls-6{fill:#1a2e35;}.cls-7{fill:#061114;}.cls-8{fill:#6d6e70;}.cls-9{fill:#ffbf9c;}.cls-10{fill:#d41f44;}.cls-11{fill:#8e1431;}.cls-12{fill:#fb9d6c;}.cls-13{fill:#febf9c;}</style></defs><g id="Layer_2" data-name="Layer 2"><g id="Layer_1-2" data-name="Layer 1"><path class="cls-1" d="M144.88,8.88a5.47,5.47,0,1,0-9.33,3.86,6.32,6.32,0,0,1,1.61,2.76l.44,1.63h3.58l.42-1.55a6.11,6.11,0,0,1,1.65-2.8A5.44,5.44,0,0,0,144.88,8.88Z"/><path class="cls-2" d="M140.25,19H138.5a.94.94,0,0,1-.95-.83l-.14-1.79,4,0-.17,1.82A.92.92,0,0,1,140.25,19Z"/><path class="cls-3" d="M141,17.17c-1.11,0-2.22,0-3.32,0a.08.08,0,0,0,0,.15c1.11,0,2.22,0,3.32,0C141.14,17.37,141.13,17.17,141,17.17Z"/><path class="cls-3" d="M141,17.65c-1.11.05-2.22,0-3.32,0a.08.08,0,0,0,0,.15c1.11,0,2.22,0,3.32,0C141.14,17.85,141.13,17.65,141,17.65Z"/><path class="cls-1" d="M139.87.64c0,.35-.19,1.62-.42,1.62S139,1,139,.64s.19-.64.42-.64S139.87.29,139.87.64Z"/><path class="cls-1" d="M145.08,2.58c-.27.23-1.11,1.2-1,1.37s1.23-.5,1.5-.73.36-.56.21-.74S145.34,2.35,145.08,2.58Z"/><path class="cls-1" d="M147.11,8.23c-.35,0-1.63,0-1.66-.21s1.2-.57,1.55-.62.66.11.69.34S147.46,8.19,147.11,8.23Z"/><path class="cls-1" d="M134.3,2.16c.27.22,1.15,1.15,1,1.33s-1.25-.45-1.53-.67-.39-.54-.24-.72S134,1.94,134.3,2.16Z"/><path class="cls-1" d="M131.65,7.33c.35,0,1.63,0,1.66-.21s-1.21-.58-1.56-.62-.65.1-.68.33S131.3,7.28,131.65,7.33Z"/><path class="cls-4" d="M141.78,11.66a1.27,1.27,0,0,1-.41-.48,1.84,1.84,0,0,0,.32-.88,5.4,5.4,0,0,0,0-.56.5.5,0,0,0-.17-.45c-.14-.1-.32,0-.43.09a1,1,0,0,0-.23.45,2.07,2.07,0,0,0,0,1,1.68,1.68,0,0,0,.09.32.82.82,0,0,1-.26.14.54.54,0,0,1-.66-.33.83.83,0,0,1-.07-.13c0-.07,0-.13.07-.19a3.72,3.72,0,0,0,.18-.94c0-.26,0-.58-.22-.73a.18.18,0,0,0-.23.06,1.94,1.94,0,0,0-.15,1.77,3.13,3.13,0,0,1-.22.45c-.09.16-.27.41-.49.38s-.36-.28-.45-.44a1.52,1.52,0,0,1-.18-.36,1.59,1.59,0,0,0,.07-.2,3.93,3.93,0,0,0,.16-.83c0-.24,0-.57-.23-.68-.08,0-.19,0-.23.06a2.32,2.32,0,0,0-.12,1.58s0,0,0,.06a3.36,3.36,0,0,1-.68,1.07c-.13.14.08.35.21.21a3.67,3.67,0,0,0,.64-.88c.05.09.1.18.16.27a1,1,0,0,0,.68.46.83.83,0,0,0,.66-.43,1.65,1.65,0,0,0,.2-.31.86.86,0,0,0,.6.43,1.07,1.07,0,0,0,.7-.18,2.31,2.31,0,0,0,.45.54A.19.19,0,1,0,141.78,11.66ZM139.9,9.39a1.9,1.9,0,0,1,0,.37,3.21,3.21,0,0,1-.07.43A1.43,1.43,0,0,1,139.9,9.39Zm1.27.82a1.79,1.79,0,0,1,.09-.4.8.8,0,0,1,.08-.16l0,0a.06.06,0,0,0,0,0,2.86,2.86,0,0,1-.12,1s0,.08,0,.11A1.75,1.75,0,0,1,141.17,10.21Z"/><path class="cls-4" d="M142.09,10.86c-.58,1.77-1.19,3.54-1.85,5.29a.17.17,0,0,0,.32.12q1-2.61,1.81-5.3C142.43,10.79,142.15,10.68,142.09,10.86Z"/><path class="cls-4" d="M136.8,10.75c.47,1.81.9,3.62,1.29,5.45a.17.17,0,0,0,.34-.06q-.59-2.75-1.33-5.45C137.05,10.51,136.76,10.56,136.8,10.75Z"/><path class="cls-5" d="M76.59,117.45l-20.27,5.62,2,49.29-.16-.09s-10.05,4.8-14.75,9.33c-7.08,6.81-15.61,18.34-23.87,29.36l.25,6,7.46,1.58,32.65-28.07,12.36-9.93C75.55,153.25,79.24,138.2,76.59,117.45Z"/><path class="cls-6" d="M64.28,249.13a13.24,13.24,0,0,1-1.58,3.72c-1.16,1.84-3.22,3.68-2.54,6.85.26,1.23,4.35,2.09,8.85,2,1.91,0,3.15.94,6.71,2.11,4,1.32,12.13,1.46,15.4.95,2-.33,6.84-3.27-5.25-7.31l-11.49-10a9.5,9.5,0,0,1-5.44,2.8A7.63,7.63,0,0,1,64.28,249.13Z"/><path class="cls-7" d="M19.55,211a11.58,11.58,0,0,1-4,2.07c-1.93.39-5,.48-5.75,2.3-1.26,3,2.26,5.19,5.32,7.82,1.35,1.15.76,4.26,2.26,7.45,1.69,3.6,6.38,7.31,8.79,9.22,1.5,1.19,6.45,2.6,1.39-8.29l-.19-13.43s-4.5-.75-5.69-2.17A14,14,0,0,1,19.55,211Z"/><path class="cls-8" d="M61.7,135.85,56.22,119.5,32,116.12s-7.47,11.93,3.23,34.75C42.52,166.44,64,190.73,64,190.73c-5.2,13.94-1.25,41.17.31,58.4a8.43,8.43,0,0,0,4.14,1.7c2.34-.15,4.61-2,6.24-3.8,0,0,5.63-54.09,5.58-59.31C80.18,182.31,66.45,149.3,61.7,135.85Z"/><path class="cls-9" d="M119.9,27l3.88-8.18s3.12-5.9,4.92-7.1c.39-.27.84.67.54,3.54A21.53,21.53,0,0,1,128,19.61l-.52,3.28c.58-.38,1.17-.85,1.66-1.22.88-.65,1.45-1.16,1.76-1,1.09.7-1.11,2.79-2.39,4.62-.29.42-5.42,4-5.42,4Z"/><path class="cls-5" d="M61,133.71s-8.87-6.73-22-2.24c-2.9,1-5.46,3.48-4.81,8.05.58,4.13,8.33,23.08,8.33,23.08S29.7,147,29.45,129.77c-.2-13.66,3.91-14.39,3.91-14.39L58,124Z"/><path class="cls-6" d="M45.1,18.85a78.66,78.66,0,0,0-8.89,21.47c-1.14,4.48-3.34,6-7,9-4.26,3.55-8.07,8.36-7.12,13.07C24.07,72,40.51,78.25,49.72,75.25s24.28-7.34,28-15.68,1.22-22,.16-24.68-2-9.54-2-9.54Z"/><path class="cls-9" d="M119.9,27c-6.83,5.6-13.25,9.63-17.42,14a100.65,100.65,0,0,1-25.89,8.8c-1,.34,0,4,.91,6.81a23.83,23.83,0,0,0,4,6.73s23.67-12.19,24.91-13c5.67-3.65,16.69-21,16.69-21Z"/><path class="cls-10" d="M76.36,49.68s10.93-3.78,13.31-3.55,4.42,11.62,4,13c-.77,2.62-11.42,6.92-11.42,6.92C81,62,79.16,56.8,76.36,49.68Z"/><path class="cls-9" d="M40.71,53.59c-2.55.65-5.67,3.81-7.9,7,0,0-15.2,19.77-18.1,24C12,88.68,7.79,110.52,6.35,117,6,118.6,5.17,119.37,4,121.12a35.6,35.6,0,0,0-2.47,4.35c-.41.93-.89,2.26-1.29,3.44-.67,2,0,2.23.61,2.83a19.48,19.48,0,0,0,3.29,2.36c1.61,1,4.53,1.9,4.93,1.41.28-.34.45-.28.84-.37a5.19,5.19,0,0,0,1.43-.59c.64-.45,1.69-3.82,1.67-5.2,0-1.12-1.18-5.58-.94-8.16s6.53-16.66,8-21a64.85,64.85,0,0,0,2.6-10.67L42.25,71.35l3.67-3.75S43.27,52.94,40.71,53.59Z"/><path class="cls-11" d="M79.83,58.8s1.77,2.3,3.82,1.81a98.31,98.31,0,0,0,9.95-3.8l.14,1.74s.65,1.62-4.16,4-7.31,3.48-7.31,3.48Z"/><path class="cls-11" d="M76.17,100.17s1.1,10,1.17,12.11a71.91,71.91,0,0,1-.62,7.33A5.89,5.89,0,0,0,79,116.18C79.64,111.94,76.17,100.17,76.17,100.17Z"/><path class="cls-12" d="M29.29,82.71s-5.08,4.6-6.06,5.27a13.09,13.09,0,0,1-2.63.9s-.13,1.57-.14,2.06-1.83,8.48-2.23,10c-.31,1.17-5.84,19-5.84,19l2.79-6.73c5.29-12.91,6.5-17.24,7.53-23.62l7-6.34Z"/><path class="cls-10" d="M40.62,75.52S43.74,85.78,43.35,90c-.29,3.08-2.53,9-5.43,13.46-5.34,8.28-7.91,12.87-8.18,15.69s23.1,6,33,4.6c11.28-1.6,14.81-2.35,15.7-6.07.66-2.81-1.71-13.08-2.21-16.62s.51-8.48,1-10.93S84.48,77.81,83.51,72C82.32,64.78,78,49.46,78,49.46c-3.23.49-6.06.09-9.2.94l-6,0s-10.57-.11-14.93.53c-7.48,1.11-8.54,2.38-8.54,2.38s7.08,6.26,7.48,9.81C47.94,73,40.62,75.52,40.62,75.52Z"/><path class="cls-10" d="M40.27,53c-.77.14-1.8.43-4.81,3.09C30.23,60.7,24.51,66.41,22.9,68.68c-1.24,1.75,3.86,4,5.14,8.56.8,2.78,3,6.49,4.24,6.21C35.52,82.72,44.15,76,44.15,76s.61-1.3,2.44-6.34C48.59,64.14,44.59,54.13,40.27,53Z"/><path class="cls-11" d="M41.34,78.08s2.45,7.77,2,12.15c-.36,3.37-2.65,8.84-4.89,12.37-2.09,3.28-2.83,4.48-5.6,9.06-.92,1.52-2.86,5.1-3,7-.11,1.32,1.87,2,3.51,2.5,0,0,14.91-21.77,14.89-22.84-.07-5.56-2.29-9-3-14.48-.54-3.92,1-18.47,1-18.47s-4.39,8.12-6.29,10.11-9.07,6.27-9.43,6.6a7.45,7.45,0,0,0,1,1.06,1.31,1.31,0,0,0,.78.3C35.27,82.55,38.48,80.35,41.34,78.08Z"/><path class="cls-6" d="M75.74,26.43a75.86,75.86,0,0,1-2,11.73c-.79,2.9-5.62,4-10.95,3.94a23.32,23.32,0,0,0-5.92.54S44.74,39.18,43.78,26.57c-.56-7.44,2.8-14.51,13.24-15.34a6.13,6.13,0,0,1,2.8.7s7-.5,11.28,2.64C73.87,16.6,76.16,22,75.74,26.43Z"/><path class="cls-13" d="M56.52,41.53s1.3,6.16-.78,8.65c-.71.86,5.61,6.2,9.64,5.33,2.72-.59,4-3.55,3.74-4.07-.58-1.31-.09-7.08-.09-7.08C65.75,46.24,59.91,44,56.52,41.53Z"/><path class="cls-11" d="M77.28,90.08a53.4,53.4,0,0,0-2,10.57s.88,2.12,1.31,3.37c.51,1.49,1.17,3.58,1.17,3.58l-1.68-8.37A56.49,56.49,0,0,1,77.28,90.08Z"/><path class="cls-12" d="M96.88,43.58a12.8,12.8,0,0,0,5.49-1.89c.65-.48,5-4,5.66-4.8s3.33-3.35,3.33-3.35-6.71,5.25-7.32,5.91S102.48,41,102.48,41Z"/><path class="cls-12" d="M93.23,54.52s13.06-5.54,14-6A66.89,66.89,0,0,0,112.64,44s-3,4.35-6.28,6.37C102.13,52.91,93.6,57,93.6,57Z"/><path class="cls-12" d="M58.32,44.67c.77,1.35,3.2,4.28,5.09,4.92a16.91,16.91,0,0,0,5.45.23L69,44.66s-8.21.05-9.27-.87a26.86,26.86,0,0,0-2.9-2S57.56,43.31,58.32,44.67Z"/><path class="cls-13" d="M74.28,30.83c.54,6.69-1.44,16.49-8.49,16.15-6.69-.33-12.22-7.75-13.25-14.28-1.67-10.59,1-15.6,9.63-17.07C69.21,14.43,73.67,23.19,74.28,30.83Z"/><path class="cls-13" d="M52,33.82s-2.88-3.38-3.52.67c-.19,1.22,1.18,2.94,2.69,3.68,3,1.48,3.13.33,3.13.33Z"/><path class="cls-6" d="M62.42,17.92s-2,.19-2,5.38c0,5.83-5.09,7.87-6.27,9s-2.21,2.14-2.21,2.14-3-5-1.76-10.13a12.75,12.75,0,0,1,6-8C61.66,13.81,62.42,17.92,62.42,17.92Z"/><path class="cls-12" d="M67.71,30.68s2.79,3.1,2.73,4-1.31,1.89-1.31,1.89A30.18,30.18,0,0,0,67.71,30.68Z"/><path class="cls-6" d="M62.42,17.92a9.3,9.3,0,0,0,2.36.64c3.67.36,6.23,5.47,6.83,6.77a41.35,41.35,0,0,0,2.75,4.31s-1.27-7.7-2.52-9.82c-1.73-2.92-7.51-4.74-7.51-4.74C58.74,14.4,59.75,15.89,62.42,17.92Z"/><path class="cls-5" d="M63.5,192.13s3.6,6.78,8.7,9.07c5.3,2.39,7.34-6,7.34-6l-5.16,52.3s-.32,4.11-4.82,3.14-5.28-1.49-5.28-1.49S60.75,219.07,61,210.27A80.09,80.09,0,0,1,63.5,192.13Z"/></g></g></svg>