<svg xmlns="http://www.w3.org/2000/svg" xmlns:xlink="http://www.w3.org/1999/xlink" viewBox="0 0 386.35 379.37"><defs><style>.cls-1{fill:url(#linear-gradient);}.cls-2{fill:url(#linear-gradient-2);}.cls-3{fill:url(#linear-gradient-3);}.cls-4{fill:url(#linear-gradient-4);}.cls-5{fill:url(#linear-gradient-5);}.cls-6{fill:url(#linear-gradient-6);}.cls-7{fill:url(#linear-gradient-7);}.cls-8{fill:url(#linear-gradient-8);}.cls-9{fill:url(#radial-gradient);}.cls-10{fill:url(#radial-gradient-2);}.cls-11{fill:url(#radial-gradient-3);}.cls-12{fill:url(#radial-gradient-4);}.cls-13{fill:url(#linear-gradient-9);}.cls-14{fill:url(#linear-gradient-10);}.cls-15{fill:url(#linear-gradient-11);}.cls-16{fill:url(#linear-gradient-12);}.cls-17{fill:url(#linear-gradient-13);}.cls-18{fill:url(#linear-gradient-14);}.cls-19{fill:url(#linear-gradient-15);}.cls-20{fill:url(#linear-gradient-16);}.cls-21{fill:url(#linear-gradient-17);}.cls-22{fill:url(#linear-gradient-18);}.cls-23{fill:url(#linear-gradient-19);}.cls-24{fill:url(#linear-gradient-20);}.cls-25{fill:none;}.cls-126,.cls-129,.cls-26{fill:#fff;}.cls-27{fill:#1b3564;}.cls-28{clip-path:url(#clip-path);}.cls-29{mask:url(#mask);}.cls-30{fill:url(#linear-gradient-21);}.cls-31{clip-path:url(#clip-path-2);}.cls-32{mask:url(#mask-2);}.cls-33{fill:url(#linear-gradient-22);}.cls-34{clip-path:url(#clip-path-3);}.cls-35{mask:url(#mask-3);}.cls-36{fill:url(#linear-gradient-23);}.cls-37{clip-path:url(#clip-path-4);}.cls-38{mask:url(#mask-4);}.cls-39{fill:url(#linear-gradient-24);}.cls-129,.cls-40{opacity:0.4;}.cls-41{clip-path:url(#clip-path-5);}.cls-42{mask:url(#mask-5);}.cls-43{fill:url(#linear-gradient-25);}.cls-44{clip-path:url(#clip-path-6);}.cls-45{mask:url(#mask-6);}.cls-46{fill:url(#linear-gradient-26);}.cls-47{clip-path:url(#clip-path-7);}.cls-48{mask:url(#mask-7);}.cls-49{fill:url(#linear-gradient-27);}.cls-50{clip-path:url(#clip-path-8);}.cls-51{mask:url(#mask-8);}.cls-52{fill:url(#linear-gradient-28);}.cls-53{clip-path:url(#clip-path-9);}.cls-54{mask:url(#mask-9);}.cls-55{fill:url(#linear-gradient-29);}.cls-56{clip-path:url(#clip-path-10);}.cls-57{mask:url(#mask-10);}.cls-58{fill:url(#linear-gradient-30);}.cls-59{clip-path:url(#clip-path-11);}.cls-60{mask:url(#mask-11);}.cls-61{fill:url(#linear-gradient-31);}.cls-62{clip-path:url(#clip-path-12);}.cls-63{mask:url(#mask-12);}.cls-64{fill:url(#linear-gradient-32);}.cls-65{clip-path:url(#clip-path-13);}.cls-66{mask:url(#mask-13);}.cls-67{fill:url(#linear-gradient-33);}.cls-68{clip-path:url(#clip-path-14);}.cls-69{mask:url(#mask-14);}.cls-70{fill:url(#linear-gradient-34);}.cls-71{clip-path:url(#clip-path-15);}.cls-72{mask:url(#mask-15);}.cls-73{fill:url(#linear-gradient-35);}.cls-74{clip-path:url(#clip-path-16);}.cls-75{mask:url(#mask-16);}.cls-76{fill:url(#linear-gradient-36);}.cls-77{clip-path:url(#clip-path-17);}.cls-78{mask:url(#mask-17);}.cls-79{fill:url(#radial-gradient-5);}.cls-80{clip-path:url(#clip-path-18);}.cls-81{mask:url(#mask-18);}.cls-82{fill:url(#radial-gradient-6);}.cls-83{clip-path:url(#clip-path-19);}.cls-84{mask:url(#mask-19);}.cls-85{fill:url(#radial-gradient-7);}.cls-86{clip-path:url(#clip-path-20);}.cls-87{mask:url(#mask-20);}.cls-88{fill:url(#radial-gradient-8);}.cls-89{clip-path:url(#clip-path-21);}.cls-90{mask:url(#mask-21);}.cls-91{fill:url(#linear-gradient-37);}.cls-92{fill:#939598;}.cls-93{clip-path:url(#clip-path-22);}.cls-94{mask:url(#mask-22);}.cls-95{fill:url(#linear-gradient-38);}.cls-96{clip-path:url(#clip-path-23);}.cls-97{mask:url(#mask-23);}.cls-98{fill:url(#linear-gradient-39);}.cls-99{clip-path:url(#clip-path-24);}.cls-100{mask:url(#mask-24);}.cls-101{fill:url(#linear-gradient-40);}.cls-102{clip-path:url(#clip-path-25);}.cls-103{fill:#231f20;}.cls-104{fill:#f2bd9e;}.cls-105{fill:#e29581;}.cls-106{fill:#2c313d;}.cls-107{fill:#364480;}.cls-108{fill:#272362;}.cls-109{fill:#fbc0a5;}.cls-110{fill:#faeee4;}.cls-111{fill:#efb292;}.cls-112{fill:#e29078;}.cls-113{fill:#38437a;}.cls-114{fill:#f7b698;}.cls-115{fill:#ba1f3d;}.cls-116{fill:#a1623e;}.cls-117{fill:#905a3d;}.cls-118{fill:#0787c5;}.cls-119{fill:#1c3564;}.cls-120{fill:#0e2646;}.cls-121{fill:#d11f43;}.cls-122{fill:#f1f1f1;}.cls-123{fill:#a6263a;}.cls-124{fill:#21120c;}.cls-125{fill:#c9a38b;}.cls-126,.cls-129,.cls-132,.cls-138{font-size:11px;font-family:SharpSansDisplayNo1-Bold, Sharp Sans Display No1;font-weight:700;}.cls-127{letter-spacing:-0.17em;}.cls-128{letter-spacing:-0.04em;}.cls-130{letter-spacing:0em;}.cls-131{letter-spacing:0em;}.cls-132{letter-spacing:0.2em;}.cls-133{letter-spacing:0.2em;}.cls-134{letter-spacing:0.2em;}.cls-135{letter-spacing:0.17em;}.cls-136{letter-spacing:0.2em;}.cls-137{letter-spacing:0.2em;}</style><linearGradient id="linear-gradient" x1="2173.71" y1="-421.98" x2="2174.71" y2="-421.98" gradientTransform="matrix(0, 100.7, 100.7, 0, 42567.61, -218848.46)" gradientUnits="userSpaceOnUse"><stop offset="0" stop-color="#fff"/><stop offset="0.13" stop-color="#fff"/><stop offset="0.34" stop-color="#fff"/><stop offset="0.51" stop-color="#fff"/><stop offset="0.68" stop-color="#fff"/><stop offset="0.83" stop-color="#fff"/><stop offset="0.98" stop-color="#fff"/><stop offset="1" stop-color="#fff"/></linearGradient><linearGradient id="linear-gradient-2" x1="2194.96" y1="-385.82" x2="2195.96" y2="-385.82" gradientTransform="matrix(-72.84, 0, 0, 72.84, 160026.2, 28172.52)" gradientUnits="userSpaceOnUse"><stop offset="0" stop-color="#fff"/><stop offset="0.13" stop-color="#fff"/><stop offset="0.32" stop-color="#fff"/><stop offset="0.49" stop-color="#fff"/><stop offset="0.64" stop-color="#fff"/><stop offset="0.78" stop-color="#fff"/><stop offset="0.98" stop-color="#fff"/><stop offset="1" stop-color="#fff"/></linearGradient><linearGradient id="linear-gradient-3" x1="2155.3" y1="-380" x2="2156.3" y2="-380" gradientTransform="matrix(0, -116.46, -116.46, 0, -44106.52, 251365.49)" gradientUnits="userSpaceOnUse"><stop offset="0" stop-color="#fff"/><stop offset="0.13" stop-color="#fff"/><stop offset="0.48" stop-color="#fff"/><stop offset="0.79" stop-color="#fff"/><stop offset="0.86" stop-color="#fff"/><stop offset="1" stop-color="#fff"/></linearGradient><linearGradient id="linear-gradient-4" x1="2140" y1="-409.92" x2="2141" y2="-409.92" gradientTransform="matrix(95.13, 0, 0, -95.13, -203545.46, -38684.19)" gradientUnits="userSpaceOnUse"><stop offset="0" stop-color="#fff"/><stop offset="0.13" stop-color="#fff"/><stop offset="0.54" stop-color="#fff"/><stop offset="0.89" stop-color="#fff"/><stop offset="0.98" stop-color="#fff"/><stop offset="1" stop-color="#fff"/></linearGradient><linearGradient id="linear-gradient-5" x1="2180.2" y1="-392.27" x2="2181.2" y2="-392.27" gradientTransform="matrix(-138.51, 0, 0, 138.51, 302323.27, 54569.39)" gradientUnits="userSpaceOnUse"><stop offset="0" stop-color="#fff"/><stop offset="0.41" stop-color="#fff"/><stop offset="0.98" stop-color="#fff"/><stop offset="1" stop-color="#fff"/></linearGradient><linearGradient id="linear-gradient-6" x1="2170.38" y1="-414.42" x2="2171.44" y2="-414.42" gradientTransform="matrix(0, 151.64, 151.64, 0, 63081.71, -328946.36)" gradientUnits="userSpaceOnUse"><stop offset="0" stop-color="#fff"/><stop offset="0.34" stop-color="#fff"/><stop offset="0.52" stop-color="#fff"/><stop offset="0.67" stop-color="#fff"/><stop offset="0.82" stop-color="#fff"/><stop offset="0.96" stop-color="#fff"/><stop offset="0.98" stop-color="#fff"/><stop offset="1" stop-color="#fff"/></linearGradient><linearGradient id="linear-gradient-7" x1="2142.19" y1="-408.98" x2="2143.19" y2="-408.98" gradientTransform="matrix(104.75, 0, 0, -104.75, -224201.85, -42530.46)" gradientUnits="userSpaceOnUse"><stop offset="0" stop-color="#fff"/><stop offset="0.36" stop-color="#fff"/><stop offset="0.53" stop-color="#fff"/><stop offset="0.68" stop-color="#fff"/><stop offset="0.82" stop-color="#fff"/><stop offset="0.96" stop-color="#fff"/><stop offset="0.98" stop-color="#fff"/><stop offset="1" stop-color="#fff"/></linearGradient><linearGradient id="linear-gradient-8" x1="2154.6" y1="-378.42" x2="2155.55" y2="-378.42" gradientTransform="matrix(0, -107.72, -107.72, 0, -40449.7, 232439.24)" gradientUnits="userSpaceOnUse"><stop offset="0" stop-color="#fff"/><stop offset="0.37" stop-color="#fff"/><stop offset="0.54" stop-color="#fff"/><stop offset="0.69" stop-color="#fff"/><stop offset="0.82" stop-color="#fff"/><stop offset="0.96" stop-color="#fff"/><stop offset="0.98" stop-color="#fff"/><stop offset="1" stop-color="#fff"/></linearGradient><radialGradient id="radial-gradient" cx="2114.85" cy="-420.95" r="1" gradientTransform="matrix(46.28, 0, 0, -46.28, -97686.99, -19292.6)" gradientUnits="userSpaceOnUse"><stop offset="0" stop-color="#fff"/><stop offset="0.57" stop-color="#fff"/><stop offset="0.6" stop-color="#fff"/><stop offset="0.64" stop-color="#fff"/><stop offset="0.67" stop-color="#fff"/><stop offset="0.69" stop-color="#fff"/><stop offset="0.77" stop-color="#fff"/><stop offset="0.87" stop-color="#fff"/><stop offset="1" stop-color="#fff"/></radialGradient><radialGradient id="radial-gradient-2" cx="2136.52" cy="-411.45" r="1" gradientTransform="matrix(83.01, 0, 0, -83.01, -177157.49, -33964.26)" gradientUnits="userSpaceOnUse"><stop offset="0" stop-color="#fff"/><stop offset="0.11" stop-color="#fff"/><stop offset="0.51" stop-color="#fff"/><stop offset="0.54" stop-color="#fff"/><stop offset="0.62" stop-color="#fff"/><stop offset="0.7" stop-color="#fff"/><stop offset="0.8" stop-color="#fff"/><stop offset="1" stop-color="#fff"/></radialGradient><radialGradient id="radial-gradient-3" cx="2107.96" cy="-423.97" r="1" gradientTransform="matrix(40.58, 0, 0, -40.58, -85351.15, -17015.78)" gradientUnits="userSpaceOnUse"><stop offset="0" stop-color="#fff"/><stop offset="0.52" stop-color="#fff"/><stop offset="0.55" stop-color="#fff"/><stop offset="0.59" stop-color="#fff"/><stop offset="1" stop-color="#fff"/></radialGradient><radialGradient id="radial-gradient-4" cx="2107.23" cy="-424.29" r="1" gradientTransform="matrix(40.06, 0, 0, -40.06, -84219.91, -16806.94)" gradientUnits="userSpaceOnUse"><stop offset="0" stop-color="#fff"/><stop offset="0.11" stop-color="#fff"/><stop offset="0.52" stop-color="#fff"/><stop offset="0.81" stop-color="#fff"/><stop offset="1" stop-color="#fff"/></radialGradient><linearGradient id="linear-gradient-9" x1="2145.48" y1="-407.52" x2="2146.48" y2="-407.52" gradientTransform="matrix(123.55, 0, 0, -123.55, -265024.86, -50203.72)" gradientUnits="userSpaceOnUse"><stop offset="0" stop-color="#fff"/><stop offset="0.2" stop-color="#fff"/><stop offset="0.35" stop-color="#fff"/><stop offset="0.47" stop-color="#fff"/><stop offset="0.59" stop-color="#fff"/><stop offset="0.69" stop-color="#fff"/><stop offset="0.98" stop-color="#fff"/><stop offset="1" stop-color="#fff"/></linearGradient><linearGradient id="linear-gradient-10" x1="2113.96" y1="-421.34" x2="2114.96" y2="-421.34" gradientTransform="matrix(45.46, 0, 0, -45.46, -95935.58, -19140.91)" gradientUnits="userSpaceOnUse"><stop offset="0" stop-color="#fff"/><stop offset="0.59" stop-color="#fff"/><stop offset="0.63" stop-color="#fff"/><stop offset="0.67" stop-color="#fff"/><stop offset="0.7" stop-color="#fff"/><stop offset="0.74" stop-color="#fff"/><stop offset="0.77" stop-color="#fff"/><stop offset="0.8" stop-color="#fff"/><stop offset="1" stop-color="#fff"/></linearGradient><linearGradient id="linear-gradient-11" x1="2183.66" y1="-444.67" x2="2184.66" y2="-444.67" gradientTransform="matrix(0, 50.16, 50.16, 0, 22679.73, -109379.19)" gradientUnits="userSpaceOnUse"><stop offset="0" stop-color="#fff"/><stop offset="0.28" stop-color="#fff"/><stop offset="0.4" stop-color="#fff"/><stop offset="0.5" stop-color="#fff"/><stop offset="0.6" stop-color="#fff"/><stop offset="0.69" stop-color="#fff"/><stop offset="0.78" stop-color="#fff"/><stop offset="0.85" stop-color="#fff"/><stop offset="1" stop-color="#fff"/></linearGradient><linearGradient id="linear-gradient-12" x1="2215.81" y1="-376.67" x2="2216.81" y2="-376.67" gradientTransform="matrix(-43.62, 0, 0, 43.62, 96872.71, 16797.22)" xlink:href="#linear-gradient-11"/><linearGradient id="linear-gradient-13" x1="2144.07" y1="-354.4" x2="2145.07" y2="-354.4" gradientTransform="matrix(0, -50.31, -50.31, 0, -17817.38, 108086.1)" xlink:href="#linear-gradient-11"/><linearGradient id="linear-gradient-14" x1="2156.13" y1="-381.91" x2="2157.13" y2="-381.91" gradientTransform="matrix(0, -129.14, -129.14, 0, -49170.98, 278619.33)" gradientUnits="userSpaceOnUse"><stop offset="0" stop-color="#fff"/><stop offset="0.13" stop-color="#fff"/><stop offset="0.34" stop-color="#fff"/><stop offset="0.52" stop-color="#fff"/><stop offset="0.68" stop-color="#fff"/><stop offset="0.83" stop-color="#fff"/><stop offset="0.98" stop-color="#fff"/><stop offset="1" stop-color="#fff"/></linearGradient><linearGradient id="linear-gradient-15" x1="2185.42" y1="-390" x2="2186.42" y2="-390" gradientTransform="matrix(-105.06, 0, 0, 105.06, 229942.28, 41041.71)" gradientUnits="userSpaceOnUse"><stop offset="0" stop-color="#fff"/><stop offset="0.13" stop-color="#fff"/><stop offset="0.43" stop-color="#fff"/><stop offset="0.63" stop-color="#fff"/><stop offset="0.95" stop-color="#fff"/><stop offset="1" stop-color="#fff"/></linearGradient><linearGradient id="linear-gradient-16" x1="2172.96" y1="-420.28" x2="2173.96" y2="-420.28" gradientTransform="matrix(0, 108.93, 108.93, 0, 46019.02, -236664.61)" xlink:href="#linear-gradient-15"/><linearGradient id="linear-gradient-17" x1="2153.87" y1="-376.76" x2="2154.87" y2="-376.76" gradientTransform="matrix(0, -99.84, -99.84, 0, -37300.8, 215217.02)" xlink:href="#linear-gradient-15"/><linearGradient id="linear-gradient-18" x1="2141.81" y1="-409.13" x2="2142.81" y2="-409.13" gradientTransform="matrix(102.94, 0, 0, -102.94, -220277.9, -41971.39)" xlink:href="#linear-gradient-15"/><linearGradient id="linear-gradient-19" x1="2170.88" y1="-415.53" x2="2171.88" y2="-415.53" gradientTransform="matrix(0, 141.15, 141.15, 0, 58726.58, -306229)" gradientUnits="userSpaceOnUse"><stop offset="0" stop-color="#fff"/><stop offset="0.13" stop-color="#fff"/><stop offset="0.42" stop-color="#fff"/><stop offset="0.63" stop-color="#fff"/><stop offset="0.71" stop-color="#fff"/><stop offset="1" stop-color="#fff"/></linearGradient><linearGradient id="linear-gradient-20" x1="2180.34" y1="-392.23" x2="2181.34" y2="-392.23" gradientTransform="matrix(-137.4, 0, 0, 137.4, 299784.17, 54131.21)" gradientUnits="userSpaceOnUse"><stop offset="0" stop-color="#fff"/><stop offset="0.13" stop-color="#fff"/><stop offset="0.45" stop-color="#fff"/><stop offset="0.72" stop-color="#fff"/><stop offset="0.79" stop-color="#fff"/><stop offset="1" stop-color="#fff"/></linearGradient><clipPath id="clip-path"><rect class="cls-25" x="35.4" y="32.5" width="74.96" height="74.96"/></clipPath><mask id="mask" x="35.4" y="32.5" width="74.95" height="74.96" maskUnits="userSpaceOnUse"><rect class="cls-1" x="35.4" y="32.5" width="74.95" height="74.96"/></mask><linearGradient id="linear-gradient-21" x1="2173.71" y1="-421.98" x2="2174.71" y2="-421.98" gradientTransform="matrix(0, 100.7, 100.7, 0, 42567.61, -218848.46)" gradientUnits="userSpaceOnUse"><stop offset="0" stop-color="#d41f44"/><stop offset="0.13" stop-color="#d41f44"/><stop offset="0.34" stop-color="#d11f43"/><stop offset="0.51" stop-color="#c61f41"/><stop offset="0.68" stop-color="#b41f3e"/><stop offset="0.83" stop-color="#9e1f39"/><stop offset="0.98"/><stop offset="1"/></linearGradient><clipPath id="clip-path-2"><rect class="cls-25" x="110.36" y="32.5" width="74.96" height="74.96"/></clipPath><mask id="mask-2" x="110.36" y="32.5" width="74.96" height="74.96" maskUnits="userSpaceOnUse"><rect class="cls-2" x="110.36" y="32.5" width="74.96" height="74.96"/></mask><linearGradient id="linear-gradient-22" x1="2194.96" y1="-385.82" x2="2195.96" y2="-385.82" gradientTransform="matrix(-72.84, 0, 0, 72.84, 160026.2, 28172.52)" gradientUnits="userSpaceOnUse"><stop offset="0" stop-color="#d41f44"/><stop offset="0.13" stop-color="#d41f44"/><stop offset="0.32" stop-color="#d11f43"/><stop offset="0.49" stop-color="#c61f41"/><stop offset="0.64" stop-color="#b41f3e"/><stop offset="0.78" stop-color="#9e1f39"/><stop offset="0.98"/><stop offset="1"/></linearGradient><clipPath id="clip-path-3"><rect class="cls-25" x="35.4" y="107.47" width="74.96" height="74.95"/></clipPath><mask id="mask-3" x="35.4" y="107.47" width="74.96" height="74.95" maskUnits="userSpaceOnUse"><rect class="cls-13" x="35.4" y="107.47" width="74.96" height="74.95"/></mask><linearGradient id="linear-gradient-23" x1="2145.48" y1="-407.52" x2="2146.48" y2="-407.52" gradientTransform="matrix(123.55, 0, 0, -123.55, -265024.86, -50203.72)" gradientUnits="userSpaceOnUse"><stop offset="0" stop-color="#d41f44"/><stop offset="0.2" stop-color="#d41f44"/><stop offset="0.35" stop-color="#d11f43"/><stop offset="0.47" stop-color="#c61f41"/><stop offset="0.59" stop-color="#b41f3e"/><stop offset="0.69" stop-color="#9e1f39"/><stop offset="0.98"/><stop offset="1"/></linearGradient><clipPath id="clip-path-4"><path class="cls-25" d="M110.36,107.47v74.95H151a42.8,42.8,0,0,1,34.35-34.31V107.47Z"/></clipPath><mask id="mask-4" x="110.36" y="107.47" width="74.96" height="74.96" maskUnits="userSpaceOnUse"><rect class="cls-18" x="110.36" y="107.47" width="74.96" height="74.96"/></mask><linearGradient id="linear-gradient-24" x1="2156.13" y1="-381.91" x2="2157.13" y2="-381.91" gradientTransform="matrix(0, -129.14, -129.14, 0, -49170.98, 278619.33)" gradientUnits="userSpaceOnUse"><stop offset="0" stop-color="#d41f44"/><stop offset="0.13" stop-color="#d41f44"/><stop offset="0.34" stop-color="#d11f43"/><stop offset="0.52" stop-color="#c61f41"/><stop offset="0.68" stop-color="#b41f3e"/><stop offset="0.83" stop-color="#9e1f39"/><stop offset="0.98"/><stop offset="1"/></linearGradient><clipPath id="clip-path-5"><rect class="cls-25" x="275.84" y="32.06" width="74.96" height="74.96"/></clipPath><mask id="mask-5" x="275.84" y="32.06" width="74.96" height="74.95" maskUnits="userSpaceOnUse"><rect class="cls-19" x="275.84" y="32.06" width="74.96" height="74.95"/></mask><linearGradient id="linear-gradient-25" x1="2185.42" y1="-390" x2="2186.42" y2="-390" gradientTransform="matrix(-105.06, 0, 0, 105.06, 229942.28, 41041.71)" gradientUnits="userSpaceOnUse"><stop offset="0" stop-color="#1b3564"/><stop offset="0.13" stop-color="#1b3564"/><stop offset="0.43" stop-color="#1b3561"/><stop offset="0.63" stop-color="#1b3459"/><stop offset="0.95" stop-color="#231f20"/><stop offset="1" stop-color="#231f20"/></linearGradient><clipPath id="clip-path-6"><rect class="cls-25" x="200.88" y="32.06" width="74.95" height="74.96"/></clipPath><mask id="mask-6" x="200.88" y="32.06" width="74.96" height="74.96" maskUnits="userSpaceOnUse"><rect class="cls-20" x="200.88" y="32.06" width="74.95" height="74.95"/></mask><linearGradient id="linear-gradient-26" x1="2172.96" y1="-420.28" x2="2173.96" y2="-420.28" gradientTransform="matrix(0, 108.93, 108.93, 0, 46019.02, -236664.63)" xlink:href="#linear-gradient-25"/><clipPath id="clip-path-7"><rect class="cls-25" x="275.84" y="107.02" width="74.96" height="74.96"/></clipPath><mask id="mask-7" x="275.84" y="107.02" width="74.96" height="74.96" maskUnits="userSpaceOnUse"><rect class="cls-21" x="275.84" y="107.02" width="74.96" height="74.96"/></mask><linearGradient id="linear-gradient-27" x1="2153.87" y1="-376.76" x2="2154.87" y2="-376.76" gradientTransform="matrix(0, -99.84, -99.84, 0, -37300.8, 215217.02)" xlink:href="#linear-gradient-25"/><clipPath id="clip-path-8"><path class="cls-25" d="M200.88,107v40.61A42.77,42.77,0,0,1,235.19,182H275.8V107Z"/></clipPath><mask id="mask-8" x="200.88" y="107.01" width="74.92" height="74.96" maskUnits="userSpaceOnUse"><rect class="cls-22" x="200.88" y="107.01" width="74.92" height="74.96"/></mask><linearGradient id="linear-gradient-28" x1="2141.81" y1="-409.13" x2="2142.81" y2="-409.13" gradientTransform="matrix(102.94, 0, 0, -102.94, -220277.9, -41971.39)" xlink:href="#linear-gradient-25"/><clipPath id="clip-path-9"><rect class="cls-25" x="35.55" y="197.39" width="74.96" height="79.64"/></clipPath><mask id="mask-9" x="35.55" y="197.39" width="74.95" height="79.64" maskUnits="userSpaceOnUse"><rect class="cls-23" x="35.55" y="197.39" width="74.95" height="79.64"/></mask><linearGradient id="linear-gradient-29" x1="2170.88" y1="-415.53" x2="2171.88" y2="-415.53" gradientTransform="matrix(0, 141.15, 141.15, 0, 58726.58, -306229)" gradientUnits="userSpaceOnUse"><stop offset="0" stop-color="#6d6e70"/><stop offset="0.13" stop-color="#6d6e70"/><stop offset="0.42" stop-color="#6a6b6d"/><stop offset="0.63" stop-color="#616265"/><stop offset="0.71" stop-color="#5b5d60"/><stop offset="1" stop-color="#5b5d60"/></linearGradient><clipPath id="clip-path-10"><path class="cls-25" d="M110.51,197.39V277h75V231.73a42.78,42.78,0,0,1-34.35-34.34Z"/></clipPath><mask id="mask-10" x="110.51" y="197.39" width="74.95" height="79.65" maskUnits="userSpaceOnUse"><rect class="cls-24" x="110.51" y="197.39" width="74.95" height="79.65"/></mask><linearGradient id="linear-gradient-30" x1="2180.34" y1="-392.23" x2="2181.34" y2="-392.23" gradientTransform="matrix(-137.4, 0, 0, 137.4, 299784.17, 54131.21)" gradientUnits="userSpaceOnUse"><stop offset="0" stop-color="#6d6e70"/><stop offset="0.13" stop-color="#6d6e70"/><stop offset="0.45" stop-color="#6a6b6d"/><stop offset="0.72" stop-color="#5f6164"/><stop offset="0.79" stop-color="#5b5d60"/><stop offset="1" stop-color="#5b5d60"/></linearGradient><clipPath id="clip-path-11"><rect class="cls-25" x="110.51" y="277.03" width="74.96" height="70.27"/></clipPath><mask id="mask-11" x="110.51" y="277.03" width="74.95" height="70.27" maskUnits="userSpaceOnUse"><rect class="cls-3" x="110.51" y="277.03" width="74.95" height="70.27"/></mask><linearGradient id="linear-gradient-31" x1="2155.3" y1="-380" x2="2156.3" y2="-380" gradientTransform="matrix(0, -116.46, -116.46, 0, -44106.52, 251365.49)" gradientUnits="userSpaceOnUse"><stop offset="0" stop-color="#6d6e70"/><stop offset="0.13" stop-color="#6d6e70"/><stop offset="0.48" stop-color="#6a6b6d"/><stop offset="0.79" stop-color="#5f6164"/><stop offset="0.86" stop-color="#5b5d60"/><stop offset="1" stop-color="#5b5d60"/></linearGradient><clipPath id="clip-path-12"><rect class="cls-25" x="35.55" y="277.03" width="74.96" height="70.27"/></clipPath><mask id="mask-12" x="35.55" y="277.03" width="74.96" height="70.27" maskUnits="userSpaceOnUse"><rect class="cls-4" x="35.55" y="277.03" width="74.96" height="70.27"/></mask><linearGradient id="linear-gradient-32" x1="2140" y1="-409.92" x2="2141" y2="-409.92" gradientTransform="matrix(95.13, 0, 0, -95.13, -203545.48, -38684.2)" gradientUnits="userSpaceOnUse"><stop offset="0" stop-color="#6d6e70"/><stop offset="0.13" stop-color="#6d6e70"/><stop offset="0.54" stop-color="#6a6b6d"/><stop offset="0.89" stop-color="#5f6164"/><stop offset="0.98" stop-color="#5b5d60"/><stop offset="1" stop-color="#5b5d60"/></linearGradient><clipPath id="clip-path-13"><rect class="cls-25" x="275.84" y="197.39" width="74.96" height="78.94"/></clipPath><mask id="mask-13" x="275.84" y="197.39" width="74.95" height="78.94" maskUnits="userSpaceOnUse"><rect class="cls-5" x="275.84" y="197.39" width="74.95" height="78.94"/></mask><linearGradient id="linear-gradient-33" x1="2180.2" y1="-392.27" x2="2181.2" y2="-392.27" gradientTransform="matrix(-138.51, 0, 0, 138.51, 302323.27, 54569.39)" gradientUnits="userSpaceOnUse"><stop offset="0" stop-color="#222223"/><stop offset="0.41" stop-color="#222223"/><stop offset="0.98" stop-color="#5b5d60"/><stop offset="1" stop-color="#5b5d60"/></linearGradient><clipPath id="clip-path-14"><path class="cls-25" d="M235.25,197.39c-3.2,18.38-16.85,32.78-34.3,36.17v42.78H275.9l-.06-78.95Z"/></clipPath><mask id="mask-14" x="200.95" y="197.39" width="74.96" height="78.95" maskUnits="userSpaceOnUse"><rect class="cls-6" x="200.95" y="197.39" width="74.96" height="78.95"/></mask><linearGradient id="linear-gradient-34" x1="2170.38" y1="-414.42" x2="2171.44" y2="-414.42" gradientTransform="matrix(0, 151.64, 151.64, 0, 63081.72, -328946.39)" gradientUnits="userSpaceOnUse"><stop offset="0" stop-color="#222223"/><stop offset="0.34" stop-color="#222223"/><stop offset="0.52" stop-color="#252526"/><stop offset="0.67" stop-color="#2f3031"/><stop offset="0.82" stop-color="#404143"/><stop offset="0.96" stop-color="#57595c"/><stop offset="0.98" stop-color="#5b5d60"/><stop offset="1" stop-color="#5b5d60"/></linearGradient><clipPath id="clip-path-15"><rect class="cls-25" x="200.88" y="276.33" width="74.95" height="70.98"/></clipPath><mask id="mask-15" x="200.88" y="276.33" width="74.96" height="70.98" maskUnits="userSpaceOnUse"><rect class="cls-7" x="200.88" y="276.33" width="74.95" height="70.98"/></mask><linearGradient id="linear-gradient-35" x1="2142.19" y1="-408.98" x2="2143.19" y2="-408.98" gradientTransform="matrix(104.75, 0, 0, -104.75, -224201.87, -42530.47)" gradientUnits="userSpaceOnUse"><stop offset="0" stop-color="#222223"/><stop offset="0.36" stop-color="#222223"/><stop offset="0.53" stop-color="#252526"/><stop offset="0.68" stop-color="#2f3031"/><stop offset="0.82" stop-color="#404143"/><stop offset="0.96" stop-color="#57595c"/><stop offset="0.98" stop-color="#5b5d60"/><stop offset="1" stop-color="#5b5d60"/></linearGradient><clipPath id="clip-path-16"><rect class="cls-25" x="275.84" y="276.33" width="74.96" height="70.98"/></clipPath><mask id="mask-16" x="275.84" y="276.33" width="74.96" height="70.98" maskUnits="userSpaceOnUse"><rect class="cls-8" x="275.84" y="276.33" width="74.96" height="70.98"/></mask><linearGradient id="linear-gradient-36" x1="2154.6" y1="-378.42" x2="2155.55" y2="-378.42" gradientTransform="matrix(0, -107.72, -107.72, 0, -40449.69, 232439.21)" gradientUnits="userSpaceOnUse"><stop offset="0" stop-color="#222223"/><stop offset="0.37" stop-color="#222223"/><stop offset="0.54" stop-color="#252526"/><stop offset="0.69" stop-color="#2f3031"/><stop offset="0.82" stop-color="#404143"/><stop offset="0.96" stop-color="#57595c"/><stop offset="0.98" stop-color="#5b5d60"/><stop offset="1" stop-color="#5b5d60"/></linearGradient><clipPath id="clip-path-17"><path class="cls-25" d="M158.6,190.5a36.21,36.21,0,1,0,36.2-36.2,36.2,36.2,0,0,0-36.2,36.2"/></clipPath><mask id="mask-17" x="158.6" y="154.3" width="72.41" height="72.41" maskUnits="userSpaceOnUse"><rect class="cls-9" x="158.6" y="154.3" width="72.41" height="72.41"/></mask><radialGradient id="radial-gradient-5" cx="2114.85" cy="-420.95" r="1" gradientTransform="matrix(46.28, 0, 0, -46.28, -97686.99, -19292.6)" gradientUnits="userSpaceOnUse"><stop offset="0" stop-color="#939598"/><stop offset="0.57" stop-color="#939598"/><stop offset="0.6" stop-color="#adaeb0"/><stop offset="0.64" stop-color="#d2d2d3"/><stop offset="0.67" stop-color="#e9e9e9"/><stop offset="0.69" stop-color="#f1f1f1"/><stop offset="0.77" stop-color="#fcfcfc"/><stop offset="0.87" stop-color="#fff"/><stop offset="1" stop-color="#fff"/></radialGradient><clipPath id="clip-path-18"><path class="cls-25" d="M149.68,189.68a43.49,43.49,0,1,0,43.49-43.49,43.49,43.49,0,0,0-43.49,43.49"/></clipPath><mask id="mask-18" x="149.68" y="146.19" width="86.98" height="86.98" maskUnits="userSpaceOnUse"><rect class="cls-10" x="149.68" y="146.19" width="86.98" height="86.98"/></mask><radialGradient id="radial-gradient-6" cx="2136.52" cy="-411.45" r="1" gradientTransform="matrix(83.01, 0, 0, -83.01, -177157.49, -33964.26)" gradientUnits="userSpaceOnUse"><stop offset="0" stop-color="#ededed"/><stop offset="0.11" stop-color="#ededed"/><stop offset="0.51" stop-color="#f1f1f1"/><stop offset="0.54" stop-color="#e6e6e6"/><stop offset="0.62" stop-color="#d4d4d4"/><stop offset="0.7" stop-color="#c9c9c9"/><stop offset="0.8" stop-color="#c6c6c6"/><stop offset="1" stop-color="#c6c6c6"/></radialGradient><clipPath id="clip-path-19"><path class="cls-25" d="M193.17,158a31.74,31.74,0,1,1-31.73,31.73A31.74,31.74,0,0,1,193.17,158"/></clipPath><mask id="mask-19" x="161.44" y="157.95" width="63.47" height="63.47" maskUnits="userSpaceOnUse"><rect class="cls-11" x="161.44" y="157.95" width="63.47" height="63.47"/></mask><radialGradient id="radial-gradient-7" cx="2107.96" cy="-423.97" r="1" gradientTransform="matrix(40.58, 0, 0, -40.58, -85351.15, -17015.78)" gradientUnits="userSpaceOnUse"><stop offset="0" stop-color="#6d6e70"/><stop offset="0.52" stop-color="#939598"/><stop offset="0.55" stop-color="#a5a6a8"/><stop offset="0.59" stop-color="#c6c6c6"/><stop offset="1" stop-color="#c6c6c6"/></radialGradient><clipPath id="clip-path-20"><path class="cls-25" d="M171.71,189.68a21.46,21.46,0,1,0,21.46-21.46,21.46,21.46,0,0,0-21.46,21.46"/></clipPath><mask id="mask-20" x="171.71" y="168.22" width="42.92" height="42.92" maskUnits="userSpaceOnUse"><rect class="cls-12" x="171.71" y="168.22" width="42.92" height="42.92"/></mask><radialGradient id="radial-gradient-8" cx="2107.23" cy="-424.29" r="1" gradientTransform="matrix(40.06, 0, 0, -40.06, -84219.92, -16806.94)" gradientUnits="userSpaceOnUse"><stop offset="0" stop-color="#ededed"/><stop offset="0.11" stop-color="#ededed"/><stop offset="0.52" stop-color="#ededed"/><stop offset="0.81" stop-color="#6d6e70"/><stop offset="1" stop-color="#6d6e70"/></radialGradient><clipPath id="clip-path-21"><polygon class="cls-25" points="167.94 25.23 186.6 25.23 186.6 25.19 191.1 25.19 191.1 25.18 193.17 25.18 193.17 0 167.94 25.23"/></clipPath><mask id="mask-21" x="167.94" y="0" width="25.23" height="25.22" maskUnits="userSpaceOnUse"><rect class="cls-14" x="167.94" width="25.23" height="25.22"/></mask><linearGradient id="linear-gradient-37" x1="2113.96" y1="-421.34" x2="2114.96" y2="-421.34" gradientTransform="matrix(45.46, 0, 0, -45.46, -95935.58, -19140.91)" gradientUnits="userSpaceOnUse"><stop offset="0" stop-color="#939598"/><stop offset="0.59" stop-color="#939598"/><stop offset="0.63" stop-color="#909295"/><stop offset="0.67" stop-color="#86878a"/><stop offset="0.7" stop-color="#757678"/><stop offset="0.74" stop-color="#5e5d5f"/><stop offset="0.77" stop-color="#403e3f"/><stop offset="0.8" stop-color="#231f20"/><stop offset="1" stop-color="#231f20"/></linearGradient><clipPath id="clip-path-22"><polygon class="cls-25" points="361.13 183.1 361.16 183.1 361.16 187.61 361.17 187.61 361.17 189.68 386.35 189.68 361.13 164.45 361.13 183.1"/></clipPath><mask id="mask-22" x="361.13" y="164.45" width="25.22" height="25.23" maskUnits="userSpaceOnUse"><rect class="cls-15" x="361.13" y="164.45" width="25.22" height="25.23"/></mask><linearGradient id="linear-gradient-38" x1="2183.66" y1="-444.67" x2="2184.66" y2="-444.67" gradientTransform="matrix(0, 50.16, 50.16, 0, 22679.73, -109379.2)" gradientUnits="userSpaceOnUse"><stop offset="0" stop-color="#939598"/><stop offset="0.28" stop-color="#939598"/><stop offset="0.4" stop-color="#909295"/><stop offset="0.5" stop-color="#86878a"/><stop offset="0.6" stop-color="#757678"/><stop offset="0.69" stop-color="#5e5d5f"/><stop offset="0.78" stop-color="#403e3f"/><stop offset="0.85" stop-color="#231f20"/><stop offset="1" stop-color="#231f20"/></linearGradient><clipPath id="clip-path-23"><polygon class="cls-25" points="199.17 354.14 199.17 354.17 195.25 354.17 195.25 354.18 193.17 354.18 193.17 379.37 218.4 354.14 199.17 354.14"/></clipPath><mask id="mask-23" x="193.17" y="354.14" width="25.23" height="25.23" maskUnits="userSpaceOnUse"><rect class="cls-16" x="193.17" y="354.14" width="25.23" height="25.23"/></mask><linearGradient id="linear-gradient-39" x1="2215.81" y1="-376.67" x2="2216.81" y2="-376.67" gradientTransform="matrix(-43.62, 0, 0, 43.62, 96872.71, 16797.22)" xlink:href="#linear-gradient-38"/><clipPath id="clip-path-24"><polygon class="cls-25" points="25.19 191.76 25.18 191.76 25.18 189.7 0.03 189.7 25.23 214.92 25.23 195.68 25.19 195.68 25.19 191.76"/></clipPath><mask id="mask-24" x="0.02" y="189.7" width="25.2" height="25.22" maskUnits="userSpaceOnUse"><rect class="cls-17" x="0.02" y="189.7" width="25.2" height="25.22"/></mask><linearGradient id="linear-gradient-40" x1="2144.07" y1="-354.4" x2="2145.07" y2="-354.4" gradientTransform="matrix(0, -50.31, -50.31, 0, -17817.38, 108086.1)" xlink:href="#linear-gradient-38"/><clipPath id="clip-path-25"><rect class="cls-25" x="11.23" y="2.32" width="53.28" height="123.28"/></clipPath></defs><g id="Layer_2" data-name="Layer 2"><g id="Layer_1-2" data-name="Layer 1"><polygon class="cls-26" points="374.73 189.07 373.53 189.07 373.75 189.68 373.53 190.29 374.73 190.29 374.73 189.07"/><rect class="cls-27" x="192.56" y="189.07" width="1.23" height="1.23"/><g class="cls-28"><g class="cls-29"><rect class="cls-30" x="35.4" y="32.5" width="74.95" height="74.96"/></g></g><g class="cls-31"><g class="cls-32"><rect class="cls-33" x="110.36" y="32.5" width="74.96" height="74.96"/></g></g><g class="cls-34"><g class="cls-35"><rect class="cls-36" x="35.4" y="107.47" width="74.96" height="74.95"/></g></g><g class="cls-37"><g class="cls-38"><rect class="cls-39" x="110.36" y="107.47" width="74.96" height="74.96"/></g></g><g class="cls-40"><g class="cls-41"><g class="cls-42"><rect class="cls-43" x="275.84" y="32.06" width="74.96" height="74.95"/></g></g></g><g class="cls-40"><g class="cls-44"><g class="cls-45"><rect class="cls-46" x="200.88" y="32.06" width="74.95" height="74.96"/></g></g></g><g class="cls-40"><g class="cls-47"><g class="cls-48"><rect class="cls-49" x="275.84" y="107.02" width="74.96" height="74.96"/></g></g></g><g class="cls-40"><g class="cls-50"><g class="cls-51"><rect class="cls-52" x="200.88" y="107.01" width="74.92" height="74.96"/></g></g></g><g class="cls-53"><g class="cls-54"><rect class="cls-55" x="35.55" y="197.39" width="74.95" height="79.64"/></g></g><g class="cls-56"><g class="cls-57"><rect class="cls-58" x="110.51" y="197.39" width="74.95" height="79.65"/></g></g><g class="cls-59"><g class="cls-60"><rect class="cls-61" x="110.51" y="277.03" width="74.95" height="70.27"/></g></g><g class="cls-62"><g class="cls-63"><rect class="cls-64" x="35.55" y="277.03" width="74.96" height="70.27"/></g></g><g class="cls-40"><g class="cls-65"><g class="cls-66"><rect class="cls-67" x="275.84" y="197.39" width="74.95" height="78.94"/></g></g></g><g class="cls-40"><g class="cls-68"><g class="cls-69"><rect class="cls-70" x="200.95" y="197.39" width="74.96" height="78.95"/></g></g></g><g class="cls-40"><g class="cls-71"><g class="cls-72"><rect class="cls-73" x="200.88" y="276.33" width="74.95" height="70.98"/></g></g></g><g class="cls-40"><g class="cls-74"><g class="cls-75"><rect class="cls-76" x="275.84" y="276.33" width="74.96" height="70.98"/></g></g></g><g class="cls-77"><g class="cls-78"><rect class="cls-79" x="158.6" y="154.3" width="72.41" height="72.41"/></g></g><g class="cls-80"><g class="cls-81"><rect class="cls-82" x="149.68" y="146.19" width="86.98" height="86.98"/></g></g><g class="cls-83"><g class="cls-84"><rect class="cls-85" x="161.44" y="157.95" width="63.47" height="63.47"/></g></g><g class="cls-86"><g class="cls-87"><rect class="cls-88" x="171.71" y="168.22" width="42.92" height="42.92"/></g></g><g class="cls-89"><g class="cls-90"><rect class="cls-91" x="167.94" width="25.23" height="25.22"/></g></g><polygon class="cls-92" points="218.4 25.23 193.17 0 193.17 25.18 195.25 25.18 195.25 25.19 199.17 25.19 199.17 25.23 218.4 25.23"/><polygon class="cls-92" points="361.17 191.76 361.16 191.76 361.16 195.68 361.13 195.68 361.13 214.92 386.35 189.68 361.17 189.68 361.17 191.76"/><g class="cls-93"><g class="cls-94"><rect class="cls-95" x="361.13" y="164.45" width="25.22" height="25.23"/></g></g><polygon class="cls-92" points="191.1 354.18 191.1 354.17 186.59 354.17 186.59 354.14 167.94 354.14 193.17 379.37 193.17 354.18 191.1 354.18"/><g class="cls-96"><g class="cls-97"><rect class="cls-98" x="193.17" y="354.14" width="25.23" height="25.23"/></g></g><polygon class="cls-92" points="25.18 187.61 25.19 187.61 25.19 183.1 25.23 183.1 25.23 164.45 0 189.68 0.03 189.7 25.18 189.7 25.18 187.61"/><g class="cls-99"><g class="cls-100"><rect class="cls-101" x="0.02" y="189.7" width="25.2" height="25.22"/></g></g><polygon class="cls-92" points="44.08 53.67 25.86 54.1 25.29 106.43 25.93 106.43 30.42 106.43 31.68 106.43 34.53 64.93 35.92 64.93 34.53 106.31 40.94 106.31 41.1 106.31 44.08 53.67"/><g class="cls-102"><path class="cls-103" d="M48.43,110.93a.2.2,0,0,1,.11,0,2.75,2.75,0,0,0-2.07-1.88l-2.63-.52-2.9-2.25h-6.3l-.32,4.6H48.43Z"/><path class="cls-103" d="M48.54,111a2.81,2.81,0,0,1,.13.59v.57H34.24l.08-1.19h-.15v1.26H48.75v-.93a.32.32,0,0,0-.21-.3"/><path class="cls-103" d="M48.71,112.12v-.57a2.81,2.81,0,0,0-.13-.59H34.32l-.08,1.19Z"/><path class="cls-103" d="M23.92,110.93h8.4a8.64,8.64,0,0,0-1.9-4.5H25.93a13,13,0,0,0-2,4.5"/><path class="cls-103" d="M32.25,111.57H23.9a3.42,3.42,0,0,1,0-.64h0a.35.35,0,0,0-.35.34v.92h9.21v-.93c0-.18-.09-.33-.21-.33h-.19a2,2,0,0,1-.07.64"/><path class="cls-103" d="M23.9,111.57h8.35a2,2,0,0,0,.07-.64h-8.4a3.4,3.4,0,0,0,0,.64"/><path class="cls-104" d="M31.4,25.21a2.84,2.84,0,0,0,2.42.78.91.91,0,0,1-.11-.3c-.15-.44-.47-1.84-.67-2.25a1.86,1.86,0,0,1-.14-.37v0l.35.15-.18-.1-.16-.07a5.41,5.41,0,0,1-1.21-.91,5.42,5.42,0,0,1-1.64-1.73l.7,4.11Z"/></g><polygon class="cls-104" points="36.58 23.43 36.59 23.43 36.58 23.4 36.58 23.43"/><polygon class="cls-104" points="36.44 22.61 36.53 23.17 36.54 23.16 36.54 23.15 36.45 22.61 36.44 22.61"/><g class="cls-102"><path class="cls-104" d="M36.54,23.42h0l-.38.08a5.28,5.28,0,0,1-1.43.1,1.31,1.31,0,0,0,.37.68,4.32,4.32,0,0,0,1-.74Z"/><path class="cls-105" d="M36.53,23.17l-.09-.56-.16.05a5.15,5.15,0,0,1-1.91.28,1.63,1.63,0,0,1,.33.45l.06.17a5.28,5.28,0,0,0,1.43-.1Z"/><path class="cls-105" d="M31.68,22.08a5.41,5.41,0,0,0,1.21.91.86.86,0,0,1,0-.32,4.85,4.85,0,0,1-1.21-.59"/></g><path class="cls-105" d="M33.24,23.17l-.18-.1Z"/><g class="cls-102"><path class="cls-106" d="M38.16,11.29l.73,2.13a3.18,3.18,0,0,0-.31-2.75,5.17,5.17,0,0,1-.51.42Z"/><path class="cls-104" d="M38.06,14.49l-.88-.07a7.77,7.77,0,0,1-1.41-2.21,16.55,16.55,0,0,1-5.21,1c1.25,3.68-.47,4.93-.91,5.17l2.9.92,3.25-.48.65,3.81a5.13,5.13,0,0,0,1.64-.93l.51-.5.06-.05a5.25,5.25,0,0,0,1-5.15l-.77-2.58a2.72,2.72,0,0,1-.83,1.07"/></g><path class="cls-104" d="M29.53,18.55v0Z"/><polygon class="cls-104" points="36.44 22.61 36.45 22.61 35.8 18.8 32.52 19.34 36.06 20.47 36.44 22.61"/><g class="cls-102"><path class="cls-104" d="M31.68,22.08a8.38,8.38,0,0,1-1.45-2,1.51,1.51,0,0,1-.15.28,5.37,5.37,0,0,0,1.6,1.72"/><path class="cls-104" d="M32.52,19.34l-2.9-.92-.09,0v.08c.22.55.59.84.69,1.17Z"/><path class="cls-104" d="M32.89,22.67h0a.47.47,0,0,1,.48-.29.65.65,0,0,1,.27.05,1.19,1.19,0,0,1,.68.47,5.15,5.15,0,0,0,1.91-.28l.16-.05-.33-2.1-3.54-1.13-2.27.38a.65.65,0,0,1,0,.39,8.38,8.38,0,0,0,1.45,2,4.85,4.85,0,0,0,1.21.59Z"/><path class="cls-104" d="M38.06,11.09a11.11,11.11,0,0,1-2.33,1.12,7.91,7.91,0,0,0,1.41,2.21l.88.07a2.8,2.8,0,0,0,.86-1.07l-.72-2.13Z"/><path class="cls-106" d="M29.32,15.59l-.06,2c.08.27.16.56.25.83h.11c.44-.24,2.16-1.49.91-5.17a2.13,2.13,0,0,1-.56-.1Z"/><path class="cls-106" d="M29.53,18.44h0l.09-.05h-.11l0,.05"/><path class="cls-106" d="M28.65,16.67l-.2-.59-1.62-3.61-.27-.76,2.07.26,6.43-2.22a2.3,2.3,0,0,1,.51-.1.28.28,0,0,1,0-.13l2.2.09a6.09,6.09,0,0,1,.74,1.06,2.52,2.52,0,0,0,.24-.33c1.58-2.82-.83-7-2.94-5.14-3.45,3.05-3.64,1-5.71,2.91a8.36,8.36,0,0,1-2.61,1.41c-2.3,1-1.22,4.76-.51,5.78a8.9,8.9,0,0,1,1,1.5.85.85,0,0,1,.26-.11.64.64,0,0,1,.41,0"/><path class="cls-106" d="M35.64,9.52a.28.28,0,0,0,0,.13,2.43,2.43,0,0,1,2.42,1.44,5.17,5.17,0,0,0,.51-.42,6.09,6.09,0,0,0-.74-1.06Z"/></g><polygon class="cls-106" points="28.65 16.67 28.72 16.67 28.45 16.08 28.65 16.67"/><g class="cls-102"><path class="cls-106" d="M30.53,13.25a16.55,16.55,0,0,0,5.21-1,3.49,3.49,0,0,1-.14-2.56,3.06,3.06,0,0,0-.51.1L28.63,12l1.48.18a10.39,10.39,0,0,1,.42,1.1"/><path class="cls-106" d="M35.74,12.21a11.27,11.27,0,0,0,2.32-1.12,2.45,2.45,0,0,0-2.47-1.44,3.44,3.44,0,0,0,.15,2.56"/><path class="cls-106" d="M28.49,12h.1l-2-.31.27.76,1.62,3.61-.8-2.32A1.36,1.36,0,0,1,28.49,12"/><path class="cls-106" d="M29.26,17.56l.06-2L30,13.12a2.13,2.13,0,0,0,.56.1,9.62,9.62,0,0,0-.42-1.1l-1.48-.18h-.1a1.36,1.36,0,0,0-.84,1.74l.8,2.32.27.61a1.27,1.27,0,0,1,.5.95"/><path class="cls-104" d="M29.59,19.38l-.45-1.28-.4.61A10.44,10.44,0,0,0,28,16.82c-1.17.57.28,1.35.58,2.23s1.14,1.86,1.52,1.38a5.63,5.63,0,0,1-.46-1Z"/><path class="cls-104" d="M30,19.82h.1a11.35,11.35,0,0,1-.49-1.21v-.08l-.27-.6V18l-.11.17.45,1.28a5.63,5.63,0,0,0,.46,1Z"/><path class="cls-104" d="M30,19.82l.11.63a1.51,1.51,0,0,0,.15-.28l-.16-.41Z"/><path class="cls-104" d="M29.56,18.55a11.43,11.43,0,0,0,.5,1.21h.2c-.11-.37-.48-.66-.7-1.21"/><path class="cls-104" d="M30.25,19.72h-.2l.18.35a.6.6,0,0,0,0-.35"/><path class="cls-104" d="M29.51,18.39h0c-.09-.27-.17-.56-.25-.83v.31l.27.6Z"/><path class="cls-104" d="M29.51,18.39h0"/><path class="cls-104" d="M29.14,18.1l-.49-1.43a.64.64,0,0,0-.43,0,.85.85,0,0,0-.26.11,9.69,9.69,0,0,1,.78,1.91Z"/></g><polygon class="cls-104" points="29.14 18.1 29.25 17.93 29.25 17.87 28.71 16.69 28.65 16.67 29.14 18.1"/><g class="cls-102"><path class="cls-104" d="M28.72,16.69l.54,1.18v-.31a1.27,1.27,0,0,0-.54-.87"/><path class="cls-107" d="M39.87,33.05a12,12,0,0,0-3.1-1.16c-.57,3-1.33,7.22-1.52,8.31a2.63,2.63,0,0,1-.13.62,3.33,3.33,0,0,1-.16.6c4.68-.33,5.57-1.06,8.85-1.52l-.75-2.38c-.64.22-1.06.39-1.06.39Z"/><path class="cls-107" d="M44.06,53.38v.29h.23l-.23-9.85H35.23a2.52,2.52,0,0,1-2.75.19,2,2,0,0,0-1.64,1c-.14.23-1.06.46-.69-.5-.15.15-.33.65-.79.45-.15-.06-.44-.34.06-1.26-.36.57-.65,1.07-1.06.87s.19-1.11.23-1.48c-.27.32-.54,1-.87.88s.21-1.64.48-2.17a3.47,3.47,0,0,1,.64-.63L28.56,41l-.16-.09c-.83-.38-1.73-.82-2.62-1.31-.2.14-.41.26-.62.38a122.94,122.94,0,0,1,.7,14.1v-.72Z"/><path class="cls-107" d="M25.91,31.29a19.53,19.53,0,0,1,3.39,4.38,3.17,3.17,0,0,0-.44.12l2.82,1.78c.61-2,1.38-4.64,2-6.67l.25.09c-.65-.22-1.08-.4-1.08-.48s-.88-1.92-.88-2a3.22,3.22,0,0,0,1.45-.58,3,3,0,0,1-2.51-2.58l-.14-.84-7.42,4c1.44-.69,1.32,1.72,2.56,2.78"/></g><polygon class="cls-107" points="25.86 53.38 25.86 54.1 44.08 53.67 44.1 53.38 25.86 53.38"/><g class="cls-102"><path class="cls-107" d="M30.92,25.37A3,3,0,0,0,33.43,28a10.94,10.94,0,0,0,.91-.89c-.15-.36-.35-.71-.5-1a2.81,2.81,0,0,1-2.42-.78l-.59-.71.14.84Z"/><path class="cls-108" d="M47.41,36.42l.14.56a5,5,0,0,0,.82-.52,2.82,2.82,0,0,0-1,0"/><path class="cls-109" d="M34.72,41.58l.05.23a2.35,2.35,0,0,1-1.71,1.11h-.14c-.94,0-2.76-1.05-4.06-1.75a3.47,3.47,0,0,0-.64.63c-.27.53-1,1.89-.48,2.17s.6-.56.87-.88c0,.37-.65,1.28-.23,1.48s.7-.3,1.06-.87c-.5.92-.21,1.2-.06,1.26.46.2.64-.3.79-.45-.37,1,.55.73.69.5a2.06,2.06,0,0,1,1.64-1,2.52,2.52,0,0,0,2.7-.19l-.47-2.22Z"/><path class="cls-109" d="M45.06,36.82l-1.23.37.23,6.63h2.88a2.1,2.1,0,0,0,.43,0,1.85,1.85,0,0,0,1.33-2.23L47.57,37a4.36,4.36,0,0,1-2.21.48Z"/><path class="cls-109" d="M43.06,37.52l.83,2.38c-3.28.46-4.17,1.19-8.85,1.52,0,.12-.11.24-.17.36l-.06-.27.39,2.31h8.86l-.18-6.57Z"/><path class="cls-109" d="M45.06,36.82l.25.6a4.36,4.36,0,0,0,2.21-.48l-.14-.56a11.45,11.45,0,0,0-2.32.44"/></g><polygon class="cls-109" points="34.72 41.58 35.2 43.8 34.73 41.57 34.72 41.58"/><g class="cls-102"><path class="cls-107" d="M39.17,25.73a1,1,0,0,1,.09.35l3.35,2.09c1.47.6,1.06.58,1.06,2.17v1.29l2.39-.52,1.15,4.63,1.12.72c-.37-1.25-1.7-7.34-3.22-8.49a21.83,21.83,0,0,0-6.73-3.07,8.89,8.89,0,0,1,.79.83"/><path class="cls-107" d="M37.37,28.94h0c-.12.46-.34,1.57-.6,2.94A12,12,0,0,1,39.87,33L42,37.9s.42-.17,1.06-.39l-1.88-5.34,2.57-.55V30.33c0-1.59.41-1.57-1.06-2.17l-3.39-2.08c0,1.12-1.89,2.86-1.89,2.86"/><path class="cls-107" d="M33.69,30.89c.36-1.23.66-2.22.8-2.63a1.93,1.93,0,0,0,0-.34,3.14,3.14,0,0,1-1.06,0A3.22,3.22,0,0,1,32,28.5c0,.06.88,1.92.88,2s.43.26,1.08.48Z"/><path class="cls-107" d="M34.49,27.92h0a2.09,2.09,0,0,0-.16-.86,10.94,10.94,0,0,1-.91.89,3.21,3.21,0,0,0,1.07,0"/><path class="cls-107" d="M47.25,35.74l.16.68a2.8,2.8,0,0,1,1,0Z"/></g><polygon class="cls-107" points="45.06 36.82 44.8 36.21 46.08 34.98 47.22 35.7 46.06 31.11 43.67 31.63 43.82 37.23 45.06 36.82"/><polygon class="cls-107" points="43.06 37.52 43.9 37.23 43.75 31.63 41.18 32.18 43.06 37.52"/><g class="cls-102"><path class="cls-107" d="M44.83,36.25l.23.57a11.45,11.45,0,0,1,2.32-.44l-.16-.68L46.08,35Z"/><path class="cls-110" d="M38.74,21.08h0l-.05.05a.86.86,0,0,1,.39-.23.63.63,0,0,0-.32.15Z"/><path class="cls-110" d="M38.06,21.7c-.41.39-1,.95-1.56,1.45v.28c.36-.37.66-.71.71-.77.4-.46,1-1.1,1.25-1.39l-.41.39Z"/><path class="cls-110" d="M39.34,21.73c-.15.21-.3.44-.46.68.2-.23.38-.45.52-.64.36-.49.18-.88-.16-.88h-.13c.37-.07.59.34.23.84"/></g><path class="cls-110" d="M36.54,23.16h0Z"/><polygon class="cls-110" points="36.58 23.4 36.59 23.43 36.56 23.22 36.58 23.4"/><g class="cls-102"><path class="cls-110" d="M38.55,21.27l.13-.12,0,0c-.19.2-.39.39-.59.57.14-.13.28-.26.41-.4"/></g><path class="cls-110" d="M38.68,21.12h0Z"/><g class="cls-102"><path class="cls-111" d="M32.88,23.06h0v0Z"/><path class="cls-111" d="M34.28,25.93c0-.1-.08-.19-.11-.28-.14-.44-.71-1.65-.75-2a1.44,1.44,0,0,0-.17-.45l-.35-.15a1.86,1.86,0,0,0,.14.37c.2.41.52,1.81.67,2.25a.91.91,0,0,0,.11.3Z"/><path class="cls-111" d="M36.54,23.41h0l-.42.08a4.32,4.32,0,0,1-1,.74l.15.1c.24.1.82-.42,1.3-.9Z"/></g><path class="cls-112" d="M36.19,23.46l.38-.08Z"/><polygon class="cls-112" points="36.53 23.17 36.54 23.2 36.54 23.17 36.58 23.4 36.54 23.16 36.53 23.17"/><polygon class="cls-112" points="32.89 23 33.05 23.07 32.89 22.99 32.89 23"/><g class="cls-102"><path class="cls-112" d="M33.06,22.82h0l-.22-.07a.86.86,0,0,0,0,.32l.16.08.17.08a.87.87,0,0,1-.11-.41"/></g><polygon class="cls-112" points="36.2 23.46 36.54 23.4 36.54 23.17 36.2 23.46"/><g class="cls-102"><path class="cls-112" d="M32.89,22.67h0l.22.07-.22-.07"/></g><polygon class="cls-112" points="36.54 23.16 36.56 23.22 36.55 23.15 36.54 23.16"/><polygon class="cls-112" points="36.58 23.4 36.56 23.22 36.54 23.16 36.58 23.4"/><polygon class="cls-112" points="36.54 23.2 36.54 23.4 36.54 23.17 36.54 23.2"/><path class="cls-112" d="M36.54,23.4v0Z"/><g class="cls-102"><path class="cls-111" d="M38.68,21.12h0l-.51.5c.18-.16.35-.33.51-.5"/><path class="cls-111" d="M33.11,22.73c.08-.26.64-.25.93-.05a1.38,1.38,0,0,1,.3.24,1.19,1.19,0,0,0-.68-.47.65.65,0,0,0-.27-.05.47.47,0,0,0-.48.29Z"/></g><polygon class="cls-111" points="38.73 21.08 38.73 21.09 38.74 21.08 38.73 21.08"/><g class="cls-102"><path class="cls-111" d="M38.14,21.66c.2-.18.4-.37.59-.57h0a7,7,0,0,1-.55.54Z"/><path class="cls-111" d="M33.11,22.73l-.21-.06.22.06Z"/><path class="cls-113" d="M33.85,26a3.18,3.18,0,0,0,.43-.06Z"/><path class="cls-113" d="M34.94,41.43h0a3.33,3.33,0,0,0,.16-.6,2.88,2.88,0,0,1-.3.61Z"/><path class="cls-113" d="M33.92,31l-.25-.09c-.6,2-1.37,4.71-2,6.67.62-1.71,1.53-4.45,2.25-6.58"/></g><polygon class="cls-113" points="28.5 41.02 28.78 41.18 28.82 41.15 28.34 40.93 28.5 41.02"/><g class="cls-102"><path class="cls-113" d="M34.65,26.68c-.12-.26-.26-.51-.37-.75a3.18,3.18,0,0,1-.43.06c.15.34.35.69.5,1Z"/><path class="cls-114" d="M33.06,42.92a2.33,2.33,0,0,0,1.71-1.1l-.05-.23a2.55,2.55,0,0,1-2,.94h-.09a1.64,1.64,0,0,1-.32-.05h-.17l-.24-.08s-1.32-.46-3-1.23c1.3.7,3.12,1.75,4.06,1.75Z"/></g><rect class="cls-114" x="34.99" y="41.42" width="0.01" height="0.01"/><g class="cls-102"><path class="cls-114" d="M35,41.47h-.16v.05l.06.27c.06-.12.12-.24.17-.36a.08.08,0,0,1-.07,0"/></g><polygon class="cls-114" points="34.82 41.43 34.84 41.43 34.98 41.43 34.82 41.43"/><g class="cls-102"><path class="cls-113" d="M34.65,26.68l-.32.35c.1-.11.2-.23.32-.35"/><path class="cls-113" d="M34.91,28.16h0a2.16,2.16,0,0,0,0-.36,4,4,0,0,1-.45.15,1.93,1.93,0,0,1,0,.34c-.14.41-.44,1.4-.8,2.63l.25.09c.38-1.12.7-2.06.89-2.59a1.19,1.19,0,0,1,.11-.26"/><path class="cls-113" d="M34.5,27.92l.45-.15a2.79,2.79,0,0,0-.29-1.06c-.12.12-.22.24-.32.35a2.09,2.09,0,0,1,.16.86"/></g><path class="cls-113" d="M34.33,27l.32-.35Z"/><g class="cls-102"><path class="cls-108" d="M24.88,39.13a8.66,8.66,0,0,0-.65,1.2A3.39,3.39,0,0,0,25.1,40l0-.79Z"/></g><path class="cls-108" d="M24.2,40.35v0Z"/><g class="cls-102"><path class="cls-108" d="M25.06,39.21l.09.79c.21-.12.42-.24.62-.38Z"/><path class="cls-109" d="M35.2,40.46a2.68,2.68,0,0,1-.07.27v.09a2.63,2.63,0,0,0,.13-.62v.26Z"/></g><path class="cls-109" d="M34.72,41.58v0Z"/><polygon class="cls-109" points="34.72 41.56 34.72 41.58 34.73 41.57 34.73 41.55 34.72 41.56"/><g class="cls-102"><path class="cls-109" d="M35.13,40.73a1.82,1.82,0,0,1-.13.37c-.06.11-.12.22-.19.33a2.88,2.88,0,0,0,.3-.61Z"/><path class="cls-109" d="M32.61,42.53l-.32-.05a1.64,1.64,0,0,0,.32.05"/><path class="cls-109" d="M32.7,42.53a2.55,2.55,0,0,0,2-.94,2.55,2.55,0,0,1-2,.94"/></g><path class="cls-109" d="M32.12,42.45l-.24-.08Z"/><path class="cls-109" d="M34.78,41.47v0Z"/><path class="cls-109" d="M21.7,36.67v0Z"/><g class="cls-102"><path class="cls-109" d="M29.85,39.57a.84.84,0,0,1,.57-.47V39a2.46,2.46,0,0,1,1.22-1.14l.06-.22-2.82-1.78a7.21,7.21,0,0,0-2.75,1.76l.92.89a11.45,11.45,0,0,1-1.33,1.18c.89.49,1.79.93,2.62,1.31-.92-.57.92-.14,1.51-1.39"/></g><polygon class="cls-109" points="31.67 37.82 31.67 37.86 31.73 37.64 31.67 37.82"/><g class="cls-102"><path class="cls-109" d="M29.67,40.63a1.78,1.78,0,0,1,.65,0,2.49,2.49,0,0,1,.1-1.55.84.84,0,0,0-.57.47c-.59,1.24-2.43.82-1.51,1.36l.48.22a3,3,0,0,1,.85-.5"/><path class="cls-109" d="M30.33,40.69h0a1.78,1.78,0,0,0-.65,0h.65Z"/></g><path class="cls-109" d="M28.93,41l.32-.22Z"/><g class="cls-102"><path class="cls-109" d="M31.63,42.27h-.06a2.52,2.52,0,0,1-1.23-1.52,2.76,2.76,0,0,0-.49-.07h-.19a2.22,2.22,0,0,0-.41.2l-.32.22-.09.07c1.72.77,3,1.23,3,1.23l-.21-.08Z"/><path class="cls-109" d="M28.93,41.07l.32-.22.42-.22a2.86,2.86,0,0,0-.85.52Z"/></g><path class="cls-109" d="M28.84,41.14l.09-.07Z"/><g class="cls-102"><path class="cls-109" d="M29.66,40.65h.19a2.76,2.76,0,0,1,.49.07l-.46-.06h-.2l-.42.22a2.3,2.3,0,0,1,.4-.23"/><path class="cls-109" d="M24.88,39.13l.13.08V39a.83.83,0,0,0-.13.18"/><path class="cls-109" d="M27.06,38.44l-.92-.89A7.67,7.67,0,0,0,25,39v.26l.71.41a11.64,11.64,0,0,0,1.35-1.18"/></g><path class="cls-109" d="M31.57,42.27h0Z"/><path class="cls-109" d="M36.76,24.4h0Z"/><g class="cls-102"><path class="cls-109" d="M37.65,24.35l.41.47.39.13c-.18-.19-.36-.38-.56-.56a.35.35,0,0,1,0-.43c.24-.37.61-1,1-1.51a15.82,15.82,0,0,0-1.23,1.48.36.36,0,0,0,0,.42"/><path class="cls-109" d="M34.87,24.38l.26-.14a1.31,1.31,0,0,1-.37-.68h-.29l-.25-.06-.43-.1a2,2,0,0,1-.34-.12l-.23-.08a5.19,5.19,0,0,0,1.22.36c.1.38.16.71.43.82"/></g><polygon class="cls-109" points="36.58 23.43 36.75 24.41 36.76 24.4 36.59 23.43 36.58 23.43"/><path class="cls-109" d="M33.45,23.23l-.23-.08Z"/><path class="cls-109" d="M34.23,23.47l-.43-.1Z"/><g class="cls-102"><path class="cls-109" d="M34.37,22.94h0a2.62,2.62,0,0,1,.12.57h.29l-.06-.17a1.51,1.51,0,0,0-.35-.4"/></g><path class="cls-109" d="M35.31,26l.12-.13Z"/><g class="cls-102"><path class="cls-109" d="M38.06,24.82l-1.32-.4,1.32.4a6,6,0,0,1,.88,1v.1l.29.19a1,1,0,0,0-.09-.35,9.28,9.28,0,0,0-.71-.82Z"/><path class="cls-109" d="M37.38,28.82a.2.2,0,0,0,0,.11s1.93-1.74,1.89-2.86L39,25.88c.3.88-1,2.31-1.6,2.94"/><path class="cls-109" d="M38.55,21.27c-.27.29-.85.93-1.25,1.39,0,.06-.35.4-.71.77l.17,1,1.3.39-.42-.43a.36.36,0,0,1,0-.46,15.82,15.82,0,0,1,1.23-1.48c.16-.24.31-.47.46-.68.36-.5.14-.88-.23-.82a.78.78,0,0,0-.39.23l-.16.09"/></g><path class="cls-109" d="M36.76,24.4l-.17-1Z"/><g class="cls-102"><path class="cls-109" d="M38.55,21.27a1.59,1.59,0,0,0,.13-.13Z"/></g><path class="cls-109" d="M38.06,24.82l-1.3-.38Z"/><g class="cls-102"><path class="cls-109" d="M34.17,25.65a.9.9,0,0,0,.11.28h.11a5.16,5.16,0,0,0,1.52-.61l.82-.86-.17-1c-.48.48-1.06,1-1.3.9l-.15-.1-.26.14c-.27-.11-.33-.44-.4-.8a5.19,5.19,0,0,1-1.22-.36,1.44,1.44,0,0,1,.17.45c.06.31.66,1.52.77,2"/><path class="cls-109" d="M33.8,23.37l-.34-.12a2,2,0,0,0,.34.12"/><path class="cls-109" d="M34.48,23.53h0"/><path class="cls-109" d="M34.34,22.94h0c-.24,0-.48,0-.72-.08a1.61,1.61,0,0,1-.48-.12h0a.83.83,0,0,0,.13.36l.24.1.34.12.43.1h.24a2.62,2.62,0,0,0-.12-.57Z"/><path class="cls-109" d="M34.33,22.94c-.24,0-.48,0-.72-.08.24,0,.48.06.72.08"/><path class="cls-109" d="M33.11,22.73h0a2.25,2.25,0,0,1,.48.12Z"/><path class="cls-109" d="M33.11,22.73a5.11,5.11,0,0,0,1.23.21,1.13,1.13,0,0,0-.3-.24c-.29-.22-.85-.23-.93,0"/></g><path class="cls-109" d="M34.33,22.94h0Z"/><g class="cls-102"><path class="cls-109" d="M33.11,22.73h0l.48.13c.24,0,.48.06.72.08a6,6,0,0,1-1.2-.21"/><path class="cls-109" d="M35.91,25.3a5.16,5.16,0,0,1-1.52.61,5,5,0,0,0,1.5-.58Z"/><path class="cls-109" d="M35.43,25.82c.14-.15.29-.32.46-.49a5,5,0,0,1-1.5.58h-.11c.11.24.25.49.37.75l.66-.73Z"/></g><polygon class="cls-109" points="36.75 24.42 35.92 25.29 35.98 25.29 36.78 24.42 36.75 24.42"/><g class="cls-102"><path class="cls-109" d="M35.9,25.32l-.47.5-.12.13-.66.73c.34-.38.76-.85,1.3-1.43Z"/><path class="cls-109" d="M36.77,24.52,39,25.89v-.1a6.45,6.45,0,0,0-.91-1l-1.28-.39a.17.17,0,0,0,0,.09"/><path class="cls-109" d="M36.76,24.51h0V24.4l-.8.87a3,3,0,0,0,.8-.76"/><path class="cls-109" d="M35,27.82a2.16,2.16,0,0,1,0,.36,1.3,1.3,0,0,1,2.46.69c.62-.63,1.9-2.06,1.59-2.93l-2.2-1.37A3,3,0,0,1,35,27.82"/><path class="cls-109" d="M36.77,24.52h0a3.09,3.09,0,0,1-.8.77c-.54.58-1,1.05-1.3,1.43a2.75,2.75,0,0,1,.28,1.1,3,3,0,0,0,1.82-3.3"/></g><path class="cls-109" d="M35.93,25.28l.82-.86Z"/><path class="cls-109" d="M34.65,26.68l.66-.73Z"/><g class="cls-102"><path class="cls-109" d="M35.43,25.82l.47-.5c-.18.18-.33.35-.47.5"/><path class="cls-109" d="M32.29,42.48h0"/><path class="cls-109" d="M35.2,40.46h0v0"/></g><path class="cls-109" d="M34.72,41.56l0-.09Z"/><path class="cls-109" d="M34.71,41.55v0Z"/><polygon class="cls-109" points="34.7 41.47 34.72 41.55 34.73 41.55 34.71 41.47 34.7 41.47"/><g class="cls-102"><path class="cls-109" d="M34.71,41.43h.1c.07-.11.13-.22.19-.33a1.82,1.82,0,0,0,.13-.37v-.28l-2-.65L32.51,41Z"/><path class="cls-109" d="M34.7,41.44h0L32.56,41c.71.12,1.43.26,2.14.42Z"/></g><rect class="cls-109" x="34.7" y="41.44" width="0.01" height="0.03"/><g class="cls-102"><path class="cls-109" d="M34.72,41.56v-.09c-.71-.16-1.42-.3-2.14-.43l-.68,1.32.24.08h.17l.32.05h.09a2.54,2.54,0,0,0,2-.93"/><path class="cls-109" d="M32.56,41h0c.72.13,1.43.27,2.14.43-.71-.17-1.43-.31-2.14-.43"/><path class="cls-109" d="M30.79,38.47h0a2.28,2.28,0,0,1,.82-.66A2.48,2.48,0,0,0,30.44,39v.14a2.82,2.82,0,0,1,.35-.64"/><path class="cls-109" d="M30.44,39.09h0a2.49,2.49,0,0,0-.1,1.55,2.49,2.49,0,0,1,.1-1.55"/><path class="cls-109" d="M30.34,40.7v0Z"/><path class="cls-109" d="M30.35,40.72h0a2.52,2.52,0,0,0,1.23,1.52c-.13-.07-.26-.16-.38-.24a2.53,2.53,0,0,1-.85-1.28"/><path class="cls-109" d="M31.63,42.27h0l.21.08-.21-.08"/><path class="cls-109" d="M31.63,37.82a2.28,2.28,0,0,0-.82.66,2.91,2.91,0,0,0-.35.62,8.52,8.52,0,0,0,.86-.26c.08-.31.2-.67.31-1"/><path class="cls-109" d="M33.19,39.82l-2-.64.47-1.36c-.11.37-.23.73-.33,1a8.52,8.52,0,0,1-.86.26,2.52,2.52,0,0,0-.11,1.56c.59.06,1.44.2,2.24.35Z"/><path class="cls-109" d="M32.57,41c-.8-.15-1.65-.29-2.24-.35v.05q1.11.12,2.22.33Z"/><path class="cls-109" d="M31.19,42a3,3,0,0,0,.38.24h.06a1.7,1.7,0,0,0,.24.09L32.55,41c-.73-.13-1.47-.23-2.2-.32A2.59,2.59,0,0,0,31.19,42"/><path class="cls-109" d="M30.34,40.7h0c.73.09,1.47.19,2.2.32-.73-.14-1.46-.24-2.2-.32"/></g><path class="cls-109" d="M37.29,28.91h0Z"/><polygon class="cls-109" points="37.27 28.92 37.29 28.91 34.92 28.13 37.27 28.92"/><g class="cls-102"><path class="cls-109" d="M34.83,28.39a.88.88,0,0,1,.09-.26,1.14,1.14,0,0,0-.09.26"/><path class="cls-109" d="M37.36,28.93a.2.2,0,0,1,0-.11l-.09.09Z"/><path class="cls-109" d="M37.38,28.82a1.3,1.3,0,0,0-2.46-.69l2.37.78Z"/><path class="cls-109" d="M35.25,39.94v.26c.19-1.09,1-5.3,1.52-8.31-1-.32-2.07-.64-2.83-.9.7.24,1.66.54,2.61.83-.49,2.7-1,6.44-1.3,8.12"/><path class="cls-109" d="M37.37,29h0a1.46,1.46,0,0,1-.1.34,1.38,1.38,0,0,1-.32.4c-.11.53-.24,1.26-.38,2.12-1-.3-1.92-.59-2.61-.83.76.26,1.81.58,2.83.9.27-1.36.46-2.47.58-2.93"/><path class="cls-109" d="M31.87,37.68A2.32,2.32,0,0,1,33,37.54h.11a1.34,1.34,0,0,1,.39.07l.23.08.18.06a1.93,1.93,0,0,1,.36.22h.06a2.47,2.47,0,0,1,.94,1.87c.25-1.68.83-5.42,1.28-8.08-1-.29-1.91-.59-2.61-.83-.72,2.13-1.63,4.87-2.19,6.56Z"/><path class="cls-109" d="M35.54,29.88a1.28,1.28,0,0,1-.71-1.49c-.19.53-.51,1.47-.89,2.59.69.24,1.62.53,2.61.83.14-.86.27-1.59.38-2.12a1.29,1.29,0,0,1-1.39.19"/><path class="cls-109" d="M35.2,40.46h0V40a3.38,3.38,0,0,1,0,.45"/></g><path class="cls-109" d="M33.63,37.7l-.23-.08Z"/><g class="cls-102"><path class="cls-109" d="M35.24,40v-.07a2.47,2.47,0,0,0-.94-1.87h-.06a2.51,2.51,0,0,1,1,1.94"/><path class="cls-109" d="M33.84,37.82a2.32,2.32,0,0,1,.36.22,1.93,1.93,0,0,0-.36-.22"/><path class="cls-109" d="M31.73,37.59l-.06.18a.72.72,0,0,1,.2-.09Z"/><path class="cls-109" d="M33.06,37.55a1.34,1.34,0,0,1,.39.07,1.34,1.34,0,0,0-.39-.07"/><path class="cls-109" d="M33,37.54a2.32,2.32,0,0,0-1.08.14A2.32,2.32,0,0,1,33,37.54"/></g><polygon class="cls-109" points="33.84 37.78 33.81 37.76 33.63 37.7 33.84 37.78"/><g class="cls-102"><path class="cls-109" d="M35.24,40a.87.87,0,0,1-.07.44c0-.15,0-.3.07-.44"/><path class="cls-109" d="M33.67,38.88l-.48.92,2,.65a1.08,1.08,0,0,1,.07-.44,2.55,2.55,0,0,0-1-2,2.32,2.32,0,0,0-.36-.22l-.21-.08-.23-.08a1.78,1.78,0,0,0-.39-.07H33a2.4,2.4,0,0,0-1.06.15,16.29,16.29,0,0,1,1.72,1.17"/><path class="cls-109" d="M31.89,37.69h0a.72.72,0,0,0-.2.09Z"/><path class="cls-109" d="M33.19,39.82l.48-.92a16.22,16.22,0,0,0-1.78-1.19l-.23.1-.45,1.37Z"/><path class="cls-109" d="M37.06,29.14a4.88,4.88,0,0,0-.12.55,1.38,1.38,0,0,0,.32-.4,1.46,1.46,0,0,0,.1-.34h-.08Z"/><path class="cls-109" d="M37.27,28.92l-2.35-.79a.34.34,0,0,1-.09.26,1.29,1.29,0,0,0,1,1.56,1.3,1.3,0,0,0,1.14-.26,4.88,4.88,0,0,1,.12-.55Z"/><path class="cls-107" d="M21.74,36.71a11.64,11.64,0,0,0,2.43,3.58L23,37.82a10.12,10.12,0,0,1-1.24-1.11"/><path class="cls-107" d="M22,35.72H22l1.22-3.9.85.66c-.22-1.33-.46-2.65-.72-4-2.51,1.36-3,4.79-1.64,8.09l.27-.85Z"/><path class="cls-107" d="M28.88,35.82a3.17,3.17,0,0,1,.44-.12,19.53,19.53,0,0,0-3.39-4.38c-1.24-1.06-1.12-3.51-2.56-2.74.26,1.32.5,2.64.72,4,1.5,1.07,3.22,2.24,4.79,3.24"/><path class="cls-107" d="M23,37.82l1.19,2.44v.05a8.66,8.66,0,0,1,.65-1.2A21.64,21.64,0,0,1,23,37.82"/></g><polygon class="cls-107" points="21.95 35.72 21.98 35.78 22 35.7 21.95 35.72"/><g class="cls-102"><path class="cls-107" d="M24.62,36.09c-.16-1.2-.35-2.39-.55-3.57l-.85-.7L22,35.67l1.88-.34Z"/><path class="cls-107" d="M23,37.82l-1-2.06-.27.85v.07A10.64,10.64,0,0,0,23,37.82"/><path class="cls-107" d="M26.13,37.55a7.14,7.14,0,0,1,2.75-1.73c-1.57-1-3.29-2.14-4.81-3.27.2,1.18.39,2.37.55,3.57Z"/><path class="cls-107" d="M24.62,36.09l-.74-.72L22,35.71v.08l1,2.06a22.53,22.53,0,0,0,1.9,1.28A.78.78,0,0,1,25,39l-.39-2.86"/><path class="cls-107" d="M25,39a7.67,7.67,0,0,1,1.14-1.4l-1.51-1.46c.13.95.26,1.9.37,2.86"/></g><path class="cls-115" d="M38.07,269.61l7,13.9s-1.41-7.24-2.59-10.09c-1.59-3.82-4-3.93-4.42-3.81"/><path class="cls-116" d="M45.77,304.77a3.84,3.84,0,0,0-1,2.15c-.21,1.42-.26,3.37-.37,4l-.11.6s.84.61,1.12-.82.47-2.8.79-2a5.51,5.51,0,0,1,.14,2.85,9.06,9.06,0,0,0-.2,2.08s-.25.93.49,1.05c0,0,1.3-2.66,1.57-3.54a14.84,14.84,0,0,0-.23-5.75c-.2-.57-.71-1.41-2.23-.54"/><path class="cls-116" d="M46.17,319.75c-.6-4.29-1.28-8.58-2-12.85a4.56,4.56,0,0,0-8.94,1.79v.15c1.1,4.33,2.21,8.65,3.23,13,.65,2.78,3,12.28,2.92,13.75-.36,4.65-.76,5.89-.54,10.93.2,4.42,1.63,14.41,1.83,18.83v.75a1.88,1.88,0,0,0,3.76,0v-.78c.21-4.44.43-8.88.63-13.31.13-2.85.26-7.08.39-9.93.06-1.44.13-2.88.19-4.33,0-1,.09-2,.08-3a53.29,53.29,0,0,0-.59-6.68c-.3-2.79-.67-5.58-1.06-8.36"/><path class="cls-117" d="M44.24,307.33a47,47,0,0,1-5.3.38,1.46,1.46,0,0,1,.21.28,4.58,4.58,0,0,1,.83,2.63v.05q-.07,6.66-.64,13.34c0,.35-.06.69-.08,1,.9,3.79,2.15,9.11,2.15,10.44v.12c-.29,3.72-.6,5.26-.6,8.31,0,.76,0,1.62.06,2.62.19,4.42,1.63,14.41,1.83,18.83v.75a1.91,1.91,0,0,0,1.88,1.79h.15a2.23,2.23,0,0,0,.67-.19c-3.65-8-1.93-16.72-1.91-25.17A4.64,4.64,0,0,1,47.7,338v-.22c0-.92.09-1.85.09-2.77v-.19a53.29,53.29,0,0,0-.59-6.68c-.3-2.79-.67-5.58-1.06-8.36s-.8-5.46-1.23-8.18c-.12-.76-.25-1.51-.37-2.27l-.33-2"/><path class="cls-116" d="M34.12,306.24a4.6,4.6,0,0,0-3.26,4.09c0,.86.09,5.63.14,8.1.1,4.66,1.14,11.06.5,15.69C31,337.82,29.32,341.25,29,345c-.44,4.79-.15,13.1-.35,17.91a16.64,16.64,0,0,0-.07,2,1.88,1.88,0,0,0,3.74.11c.1-.69.2-1.37.29-2.06.69-4.76,1.51-10.88,2.41-15.61.68-3.49,1.85-7.76,2.66-11.22A70.75,70.75,0,0,0,39.34,324q.57-6.66.64-13.34a4.56,4.56,0,0,0-4.5-4.62h0a4.47,4.47,0,0,0-1.36.19"/><path class="cls-117" d="M32.28,307.31a4.64,4.64,0,0,0-1.42,3V311c0,1.62.11,5.37.15,7.46.08,3.57.7,8.16.71,12.19a25.59,25.59,0,0,1-.21,3.5C31,337.8,29.33,341.23,29,345c-.45,4.79-.15,13.1-.35,17.91,0,.52-.08,1.07-.08,1.61v.41a1.91,1.91,0,0,0,1.87,1.75h.23a69.16,69.16,0,0,1-.58-9.75c0-4.9.43-10.18,2.33-14.76a5.47,5.47,0,0,1,2.11-2.74,4.08,4.08,0,0,1,2.25-.61H37c.23-.92.45-1.82.65-2.66A70.75,70.75,0,0,0,39.35,324q.57-6.66.65-13.34v-.05a4.57,4.57,0,0,0-.84-2.63,1.46,1.46,0,0,0-.21-.28H37.63a45.54,45.54,0,0,1-5.35-.41"/><path class="cls-103" d="M51.89,367.68c-1.68-.18-5.24-2.42-5.24-2.42h-4a15.56,15.56,0,0,0-.52,3.46,5.71,5.71,0,0,0,.29,1.35H54s.48-2.13-2.11-2.42"/><path class="cls-103" d="M44.43,365.25H42.65a15.56,15.56,0,0,0-.52,3.46,5.71,5.71,0,0,0,.29,1.35h4.65a4.78,4.78,0,0,1-2.66-4.83"/><path class="cls-103" d="M35.7,367.67c-1.09-.18-3.43-2.41-3.43-2.41h-3.9a23.57,23.57,0,0,0-.34,3.46,9,9,0,0,0,.19,1.35h8.85s.32-2.12-1.38-2.41"/><path class="cls-103" d="M30.54,365.25H28.37a23.57,23.57,0,0,0-.34,3.46,9,9,0,0,0,.19,1.35h3.85a5.17,5.17,0,0,1-1.52-4.82"/><path class="cls-118" d="M32,314.18c2.31,1.79,9.47,2.64,12.17.51,2.21-1.74,2.21-9,2.21-9l-16.71.16s0,6.49,2.33,8.29"/><path class="cls-119" d="M29.68,305.6l-1.94,29.88s9.35,3.42,22,0l-3.39-29.75Z"/><path class="cls-120" d="M29.68,305.6l-1.94,29.88a29.77,29.77,0,0,0,6.33,1.29,13.74,13.74,0,0,1-1.17-5c-.31-5,1.49-10.22,3.69-14.61,2-3.92,5.18-8.57,9.73-9.63h.25l-.2-1.74Z"/><path class="cls-121" d="M46.34,299.5c-.24-.6-.5-1.24-.76-1.92-.13-.33-.26-.68-.38-1-.07-.17-.12-.34-.18-.51s-.05-.16-.07-.23v-.33l-.12-.37c-.08-.2-.15-.4-.22-.61-.13-.39-.27-.78-.41-1.17-.26-.78-.52-1.57-.76-2.35-.47-1.57-.88-3.13-1.16-4.58-.14-.72-.26-1.42-.34-2.06s-.14-1.25-.16-1.79v-2.75a.7.7,0,0,1,.06-.35l.06-.31a3.93,3.93,0,0,0,.06-.48,4.12,4.12,0,0,0-8.2-.81v2.61a4.64,4.64,0,0,0,.06.91c.06.33.07.65.11,1s.1.71.17,1.07c.12.74.3,1.52.5,2.32s.45,1.63.73,2.46a52.62,52.62,0,0,0,2,5c.36.83.75,1.64,1.13,2.43l1.07,2.17.07.14v.13l.1.17.19.3c.12.2.24.38.36.55l.68,1c.44.62.86,1.2,1.25,1.73.78,1.06,1.43,1.93,1.89,2.54a5.39,5.39,0,0,1,.7,1.32c.5.66,3.66-.35,3.26-1.29,0,0-1.21-3.71-1.69-4.9"/><path class="cls-26" d="M45.8,283.51c0-2.75-1.39-4.83-2.66-7.69-1.07-2.42-4.38-6.2-6-6.21-7.09,0-7.33,7.95-7.09,10.45.48,5,.8,11.48,1.44,15.39.38,2.36-1.72,6.26-1.89,11.48a58,58,0,0,0,8,.79c7.09,0,8.91-1,8.91-1a57,57,0,0,0-.44-9.14c-.75-5.18-.3-10.24-.25-14.07"/><path class="cls-122" d="M41.14,291.82a47.68,47.68,0,0,1-.67-15.07,5.52,5.52,0,0,1,1.34-3.16c-1.45-2-3.49-4-4.62-4-7.51,0-7.8,8-7.56,10.46.48,5,1.27,11.47,1.91,15.38.38,2.36-1.72,6.26-1.89,11.48a58,58,0,0,0,8,.79c7.09,0,8.91-1,8.91-1s.08-1.89,0-4.54a20.64,20.64,0,0,1-5.35-10.41"/><path class="cls-116" d="M39.62,270.25s-.29-1.77-.41-2.33-.27-1.11-.38-1.52l-.2-.69a2,2,0,0,0-3.85.48v.25a9,9,0,0,1-.54,3.4c0,1.73,3.12,3.44,4.57,3.25s1-1.33.82-2.78Z"/><path class="cls-123" d="M39.64,270.33a5.46,5.46,0,0,0,.1.69,5,5,0,0,0-.1-.69"/><path class="cls-117" d="M36.15,267.9c.24.49.49,1,.77,1.45s.42.69.64,1l.22.3c.54.51,1,1.15,1.54,1.65l.28.23.09.07a2.54,2.54,0,0,0,.05-1.61,5,5,0,0,0-.1-.69v-.12s-.11-.71-.23-1.37H39a4.51,4.51,0,0,1-2.84-1"/><path class="cls-121" d="M38.07,274.32c-.94-1.08-3.33-2.53-3.86-4.48-3,1.23-4.36,4.76-4.62,7.75a21.65,21.65,0,0,0,.14,3.94c.19,2,.39,4,.57,6,.19,2.28.35,4.55.46,6.83a21.58,21.58,0,0,1-.43,5c-.39,2.13-.81,4.25-1.08,6.39-.07.53-.13,1.07-.17,1.61,0,.27-.27,1.52-.11,1.7s.86.13,1,.16a58.92,58.92,0,0,0,13.72.68c-1-8.49-.71-17.07-1.74-25.57-.13-1.06-.55-6.09-3.91-10"/><path class="cls-115" d="M32.64,283.18c.39-3.79.94-7.58,1.68-11.32a3.54,3.54,0,0,1,.37-1,4.23,4.23,0,0,1-.44-1c-3,1.24-4.36,4.76-4.62,7.75a21.65,21.65,0,0,0,.14,3.94c.19,2,.39,4,.57,6,.19,2.28.35,4.55.46,6.83a21.58,21.58,0,0,1-.43,5c-.39,2.13-.81,4.25-1.08,6.39-.07.54-.13,1.07-.17,1.61,0,.27-.27,1.52-.11,1.7s.86.13,1,.16c1.64.23,3.42.46,5.22.62-2.69-4.23-2.94-26.21-2.62-26.64"/><path class="cls-116" d="M31,256.85c-1.69,2.75,4.73,10.67,4.73,10.67s2.25,2.63,6,.62c4.75-2.53-.92-13.24-.92-13.24s-8.52-.19-9.83,2"/><path class="cls-124" d="M40.26,253.79a8.05,8.05,0,0,0-8,1.15c-3,2.1-2.54,7.63-.36,10.24s2.91,2.28,2.91,2.28l.41-2.75c-.58.31-1.46-.46-1.39-2.15s2.18.21,2.18.21a8.07,8.07,0,0,1,0-3.32c.44-1.06,5.8-2,5.8-2a2.5,2.5,0,0,0-.9-3.41,2.6,2.6,0,0,0-.65-.26"/><path class="cls-124" d="M27.33,257.85c-1.38,2.21,1,8,3.3,6.39,3-2.09.87-6.89.87-6.89s-2.8-1.72-4.17.5"/><rect class="cls-25" x="16.99" y="244.62" width="61.48" height="125.55"/><path class="cls-121" d="M52.9,257.87a98.73,98.73,0,0,1-3.56,9.84c-.63,1.49-1,2.68-2.37,3.53-3.22,2-9.65,1.93-12.07,1.86a4.09,4.09,0,0,0-4.07,4.11v0a4.21,4.21,0,0,0,.14,1,4.32,4.32,0,0,0,4.1,3.25c2.74-.41,13.3-1.66,17.42-5.66,2.57-2.5,3.91-15.74,4.11-17.13.14-1-3.51-1.73-3.74-.87"/><path class="cls-115" d="M55.61,257.83v.57a5.1,5.1,0,0,1-.08.67c-.06.53-2.9,11.36-4,13.55-.43.86-1.66,1.7-5,3.7a15.61,15.61,0,0,1-8.76,2.08c-2.7-.15-3.58-2.62-3.7-5.22,0-.1-1,.44-1,.34A4.23,4.23,0,0,0,31,278.29a4.31,4.31,0,0,0,4.09,3.23c2.74-.4,13.3-1.66,17.42-5.65,2.57-2.5,3.91-15.74,4.11-17.13,0-.36-.41-.68-1-.91"/><path class="cls-116" d="M56.38,253c-.81-.2-1.81-1-2.37,0-1,1.63-1.54,4.89,0,5.36,2.32.72,3.39-1.16,3.78-3.43.24-1.37-.56-1.69-1.37-1.89"/><path class="cls-116" d="M59.44,250.59a.38.38,0,0,0-.53.09h0l-.16.23-.39.61-.53.88-.27.51c-.1.18-.18.36-.28.54s-.16.37-.25.55l-.22.54c-.07.18-.14.35-.19.52s-.11.33-.15.48l-.11.41a.59.59,0,0,1-.06.32l-.06.29a.5.5,0,1,0,1,.14v-.24a1.4,1.4,0,0,1,0-.29,1.53,1.53,0,0,1,.08-.37,2.08,2.08,0,0,1,.12-.44c0-.16.1-.31.16-.48s.12-.34.19-.52l.22-.52.24-.52.25-.5c.16-.32.33-.61.47-.87l.36-.59.14-.23a.38.38,0,0,0-.11-.52"/><path class="cls-116" d="M58.47,249.18a.43.43,0,0,0-.57.16l-.13.25c-.09.15-.21.37-.34.64l-.45.93-.23.53c-.07.18-.14.37-.22.56l-.2.57-.18.56a2.69,2.69,0,0,1-.14.54,2.26,2.26,0,0,1-.1.48c0,.15,0,.3-.07.42a1.82,1.82,0,0,0,0,.33v.29a.5.5,0,0,0,.47.53.51.51,0,0,0,.53-.47v-.91a3.12,3.12,0,0,1,.09-.44,2.42,2.42,0,0,1,.12-.5c0-.17.1-.35.15-.53l.18-.54c.06-.18.13-.36.2-.53s.13-.35.2-.52c.14-.33.28-.64.41-.9s.23-.48.31-.62l.12-.23a.43.43,0,0,0-.17-.56"/><path class="cls-116" d="M57.47,248.18a.44.44,0,0,0-.6.16h0l-.14.24-.34.65c-.13.27-.28.58-.43.93-.08.17-.16.35-.23.53l-.22.56c-.07.18-.14.38-.2.57s-.13.38-.18.56-.1.37-.14.54-.07.34-.1.49a1.54,1.54,0,0,1-.07.42c-.07.13,0,.24,0,.33v.29a.5.5,0,0,0,1,.07V254a1.15,1.15,0,0,1,0-.37l.09-.45a2.07,2.07,0,0,1,.12-.49,2.23,2.23,0,0,1,.15-.53l.18-.54c.07-.18.13-.36.2-.53l.21-.52c.14-.33.28-.64.41-.9l.31-.62.12-.23a.44.44,0,0,0-.17-.59"/><path class="cls-116" d="M55.53,248.59a.42.42,0,0,0-.54.25h0l-.1.27c-.06.18-.15.43-.24.72a21,21,0,0,0-.61,2.23,3.32,3.32,0,0,1-.13.61,4.31,4.31,0,0,1-.1.61c0,.2-.05.39-.08.57a2.26,2.26,0,0,0,0,.52v1.09a.48.48,0,0,0,.5.46h0a.49.49,0,0,0,.47-.51h0v-.23a1.5,1.5,0,0,1,0-.3V254l.06-.54a1.54,1.54,0,0,1,.08-.57,3.06,3.06,0,0,0,.11-.59c.16-.78.37-1.57.54-2.15.09-.29.17-.53.22-.7a1.14,1.14,0,0,1,.09-.26.43.43,0,0,0-.26-.53"/><path class="cls-116" d="M53.42,253.71a16.68,16.68,0,0,1,0-2c.07-1.11-.67-1-.67-1a21.55,21.55,0,0,0-.33,4.54c.52,3.29,1.54,2.94,1.54,2.94a3.27,3.27,0,0,0-.52-4.43"/><path class="cls-125" d="M43,264.05l-2.9.81a2.37,2.37,0,0,0,1.54.82c1.08,0,1.36-1.63,1.36-1.63"/><rect class="cls-25" x="16.99" y="244.62" width="61.48" height="125.55"/><text class="cls-126" transform="translate(83.29 108.84)">ANA<tspan class="cls-127" x="22.65" y="0">L</tspan><tspan class="cls-128" x="26.05" y="0">Y</tspan><tspan x="32.53" y="0">SER</tspan></text><text class="cls-126" transform="translate(86.91 276.34)">AMIABLE</text><text class="cls-129" transform="translate(261.24 108.84)">DRIVER</text><text class="cls-129" transform="translate(249.58 276.34)">EXPRE<tspan class="cls-130" x="30.81" y="0">S</tspan><tspan class="cls-131" x="37.05" y="0">SIVE</tspan></text><rect class="cls-26" x="94.41" y="185.95" width="198.36" height="8.58"/><text class="cls-132" transform="translate(140.99 194.2)">A<tspan class="cls-133" x="9.75" y="0">S</tspan><tspan class="cls-134" x="18.19" y="0">SE</tspan><tspan class="cls-135" x="34.34" y="0">R</tspan><tspan class="cls-136" x="42.62" y="0">T</tspan><tspan class="cls-134" x="51.16" y="0">IVE</tspan><tspan class="cls-137" x="73.05" y="0">N</tspan><tspan x="82.8" y="0">E</tspan><tspan class="cls-133" x="90.55" y="0">S</tspan><tspan class="cls-131" x="99" y="0">S</tspan></text><rect class="cls-26" x="188.72" y="194.53" width="9.37" height="91.06"/><text class="cls-138" transform="translate(189.79 202.78)">V</text><text class="cls-138" transform="translate(189.62 213.78)">N</text><text class="cls-138" transform="translate(190.62 224.78)">E</text><text class="cls-138" transform="translate(190.3 235.78)">S</text><text class="cls-138" transform="translate(190.3 246.78)">S</text><rect class="cls-26" x="188.91" y="110.31" width="9.37" height="75.64"/><text class="cls-138" transform="translate(190.39 118.56)">R</text><text class="cls-138" transform="translate(190.82 129.56)">E</text><text class="cls-138" transform="translate(190.5 140.56)">S</text><text class="cls-138" transform="translate(190.41 151.56)">P</text><text class="cls-138" transform="translate(189.27 162.56)">O</text><text class="cls-138" transform="translate(189.82 173.56)">N</text><text class="cls-138" transform="translate(190.5 184.56)">S</text></g></g></svg>