<svg xmlns="http://www.w3.org/2000/svg" xmlns:xlink="http://www.w3.org/1999/xlink" viewBox="0 0 386.35 379.37"><defs><style>.cls-1{fill:url(#linear-gradient);}.cls-2{fill:url(#linear-gradient-2);}.cls-3{fill:url(#linear-gradient-3);}.cls-4{fill:url(#linear-gradient-4);}.cls-5{fill:url(#linear-gradient-5);}.cls-6{fill:url(#linear-gradient-6);}.cls-7{fill:url(#linear-gradient-7);}.cls-8{fill:url(#linear-gradient-8);}.cls-9{fill:url(#radial-gradient);}.cls-10{fill:url(#radial-gradient-2);}.cls-11{fill:url(#radial-gradient-3);}.cls-12{fill:url(#radial-gradient-4);}.cls-13{fill:url(#linear-gradient-9);}.cls-14{fill:url(#linear-gradient-10);}.cls-15{fill:url(#linear-gradient-11);}.cls-16{fill:url(#linear-gradient-12);}.cls-17{fill:url(#linear-gradient-13);}.cls-18{fill:url(#linear-gradient-14);}.cls-19{fill:url(#linear-gradient-15);}.cls-20{fill:url(#linear-gradient-16);}.cls-21{fill:url(#linear-gradient-17);}.cls-22{fill:url(#linear-gradient-18);}.cls-23{fill:url(#linear-gradient-19);}.cls-24{fill:url(#linear-gradient-20);}.cls-25{fill:none;}.cls-114,.cls-117,.cls-26{fill:#fff;}.cls-27{fill:#1b3564;}.cls-114,.cls-28{opacity:0.4;}.cls-29{clip-path:url(#clip-path);}.cls-30{mask:url(#mask);}.cls-31{fill:url(#linear-gradient-21);}.cls-32{clip-path:url(#clip-path-2);}.cls-33{mask:url(#mask-2);}.cls-34{fill:url(#linear-gradient-22);}.cls-35{clip-path:url(#clip-path-3);}.cls-36{mask:url(#mask-3);}.cls-37{fill:url(#linear-gradient-23);}.cls-38{clip-path:url(#clip-path-4);}.cls-39{mask:url(#mask-4);}.cls-40{fill:url(#linear-gradient-24);}.cls-41{clip-path:url(#clip-path-5);}.cls-42{mask:url(#mask-5);}.cls-43{fill:url(#linear-gradient-25);}.cls-44{clip-path:url(#clip-path-6);}.cls-45{mask:url(#mask-6);}.cls-46{fill:url(#linear-gradient-26);}.cls-47{clip-path:url(#clip-path-7);}.cls-48{mask:url(#mask-7);}.cls-49{fill:url(#linear-gradient-27);}.cls-50{clip-path:url(#clip-path-8);}.cls-51{mask:url(#mask-8);}.cls-52{fill:url(#linear-gradient-28);}.cls-53{clip-path:url(#clip-path-9);}.cls-54{mask:url(#mask-9);}.cls-55{fill:url(#linear-gradient-29);}.cls-56{clip-path:url(#clip-path-10);}.cls-57{mask:url(#mask-10);}.cls-58{fill:url(#linear-gradient-30);}.cls-59{clip-path:url(#clip-path-11);}.cls-60{mask:url(#mask-11);}.cls-61{fill:url(#linear-gradient-31);}.cls-62{clip-path:url(#clip-path-12);}.cls-63{mask:url(#mask-12);}.cls-64{fill:url(#linear-gradient-32);}.cls-65{clip-path:url(#clip-path-13);}.cls-66{mask:url(#mask-13);}.cls-67{fill:url(#linear-gradient-33);}.cls-68{clip-path:url(#clip-path-14);}.cls-69{mask:url(#mask-14);}.cls-70{fill:url(#linear-gradient-34);}.cls-71{clip-path:url(#clip-path-15);}.cls-72{mask:url(#mask-15);}.cls-73{fill:url(#linear-gradient-35);}.cls-74{clip-path:url(#clip-path-16);}.cls-75{mask:url(#mask-16);}.cls-76{fill:url(#linear-gradient-36);}.cls-77{clip-path:url(#clip-path-17);}.cls-78{mask:url(#mask-17);}.cls-79{fill:url(#radial-gradient-5);}.cls-80{clip-path:url(#clip-path-18);}.cls-81{mask:url(#mask-18);}.cls-82{fill:url(#radial-gradient-6);}.cls-83{clip-path:url(#clip-path-19);}.cls-84{mask:url(#mask-19);}.cls-85{fill:url(#radial-gradient-7);}.cls-86{clip-path:url(#clip-path-20);}.cls-87{mask:url(#mask-20);}.cls-88{fill:url(#radial-gradient-8);}.cls-89{clip-path:url(#clip-path-21);}.cls-90{mask:url(#mask-21);}.cls-91{fill:url(#linear-gradient-37);}.cls-92{fill:#939598;}.cls-93{clip-path:url(#clip-path-22);}.cls-94{mask:url(#mask-22);}.cls-95{fill:url(#linear-gradient-38);}.cls-96{clip-path:url(#clip-path-23);}.cls-97{mask:url(#mask-23);}.cls-98{fill:url(#linear-gradient-39);}.cls-99{clip-path:url(#clip-path-24);}.cls-100{mask:url(#mask-24);}.cls-101{fill:url(#linear-gradient-40);}.cls-102{fill:#ba1f3d;}.cls-103{fill:#a1623e;}.cls-104{fill:#905a3d;}.cls-105{fill:#231f20;}.cls-106{fill:#0787c5;}.cls-107{fill:#1c3564;}.cls-108{fill:#0e2646;}.cls-109{fill:#d11f43;}.cls-110{fill:#f1f1f1;}.cls-111{fill:#a6263a;}.cls-112{fill:#21120c;}.cls-113{fill:#c9a38b;}.cls-114,.cls-117,.cls-120,.cls-126{font-size:11px;font-family:SharpSansDisplayNo1-Bold, Sharp Sans Display No1;font-weight:700;}.cls-115{letter-spacing:-0.17em;}.cls-116{letter-spacing:-0.04em;}.cls-118{letter-spacing:0em;}.cls-119{letter-spacing:0em;}.cls-120{letter-spacing:0.2em;}.cls-121{letter-spacing:0.2em;}.cls-122{letter-spacing:0.2em;}.cls-123{letter-spacing:0.17em;}.cls-124{letter-spacing:0.2em;}.cls-125{letter-spacing:0.2em;}</style><linearGradient id="linear-gradient" x1="657.04" y1="186.38" x2="658.04" y2="186.38" gradientTransform="matrix(0, 100.7, 100.7, 0, -18696.14, -66116.37)" gradientUnits="userSpaceOnUse"><stop offset="0" stop-color="#fff"/><stop offset="0.13" stop-color="#fff"/><stop offset="0.34" stop-color="#fff"/><stop offset="0.51" stop-color="#fff"/><stop offset="0.68" stop-color="#fff"/><stop offset="0.83" stop-color="#fff"/><stop offset="0.98" stop-color="#fff"/><stop offset="1" stop-color="#fff"/></linearGradient><linearGradient id="linear-gradient-2" x1="663.44" y1="199.4" x2="664.44" y2="199.4" gradientTransform="matrix(-72.84, 0, 0, 72.84, 48471.54, -14454.2)" gradientUnits="userSpaceOnUse"><stop offset="0" stop-color="#fff"/><stop offset="0.13" stop-color="#fff"/><stop offset="0.32" stop-color="#fff"/><stop offset="0.49" stop-color="#fff"/><stop offset="0.64" stop-color="#fff"/><stop offset="0.78" stop-color="#fff"/><stop offset="0.98" stop-color="#fff"/><stop offset="1" stop-color="#fff"/></linearGradient><linearGradient id="linear-gradient-3" x1="649.61" y1="200.39" x2="650.61" y2="200.39" gradientTransform="matrix(0, -116.46, -116.46, 0, 23485.41, 76014.51)" gradientUnits="userSpaceOnUse"><stop offset="0" stop-color="#fff"/><stop offset="0.13" stop-color="#fff"/><stop offset="0.48" stop-color="#fff"/><stop offset="0.79" stop-color="#fff"/><stop offset="0.86" stop-color="#fff"/><stop offset="1" stop-color="#fff"/></linearGradient><linearGradient id="linear-gradient-4" x1="645.1" y1="189.68" x2="646.1" y2="189.68" gradientTransform="matrix(95.13, 0, 0, -95.13, -61334.04, 18356.52)" gradientUnits="userSpaceOnUse"><stop offset="0" stop-color="#fff"/><stop offset="0.13" stop-color="#fff"/><stop offset="0.54" stop-color="#fff"/><stop offset="0.89" stop-color="#fff"/><stop offset="0.98" stop-color="#fff"/><stop offset="1" stop-color="#fff"/></linearGradient><linearGradient id="linear-gradient-5" x1="658.52" y1="196.8" x2="659.52" y2="196.8" gradientTransform="matrix(-138.51, 0, 0, 138.51, 91560.04, -27021.82)" gradientUnits="userSpaceOnUse"><stop offset="0" stop-color="#fff"/><stop offset="0.41" stop-color="#fff"/><stop offset="0.98" stop-color="#fff"/><stop offset="1" stop-color="#fff"/></linearGradient><linearGradient id="linear-gradient-6" x1="655.69" y1="188.91" x2="656.75" y2="188.91" gradientTransform="matrix(0, 151.64, 151.64, 0, -28407.49, -99256.41)" gradientUnits="userSpaceOnUse"><stop offset="0" stop-color="#fff"/><stop offset="0.34" stop-color="#fff"/><stop offset="0.52" stop-color="#fff"/><stop offset="0.67" stop-color="#fff"/><stop offset="0.82" stop-color="#fff"/><stop offset="0.96" stop-color="#fff"/><stop offset="0.98" stop-color="#fff"/><stop offset="1" stop-color="#fff"/></linearGradient><linearGradient id="linear-gradient-7" x1="645.83" y1="190.05" x2="646.83" y2="190.05" gradientTransform="matrix(104.75, 0, 0, -104.75, -67452.82, 20219.95)" gradientUnits="userSpaceOnUse"><stop offset="0" stop-color="#fff"/><stop offset="0.36" stop-color="#fff"/><stop offset="0.53" stop-color="#fff"/><stop offset="0.68" stop-color="#fff"/><stop offset="0.82" stop-color="#fff"/><stop offset="0.96" stop-color="#fff"/><stop offset="0.98" stop-color="#fff"/><stop offset="1" stop-color="#fff"/></linearGradient><linearGradient id="linear-gradient-8" x1="649.33" y1="200.92" x2="650.28" y2="200.92" gradientTransform="matrix(0, -107.72, -107.72, 0, 21956.03, 70292.99)" gradientUnits="userSpaceOnUse"><stop offset="0" stop-color="#fff"/><stop offset="0.37" stop-color="#fff"/><stop offset="0.54" stop-color="#fff"/><stop offset="0.69" stop-color="#fff"/><stop offset="0.82" stop-color="#fff"/><stop offset="0.96" stop-color="#fff"/><stop offset="0.98" stop-color="#fff"/><stop offset="1" stop-color="#fff"/></linearGradient><radialGradient id="radial-gradient" cx="636.71" cy="185.23" r="1" gradientTransform="matrix(46.28, 0, 0, -46.28, -29274.18, 8763.48)" gradientUnits="userSpaceOnUse"><stop offset="0" stop-color="#fff"/><stop offset="0.57" stop-color="#fff"/><stop offset="0.6" stop-color="#fff"/><stop offset="0.64" stop-color="#fff"/><stop offset="0.67" stop-color="#fff"/><stop offset="0.69" stop-color="#fff"/><stop offset="0.77" stop-color="#fff"/><stop offset="0.87" stop-color="#fff"/><stop offset="1" stop-color="#fff"/></radialGradient><radialGradient id="radial-gradient-2" cx="643.94" cy="189.06" r="1" gradientTransform="matrix(83.01, 0, 0, -83.01, -53259.95, 15883.62)" gradientUnits="userSpaceOnUse"><stop offset="0" stop-color="#fff"/><stop offset="0.11" stop-color="#fff"/><stop offset="0.51" stop-color="#fff"/><stop offset="0.54" stop-color="#fff"/><stop offset="0.62" stop-color="#fff"/><stop offset="0.7" stop-color="#fff"/><stop offset="0.8" stop-color="#fff"/><stop offset="1" stop-color="#fff"/></radialGradient><radialGradient id="radial-gradient-3" cx="634.41" cy="184.01" r="1" gradientTransform="matrix(40.58, 0, 0, -40.58, -25552.29, 7657.14)" gradientUnits="userSpaceOnUse"><stop offset="0" stop-color="#fff"/><stop offset="0.52" stop-color="#fff"/><stop offset="0.55" stop-color="#fff"/><stop offset="0.59" stop-color="#fff"/><stop offset="1" stop-color="#fff"/></radialGradient><radialGradient id="radial-gradient-4" cx="634.17" cy="183.88" r="1" gradientTransform="matrix(40.06, 0, 0, -40.06, -25210.88, 7555.78)" gradientUnits="userSpaceOnUse"><stop offset="0" stop-color="#fff"/><stop offset="0.11" stop-color="#fff"/><stop offset="0.52" stop-color="#fff"/><stop offset="0.81" stop-color="#fff"/><stop offset="1" stop-color="#fff"/></radialGradient><linearGradient id="linear-gradient-9" x1="646.93" y1="190.65" x2="647.93" y2="190.65" gradientTransform="matrix(123.55, 0, 0, -123.55, -79879.4, 23699.48)" gradientUnits="userSpaceOnUse"><stop offset="0" stop-color="#fff"/><stop offset="0.2" stop-color="#fff"/><stop offset="0.35" stop-color="#fff"/><stop offset="0.47" stop-color="#fff"/><stop offset="0.59" stop-color="#fff"/><stop offset="0.69" stop-color="#fff"/><stop offset="0.98" stop-color="#fff"/><stop offset="1" stop-color="#fff"/></linearGradient><linearGradient id="linear-gradient-10" x1="636.41" y1="185.07" x2="637.41" y2="185.07" gradientTransform="matrix(45.46, 0, 0, -45.46, -28769.21, 8425.62)" gradientUnits="userSpaceOnUse"><stop offset="0" stop-color="#fff"/><stop offset="0.59" stop-color="#fff"/><stop offset="0.63" stop-color="#fff"/><stop offset="0.67" stop-color="#fff"/><stop offset="0.7" stop-color="#fff"/><stop offset="0.74" stop-color="#fff"/><stop offset="0.77" stop-color="#fff"/><stop offset="0.8" stop-color="#fff"/><stop offset="1" stop-color="#fff"/></linearGradient><linearGradient id="linear-gradient-11" x1="661.05" y1="178.81" x2="662.05" y2="178.81" gradientTransform="matrix(0, 50.16, 50.16, 0, -8596.05, -33000.31)" gradientUnits="userSpaceOnUse"><stop offset="0" stop-color="#fff"/><stop offset="0.28" stop-color="#fff"/><stop offset="0.4" stop-color="#fff"/><stop offset="0.5" stop-color="#fff"/><stop offset="0.6" stop-color="#fff"/><stop offset="0.69" stop-color="#fff"/><stop offset="0.78" stop-color="#fff"/><stop offset="0.85" stop-color="#fff"/><stop offset="1" stop-color="#fff"/></linearGradient><linearGradient id="linear-gradient-12" x1="670.4" y1="203.09" x2="671.4" y2="203.09" gradientTransform="matrix(-43.62, 0, 0, 43.62, 29461.49, -8492.03)" xlink:href="#linear-gradient-11"/><linearGradient id="linear-gradient-13" x1="645.09" y1="208.93" x2="646.09" y2="208.93" gradientTransform="matrix(0, -50.31, -50.31, 0, 10524.09, 32671.82)" xlink:href="#linear-gradient-11"/><linearGradient id="linear-gradient-14" x1="649.95" y1="199.75" x2="650.95" y2="199.75" gradientTransform="matrix(0, -129.14, -129.14, 0, 25943.38, 84115.27)" gradientUnits="userSpaceOnUse"><stop offset="0" stop-color="#fff"/><stop offset="0.13" stop-color="#fff"/><stop offset="0.34" stop-color="#fff"/><stop offset="0.52" stop-color="#fff"/><stop offset="0.68" stop-color="#fff"/><stop offset="0.83" stop-color="#fff"/><stop offset="0.98" stop-color="#fff"/><stop offset="1" stop-color="#fff"/></linearGradient><linearGradient id="linear-gradient-15" x1="660.26" y1="197.71" x2="661.26" y2="197.71" gradientTransform="matrix(-105.06, 0, 0, 105.06, 69715.06, -20701.32)" gradientUnits="userSpaceOnUse"><stop offset="0" stop-color="#fff"/><stop offset="0.13" stop-color="#fff"/><stop offset="0.43" stop-color="#fff"/><stop offset="0.63" stop-color="#fff"/><stop offset="0.95" stop-color="#fff"/><stop offset="1" stop-color="#fff"/></linearGradient><linearGradient id="linear-gradient-16" x1="656.74" y1="186.95" x2="657.74" y2="186.95" gradientTransform="matrix(0, 108.93, 108.93, 0, -20125.58, -71505.24)" xlink:href="#linear-gradient-15"/><linearGradient id="linear-gradient-17" x1="649.04" y1="201.47" x2="650.04" y2="201.47" gradientTransform="matrix(0, -99.84, -99.84, 0, 20427.61, 64979.8)" xlink:href="#linear-gradient-15"/><linearGradient id="linear-gradient-18" x1="645.71" y1="190" x2="646.71" y2="190" gradientTransform="matrix(102.94, 0, 0, -102.94, -66268.55, 19703)" xlink:href="#linear-gradient-15"/><linearGradient id="linear-gradient-19" x1="655.9" y1="188.53" x2="656.9" y2="188.53" gradientTransform="matrix(0, 141.15, 141.15, 0, -26539.17, -92384.73)" gradientUnits="userSpaceOnUse"><stop offset="0" stop-color="#fff"/><stop offset="0.13" stop-color="#fff"/><stop offset="0.42" stop-color="#fff"/><stop offset="0.63" stop-color="#fff"/><stop offset="0.71" stop-color="#fff"/><stop offset="1" stop-color="#fff"/></linearGradient><linearGradient id="linear-gradient-20" x1="658.56" y1="196.81" x2="659.56" y2="196.81" gradientTransform="matrix(-137.4, 0, 0, 137.4, 90686.95, -26805.66)" gradientUnits="userSpaceOnUse"><stop offset="0" stop-color="#fff"/><stop offset="0.13" stop-color="#fff"/><stop offset="0.45" stop-color="#fff"/><stop offset="0.72" stop-color="#fff"/><stop offset="0.79" stop-color="#fff"/><stop offset="1" stop-color="#fff"/></linearGradient><clipPath id="clip-path"><rect class="cls-25" x="35.4" y="32.5" width="74.96" height="74.96"/></clipPath><mask id="mask" x="35.4" y="32.5" width="74.95" height="74.96" maskUnits="userSpaceOnUse"><rect class="cls-1" x="35.4" y="32.5" width="74.95" height="74.96"/></mask><linearGradient id="linear-gradient-21" x1="657.04" y1="186.38" x2="658.04" y2="186.38" gradientTransform="matrix(0, 100.7, 100.7, 0, -18696.14, -66116.37)" gradientUnits="userSpaceOnUse"><stop offset="0" stop-color="#d41f44"/><stop offset="0.13" stop-color="#d41f44"/><stop offset="0.34" stop-color="#d11f43"/><stop offset="0.51" stop-color="#c61f41"/><stop offset="0.68" stop-color="#b41f3e"/><stop offset="0.83" stop-color="#9e1f39"/><stop offset="0.98"/><stop offset="1"/></linearGradient><clipPath id="clip-path-2"><rect class="cls-25" x="110.36" y="32.5" width="74.96" height="74.96"/></clipPath><mask id="mask-2" x="110.36" y="32.5" width="74.96" height="74.96" maskUnits="userSpaceOnUse"><rect class="cls-2" x="110.36" y="32.5" width="74.96" height="74.96"/></mask><linearGradient id="linear-gradient-22" x1="663.44" y1="199.4" x2="664.44" y2="199.4" gradientTransform="matrix(-72.84, 0, 0, 72.84, 48471.54, -14454.2)" gradientUnits="userSpaceOnUse"><stop offset="0" stop-color="#d41f44"/><stop offset="0.13" stop-color="#d41f44"/><stop offset="0.32" stop-color="#d11f43"/><stop offset="0.49" stop-color="#c61f41"/><stop offset="0.64" stop-color="#b41f3e"/><stop offset="0.78" stop-color="#9e1f39"/><stop offset="0.98"/><stop offset="1"/></linearGradient><clipPath id="clip-path-3"><rect class="cls-25" x="35.4" y="107.47" width="74.96" height="74.95"/></clipPath><mask id="mask-3" x="35.4" y="107.47" width="74.96" height="74.95" maskUnits="userSpaceOnUse"><rect class="cls-13" x="35.4" y="107.47" width="74.96" height="74.95"/></mask><linearGradient id="linear-gradient-23" x1="646.93" y1="190.65" x2="647.93" y2="190.65" gradientTransform="matrix(123.55, 0, 0, -123.55, -79879.4, 23699.48)" gradientUnits="userSpaceOnUse"><stop offset="0" stop-color="#d41f44"/><stop offset="0.2" stop-color="#d41f44"/><stop offset="0.35" stop-color="#d11f43"/><stop offset="0.47" stop-color="#c61f41"/><stop offset="0.59" stop-color="#b41f3e"/><stop offset="0.69" stop-color="#9e1f39"/><stop offset="0.98"/><stop offset="1"/></linearGradient><clipPath id="clip-path-4"><path class="cls-25" d="M110.36,107.47v74.95H151a42.8,42.8,0,0,1,34.35-34.31V107.47Z"/></clipPath><mask id="mask-4" x="110.36" y="107.47" width="74.96" height="74.96" maskUnits="userSpaceOnUse"><rect class="cls-18" x="110.36" y="107.47" width="74.96" height="74.96"/></mask><linearGradient id="linear-gradient-24" x1="649.95" y1="199.75" x2="650.95" y2="199.75" gradientTransform="matrix(0, -129.14, -129.14, 0, 25943.38, 84115.27)" gradientUnits="userSpaceOnUse"><stop offset="0" stop-color="#d41f44"/><stop offset="0.13" stop-color="#d41f44"/><stop offset="0.34" stop-color="#d11f43"/><stop offset="0.52" stop-color="#c61f41"/><stop offset="0.68" stop-color="#b41f3e"/><stop offset="0.83" stop-color="#9e1f39"/><stop offset="0.98"/><stop offset="1"/></linearGradient><clipPath id="clip-path-5"><rect class="cls-25" x="275.84" y="32.06" width="74.96" height="74.96"/></clipPath><mask id="mask-5" x="275.84" y="32.06" width="74.96" height="74.95" maskUnits="userSpaceOnUse"><rect class="cls-19" x="275.84" y="32.06" width="74.96" height="74.95"/></mask><linearGradient id="linear-gradient-25" x1="660.26" y1="197.71" x2="661.26" y2="197.71" gradientTransform="matrix(-105.06, 0, 0, 105.06, 69715.06, -20701.32)" gradientUnits="userSpaceOnUse"><stop offset="0" stop-color="#1b3564"/><stop offset="0.13" stop-color="#1b3564"/><stop offset="0.43" stop-color="#1b3561"/><stop offset="0.63" stop-color="#1b3459"/><stop offset="0.95" stop-color="#231f20"/><stop offset="1" stop-color="#231f20"/></linearGradient><clipPath id="clip-path-6"><rect class="cls-25" x="200.88" y="32.06" width="74.95" height="74.96"/></clipPath><mask id="mask-6" x="200.88" y="32.06" width="74.96" height="74.96" maskUnits="userSpaceOnUse"><rect class="cls-20" x="200.88" y="32.06" width="74.95" height="74.95"/></mask><linearGradient id="linear-gradient-26" x1="656.74" y1="186.95" x2="657.74" y2="186.95" gradientTransform="matrix(0, 108.93, 108.93, 0, -20125.59, -71505.25)" xlink:href="#linear-gradient-25"/><clipPath id="clip-path-7"><rect class="cls-25" x="275.84" y="107.02" width="74.96" height="74.96"/></clipPath><mask id="mask-7" x="275.84" y="107.02" width="74.96" height="74.96" maskUnits="userSpaceOnUse"><rect class="cls-21" x="275.84" y="107.02" width="74.96" height="74.96"/></mask><linearGradient id="linear-gradient-27" x1="649.04" y1="201.47" x2="650.04" y2="201.47" gradientTransform="matrix(0, -99.84, -99.84, 0, 20427.61, 64979.8)" xlink:href="#linear-gradient-25"/><clipPath id="clip-path-8"><path class="cls-25" d="M200.88,107v40.61A42.77,42.77,0,0,1,235.19,182H275.8V107Z"/></clipPath><mask id="mask-8" x="200.88" y="107.01" width="74.92" height="74.96" maskUnits="userSpaceOnUse"><rect class="cls-22" x="200.88" y="107.01" width="74.92" height="74.96"/></mask><linearGradient id="linear-gradient-28" x1="645.71" y1="190" x2="646.71" y2="190" gradientTransform="matrix(102.94, 0, 0, -102.94, -66268.55, 19703)" xlink:href="#linear-gradient-25"/><clipPath id="clip-path-9"><rect class="cls-25" x="35.55" y="197.39" width="74.96" height="79.64"/></clipPath><mask id="mask-9" x="35.55" y="197.39" width="74.95" height="79.64" maskUnits="userSpaceOnUse"><rect class="cls-23" x="35.55" y="197.39" width="74.95" height="79.64"/></mask><linearGradient id="linear-gradient-29" x1="655.9" y1="188.53" x2="656.9" y2="188.53" gradientTransform="matrix(0, 141.15, 141.15, 0, -26539.17, -92384.73)" gradientUnits="userSpaceOnUse"><stop offset="0" stop-color="#6d6e70"/><stop offset="0.13" stop-color="#6d6e70"/><stop offset="0.42" stop-color="#6a6b6d"/><stop offset="0.63" stop-color="#616265"/><stop offset="0.71" stop-color="#5b5d60"/><stop offset="1" stop-color="#5b5d60"/></linearGradient><clipPath id="clip-path-10"><path class="cls-25" d="M110.51,197.39V277h75V231.73a42.78,42.78,0,0,1-34.35-34.34Z"/></clipPath><mask id="mask-10" x="110.51" y="197.39" width="74.95" height="79.65" maskUnits="userSpaceOnUse"><rect class="cls-24" x="110.51" y="197.39" width="74.95" height="79.65"/></mask><linearGradient id="linear-gradient-30" x1="658.56" y1="196.81" x2="659.56" y2="196.81" gradientTransform="matrix(-137.4, 0, 0, 137.4, 90686.95, -26805.66)" gradientUnits="userSpaceOnUse"><stop offset="0" stop-color="#6d6e70"/><stop offset="0.13" stop-color="#6d6e70"/><stop offset="0.45" stop-color="#6a6b6d"/><stop offset="0.72" stop-color="#5f6164"/><stop offset="0.79" stop-color="#5b5d60"/><stop offset="1" stop-color="#5b5d60"/></linearGradient><clipPath id="clip-path-11"><rect class="cls-25" x="110.51" y="277.03" width="74.96" height="70.27"/></clipPath><mask id="mask-11" x="110.51" y="277.03" width="74.95" height="70.27" maskUnits="userSpaceOnUse"><rect class="cls-3" x="110.51" y="277.03" width="74.95" height="70.27"/></mask><linearGradient id="linear-gradient-31" x1="649.61" y1="200.39" x2="650.61" y2="200.39" gradientTransform="matrix(0, -116.46, -116.46, 0, 23485.41, 76014.51)" gradientUnits="userSpaceOnUse"><stop offset="0" stop-color="#6d6e70"/><stop offset="0.13" stop-color="#6d6e70"/><stop offset="0.48" stop-color="#6a6b6d"/><stop offset="0.79" stop-color="#5f6164"/><stop offset="0.86" stop-color="#5b5d60"/><stop offset="1" stop-color="#5b5d60"/></linearGradient><clipPath id="clip-path-12"><rect class="cls-25" x="35.55" y="277.03" width="74.96" height="70.27"/></clipPath><mask id="mask-12" x="35.55" y="277.03" width="74.96" height="70.27" maskUnits="userSpaceOnUse"><rect class="cls-4" x="35.55" y="277.03" width="74.96" height="70.27"/></mask><linearGradient id="linear-gradient-32" x1="645.1" y1="189.68" x2="646.1" y2="189.68" gradientTransform="matrix(95.13, 0, 0, -95.13, -61334.04, 18356.52)" gradientUnits="userSpaceOnUse"><stop offset="0" stop-color="#6d6e70"/><stop offset="0.13" stop-color="#6d6e70"/><stop offset="0.54" stop-color="#6a6b6d"/><stop offset="0.89" stop-color="#5f6164"/><stop offset="0.98" stop-color="#5b5d60"/><stop offset="1" stop-color="#5b5d60"/></linearGradient><clipPath id="clip-path-13"><rect class="cls-25" x="275.84" y="197.39" width="74.96" height="78.94"/></clipPath><mask id="mask-13" x="275.84" y="197.39" width="74.95" height="78.94" maskUnits="userSpaceOnUse"><rect class="cls-5" x="275.84" y="197.39" width="74.95" height="78.94"/></mask><linearGradient id="linear-gradient-33" x1="658.52" y1="196.8" x2="659.52" y2="196.8" gradientTransform="matrix(-138.51, 0, 0, 138.51, 91560.04, -27021.82)" gradientUnits="userSpaceOnUse"><stop offset="0" stop-color="#222223"/><stop offset="0.41" stop-color="#222223"/><stop offset="0.98" stop-color="#5b5d60"/><stop offset="1" stop-color="#5b5d60"/></linearGradient><clipPath id="clip-path-14"><path class="cls-25" d="M235.25,197.39c-3.2,18.38-16.85,32.78-34.3,36.17v42.78H275.9l-.06-78.95Z"/></clipPath><mask id="mask-14" x="200.95" y="197.39" width="74.96" height="78.95" maskUnits="userSpaceOnUse"><rect class="cls-6" x="200.95" y="197.39" width="74.96" height="78.95"/></mask><linearGradient id="linear-gradient-34" x1="655.69" y1="188.91" x2="656.75" y2="188.91" gradientTransform="matrix(0, 151.64, 151.64, 0, -28407.49, -99256.42)" gradientUnits="userSpaceOnUse"><stop offset="0" stop-color="#222223"/><stop offset="0.34" stop-color="#222223"/><stop offset="0.52" stop-color="#252526"/><stop offset="0.67" stop-color="#2f3031"/><stop offset="0.82" stop-color="#404143"/><stop offset="0.96" stop-color="#57595c"/><stop offset="0.98" stop-color="#5b5d60"/><stop offset="1" stop-color="#5b5d60"/></linearGradient><clipPath id="clip-path-15"><rect class="cls-25" x="200.88" y="276.33" width="74.95" height="70.98"/></clipPath><mask id="mask-15" x="200.88" y="276.33" width="74.96" height="70.98" maskUnits="userSpaceOnUse"><rect class="cls-7" x="200.88" y="276.33" width="74.95" height="70.98"/></mask><linearGradient id="linear-gradient-35" x1="645.83" y1="190.05" x2="646.83" y2="190.05" gradientTransform="matrix(104.75, 0, 0, -104.75, -67452.82, 20219.95)" gradientUnits="userSpaceOnUse"><stop offset="0" stop-color="#222223"/><stop offset="0.36" stop-color="#222223"/><stop offset="0.53" stop-color="#252526"/><stop offset="0.68" stop-color="#2f3031"/><stop offset="0.82" stop-color="#404143"/><stop offset="0.96" stop-color="#57595c"/><stop offset="0.98" stop-color="#5b5d60"/><stop offset="1" stop-color="#5b5d60"/></linearGradient><clipPath id="clip-path-16"><rect class="cls-25" x="275.84" y="276.33" width="74.96" height="70.98"/></clipPath><mask id="mask-16" x="275.84" y="276.33" width="74.96" height="70.98" maskUnits="userSpaceOnUse"><rect class="cls-8" x="275.84" y="276.33" width="74.96" height="70.98"/></mask><linearGradient id="linear-gradient-36" x1="649.33" y1="200.92" x2="650.28" y2="200.92" gradientTransform="matrix(0, -107.72, -107.72, 0, 21956.03, 70292.98)" gradientUnits="userSpaceOnUse"><stop offset="0" stop-color="#222223"/><stop offset="0.37" stop-color="#222223"/><stop offset="0.54" stop-color="#252526"/><stop offset="0.69" stop-color="#2f3031"/><stop offset="0.82" stop-color="#404143"/><stop offset="0.96" stop-color="#57595c"/><stop offset="0.98" stop-color="#5b5d60"/><stop offset="1" stop-color="#5b5d60"/></linearGradient><clipPath id="clip-path-17"><path class="cls-25" d="M158.6,190.5a36.21,36.21,0,1,0,36.2-36.2,36.2,36.2,0,0,0-36.2,36.2"/></clipPath><mask id="mask-17" x="158.6" y="154.3" width="72.41" height="72.41" maskUnits="userSpaceOnUse"><rect class="cls-9" x="158.6" y="154.3" width="72.41" height="72.41"/></mask><radialGradient id="radial-gradient-5" cx="636.71" cy="185.23" r="1" gradientTransform="matrix(46.28, 0, 0, -46.28, -29274.18, 8763.48)" gradientUnits="userSpaceOnUse"><stop offset="0" stop-color="#939598"/><stop offset="0.57" stop-color="#939598"/><stop offset="0.6" stop-color="#adaeb0"/><stop offset="0.64" stop-color="#d2d2d3"/><stop offset="0.67" stop-color="#e9e9e9"/><stop offset="0.69" stop-color="#f1f1f1"/><stop offset="0.77" stop-color="#fcfcfc"/><stop offset="0.87" stop-color="#fff"/><stop offset="1" stop-color="#fff"/></radialGradient><clipPath id="clip-path-18"><path class="cls-25" d="M149.68,189.68a43.49,43.49,0,1,0,43.49-43.49,43.49,43.49,0,0,0-43.49,43.49"/></clipPath><mask id="mask-18" x="149.68" y="146.19" width="86.98" height="86.98" maskUnits="userSpaceOnUse"><rect class="cls-10" x="149.68" y="146.19" width="86.98" height="86.98"/></mask><radialGradient id="radial-gradient-6" cx="643.94" cy="189.06" r="1" gradientTransform="matrix(83.01, 0, 0, -83.01, -53259.95, 15883.62)" gradientUnits="userSpaceOnUse"><stop offset="0" stop-color="#ededed"/><stop offset="0.11" stop-color="#ededed"/><stop offset="0.51" stop-color="#f1f1f1"/><stop offset="0.54" stop-color="#e6e6e6"/><stop offset="0.62" stop-color="#d4d4d4"/><stop offset="0.7" stop-color="#c9c9c9"/><stop offset="0.8" stop-color="#c6c6c6"/><stop offset="1" stop-color="#c6c6c6"/></radialGradient><clipPath id="clip-path-19"><path class="cls-25" d="M193.17,158a31.74,31.74,0,1,1-31.73,31.73A31.74,31.74,0,0,1,193.17,158"/></clipPath><mask id="mask-19" x="161.44" y="157.95" width="63.47" height="63.47" maskUnits="userSpaceOnUse"><rect class="cls-11" x="161.44" y="157.95" width="63.47" height="63.47"/></mask><radialGradient id="radial-gradient-7" cx="634.41" cy="184.01" r="1" gradientTransform="matrix(40.58, 0, 0, -40.58, -25552.29, 7657.14)" gradientUnits="userSpaceOnUse"><stop offset="0" stop-color="#6d6e70"/><stop offset="0.52" stop-color="#939598"/><stop offset="0.55" stop-color="#a5a6a8"/><stop offset="0.59" stop-color="#c6c6c6"/><stop offset="1" stop-color="#c6c6c6"/></radialGradient><clipPath id="clip-path-20"><path class="cls-25" d="M171.71,189.68a21.46,21.46,0,1,0,21.46-21.46,21.46,21.46,0,0,0-21.46,21.46"/></clipPath><mask id="mask-20" x="171.71" y="168.22" width="42.92" height="42.92" maskUnits="userSpaceOnUse"><rect class="cls-12" x="171.71" y="168.22" width="42.92" height="42.92"/></mask><radialGradient id="radial-gradient-8" cx="634.17" cy="183.88" r="1" gradientTransform="matrix(40.06, 0, 0, -40.06, -25210.88, 7555.78)" gradientUnits="userSpaceOnUse"><stop offset="0" stop-color="#ededed"/><stop offset="0.11" stop-color="#ededed"/><stop offset="0.52" stop-color="#ededed"/><stop offset="0.81" stop-color="#6d6e70"/><stop offset="1" stop-color="#6d6e70"/></radialGradient><clipPath id="clip-path-21"><polygon class="cls-25" points="167.94 25.23 186.6 25.23 186.6 25.19 191.1 25.19 191.1 25.18 193.17 25.18 193.17 0 167.94 25.23"/></clipPath><mask id="mask-21" x="167.94" y="0" width="25.23" height="25.22" maskUnits="userSpaceOnUse"><rect class="cls-14" x="167.94" width="25.23" height="25.22"/></mask><linearGradient id="linear-gradient-37" x1="636.41" y1="185.07" x2="637.41" y2="185.07" gradientTransform="matrix(45.46, 0, 0, -45.46, -28769.21, 8425.62)" gradientUnits="userSpaceOnUse"><stop offset="0" stop-color="#939598"/><stop offset="0.59" stop-color="#939598"/><stop offset="0.63" stop-color="#909295"/><stop offset="0.67" stop-color="#86878a"/><stop offset="0.7" stop-color="#757678"/><stop offset="0.74" stop-color="#5e5d5f"/><stop offset="0.77" stop-color="#403e3f"/><stop offset="0.8" stop-color="#231f20"/><stop offset="1" stop-color="#231f20"/></linearGradient><clipPath id="clip-path-22"><polygon class="cls-25" points="361.13 183.1 361.16 183.1 361.16 187.61 361.17 187.61 361.17 189.68 386.35 189.68 361.13 164.45 361.13 183.1"/></clipPath><mask id="mask-22" x="361.13" y="164.45" width="25.22" height="25.23" maskUnits="userSpaceOnUse"><rect class="cls-15" x="361.13" y="164.45" width="25.22" height="25.23"/></mask><linearGradient id="linear-gradient-38" x1="661.05" y1="178.81" x2="662.05" y2="178.81" gradientTransform="matrix(0, 50.16, 50.16, 0, -8596.05, -33000.31)" gradientUnits="userSpaceOnUse"><stop offset="0" stop-color="#939598"/><stop offset="0.28" stop-color="#939598"/><stop offset="0.4" stop-color="#909295"/><stop offset="0.5" stop-color="#86878a"/><stop offset="0.6" stop-color="#757678"/><stop offset="0.69" stop-color="#5e5d5f"/><stop offset="0.78" stop-color="#403e3f"/><stop offset="0.85" stop-color="#231f20"/><stop offset="1" stop-color="#231f20"/></linearGradient><clipPath id="clip-path-23"><polygon class="cls-25" points="199.17 354.14 199.17 354.17 195.25 354.17 195.25 354.18 193.17 354.18 193.17 379.37 218.4 354.14 199.17 354.14"/></clipPath><mask id="mask-23" x="193.17" y="354.14" width="25.23" height="25.23" maskUnits="userSpaceOnUse"><rect class="cls-16" x="193.17" y="354.14" width="25.23" height="25.23"/></mask><linearGradient id="linear-gradient-39" x1="670.4" y1="203.09" x2="671.4" y2="203.09" gradientTransform="matrix(-43.62, 0, 0, 43.62, 29461.49, -8492.03)" xlink:href="#linear-gradient-38"/><clipPath id="clip-path-24"><polygon class="cls-25" points="25.19 191.76 25.18 191.76 25.18 189.7 0.03 189.7 25.23 214.92 25.23 195.68 25.19 195.68 25.19 191.76"/></clipPath><mask id="mask-24" x="0.02" y="189.7" width="25.2" height="25.22" maskUnits="userSpaceOnUse"><rect class="cls-17" x="0.02" y="189.7" width="25.2" height="25.22"/></mask><linearGradient id="linear-gradient-40" x1="645.09" y1="208.93" x2="646.09" y2="208.93" gradientTransform="matrix(0, -50.31, -50.31, 0, 10524.09, 32671.82)" xlink:href="#linear-gradient-38"/></defs><g id="Layer_2" data-name="Layer 2"><g id="Layer_1-2" data-name="Layer 1"><polygon class="cls-26" points="374.73 189.07 373.53 189.07 373.75 189.68 373.53 190.29 374.73 190.29 374.73 189.07"/><rect class="cls-27" x="192.56" y="189.07" width="1.23" height="1.23"/><g class="cls-28"><g class="cls-29"><g class="cls-30"><rect class="cls-31" x="35.4" y="32.5" width="74.95" height="74.96"/></g></g></g><g class="cls-28"><g class="cls-32"><g class="cls-33"><rect class="cls-34" x="110.36" y="32.5" width="74.96" height="74.96"/></g></g></g><g class="cls-28"><g class="cls-35"><g class="cls-36"><rect class="cls-37" x="35.4" y="107.47" width="74.96" height="74.95"/></g></g></g><g class="cls-28"><g class="cls-38"><g class="cls-39"><rect class="cls-40" x="110.36" y="107.47" width="74.96" height="74.96"/></g></g></g><g class="cls-28"><g class="cls-41"><g class="cls-42"><rect class="cls-43" x="275.84" y="32.06" width="74.96" height="74.95"/></g></g></g><g class="cls-28"><g class="cls-44"><g class="cls-45"><rect class="cls-46" x="200.88" y="32.06" width="74.95" height="74.96"/></g></g></g><g class="cls-28"><g class="cls-47"><g class="cls-48"><rect class="cls-49" x="275.84" y="107.02" width="74.96" height="74.96"/></g></g></g><g class="cls-28"><g class="cls-50"><g class="cls-51"><rect class="cls-52" x="200.88" y="107.01" width="74.92" height="74.96"/></g></g></g><g class="cls-53"><g class="cls-54"><rect class="cls-55" x="35.55" y="197.39" width="74.95" height="79.64"/></g></g><g class="cls-56"><g class="cls-57"><rect class="cls-58" x="110.51" y="197.39" width="74.95" height="79.65"/></g></g><g class="cls-59"><g class="cls-60"><rect class="cls-61" x="110.51" y="277.03" width="74.95" height="70.27"/></g></g><g class="cls-62"><g class="cls-63"><rect class="cls-64" x="35.55" y="277.03" width="74.96" height="70.27"/></g></g><g class="cls-28"><g class="cls-65"><g class="cls-66"><rect class="cls-67" x="275.84" y="197.39" width="74.95" height="78.94"/></g></g></g><g class="cls-28"><g class="cls-68"><g class="cls-69"><rect class="cls-70" x="200.95" y="197.39" width="74.96" height="78.95"/></g></g></g><g class="cls-28"><g class="cls-71"><g class="cls-72"><rect class="cls-73" x="200.88" y="276.33" width="74.95" height="70.98"/></g></g></g><g class="cls-28"><g class="cls-74"><g class="cls-75"><rect class="cls-76" x="275.84" y="276.33" width="74.96" height="70.98"/></g></g></g><g class="cls-77"><g class="cls-78"><rect class="cls-79" x="158.6" y="154.3" width="72.41" height="72.41"/></g></g><g class="cls-80"><g class="cls-81"><rect class="cls-82" x="149.68" y="146.19" width="86.98" height="86.98"/></g></g><g class="cls-83"><g class="cls-84"><rect class="cls-85" x="161.44" y="157.95" width="63.47" height="63.47"/></g></g><g class="cls-86"><g class="cls-87"><rect class="cls-88" x="171.71" y="168.22" width="42.92" height="42.92"/></g></g><g class="cls-89"><g class="cls-90"><rect class="cls-91" x="167.94" width="25.23" height="25.22"/></g></g><polygon class="cls-92" points="218.4 25.23 193.17 0 193.17 25.18 195.25 25.18 195.25 25.19 199.17 25.19 199.17 25.23 218.4 25.23"/><polygon class="cls-92" points="361.17 191.76 361.16 191.76 361.16 195.68 361.13 195.68 361.13 214.92 386.35 189.68 361.17 189.68 361.17 191.76"/><g class="cls-93"><g class="cls-94"><rect class="cls-95" x="361.13" y="164.45" width="25.22" height="25.23"/></g></g><polygon class="cls-92" points="191.1 354.18 191.1 354.17 186.59 354.17 186.59 354.14 167.94 354.14 193.17 379.37 193.17 354.18 191.1 354.18"/><g class="cls-96"><g class="cls-97"><rect class="cls-98" x="193.17" y="354.14" width="25.23" height="25.23"/></g></g><polygon class="cls-92" points="25.18 187.61 25.19 187.61 25.19 183.1 25.23 183.1 25.23 164.45 0 189.68 0.03 189.7 25.18 189.7 25.18 187.61"/><g class="cls-99"><g class="cls-100"><rect class="cls-101" x="0.02" y="189.7" width="25.2" height="25.22"/></g></g><path class="cls-102" d="M38.07,269.61l7,13.9s-1.41-7.24-2.59-10.09c-1.59-3.82-4-3.93-4.42-3.81"/><path class="cls-103" d="M45.77,304.77a3.84,3.84,0,0,0-1,2.15c-.21,1.42-.26,3.37-.37,4l-.11.6s.84.61,1.12-.82.47-2.8.79-2a5.51,5.51,0,0,1,.14,2.85,9.06,9.06,0,0,0-.2,2.08s-.25.93.49,1.05c0,0,1.3-2.66,1.57-3.54a14.84,14.84,0,0,0-.23-5.75c-.2-.57-.71-1.41-2.23-.54"/><path class="cls-103" d="M46.17,319.75c-.6-4.29-1.28-8.58-2-12.85a4.56,4.56,0,0,0-8.94,1.79v.15c1.1,4.33,2.21,8.65,3.23,13,.65,2.78,3,12.28,2.92,13.75-.36,4.65-.76,5.89-.54,10.93.2,4.42,1.63,14.41,1.83,18.83v.75a1.88,1.88,0,0,0,3.76,0v-.78c.21-4.44.43-8.88.63-13.31.13-2.85.26-7.08.39-9.93.06-1.44.13-2.88.19-4.33,0-1,.09-2,.08-3a53.29,53.29,0,0,0-.59-6.68c-.3-2.79-.67-5.58-1.06-8.36"/><path class="cls-104" d="M44.24,307.33a47,47,0,0,1-5.3.38,1.46,1.46,0,0,1,.21.28,4.58,4.58,0,0,1,.83,2.63v.05q-.07,6.66-.64,13.34c0,.35-.06.69-.08,1,.9,3.79,2.15,9.11,2.15,10.44v.12c-.29,3.72-.6,5.26-.6,8.31,0,.76,0,1.62.06,2.62.19,4.42,1.63,14.41,1.83,18.83v.75a1.91,1.91,0,0,0,1.88,1.79h.15a2.23,2.23,0,0,0,.67-.19c-3.65-8-1.93-16.72-1.91-25.17A4.64,4.64,0,0,1,47.7,338v-.22c0-.92.09-1.85.09-2.77v-.19a53.29,53.29,0,0,0-.59-6.68c-.3-2.79-.67-5.58-1.06-8.36s-.8-5.46-1.23-8.18c-.12-.76-.25-1.51-.37-2.27l-.33-2"/><path class="cls-103" d="M34.12,306.24a4.6,4.6,0,0,0-3.26,4.09c0,.86.09,5.63.14,8.1.1,4.66,1.14,11.06.5,15.69C31,337.82,29.32,341.25,29,345c-.44,4.79-.15,13.1-.35,17.91a16.64,16.64,0,0,0-.07,2,1.88,1.88,0,0,0,3.74.11c.1-.69.2-1.37.29-2.06.69-4.76,1.51-10.88,2.41-15.61.68-3.49,1.85-7.76,2.66-11.22A70.75,70.75,0,0,0,39.34,324q.57-6.66.64-13.34a4.56,4.56,0,0,0-4.5-4.62h0a4.47,4.47,0,0,0-1.36.19"/><path class="cls-104" d="M32.28,307.31a4.64,4.64,0,0,0-1.42,3V311c0,1.62.11,5.37.15,7.46.08,3.57.7,8.16.71,12.19a25.59,25.59,0,0,1-.21,3.5C31,337.8,29.33,341.23,29,345c-.45,4.79-.15,13.1-.35,17.91,0,.52-.08,1.07-.08,1.61v.41a1.91,1.91,0,0,0,1.87,1.75h.23a69.16,69.16,0,0,1-.58-9.75c0-4.9.43-10.18,2.33-14.76a5.47,5.47,0,0,1,2.11-2.74,4.08,4.08,0,0,1,2.25-.61H37c.23-.92.45-1.82.65-2.66A70.75,70.75,0,0,0,39.35,324q.57-6.66.65-13.34v-.05a4.57,4.57,0,0,0-.84-2.63,1.46,1.46,0,0,0-.21-.28H37.63a45.54,45.54,0,0,1-5.35-.41"/><path class="cls-105" d="M51.89,367.68c-1.68-.18-5.24-2.42-5.24-2.42h-4a15.56,15.56,0,0,0-.52,3.46,5.71,5.71,0,0,0,.29,1.35H54s.48-2.13-2.11-2.42"/><path class="cls-105" d="M44.43,365.25H42.65a15.56,15.56,0,0,0-.52,3.46,5.71,5.71,0,0,0,.29,1.35h4.65a4.78,4.78,0,0,1-2.66-4.83"/><path class="cls-105" d="M35.7,367.67c-1.09-.18-3.43-2.41-3.43-2.41h-3.9a23.57,23.57,0,0,0-.34,3.46,9,9,0,0,0,.19,1.35h8.85s.32-2.12-1.38-2.41"/><path class="cls-105" d="M30.54,365.25H28.37a23.57,23.57,0,0,0-.34,3.46,9,9,0,0,0,.19,1.35h3.85a5.17,5.17,0,0,1-1.52-4.82"/><path class="cls-106" d="M32,314.18c2.31,1.79,9.47,2.64,12.17.51,2.21-1.74,2.21-9,2.21-9l-16.71.16s0,6.49,2.33,8.29"/><path class="cls-107" d="M29.68,305.6l-1.94,29.88s9.35,3.42,22,0l-3.39-29.75Z"/><path class="cls-108" d="M29.68,305.6l-1.94,29.88a29.77,29.77,0,0,0,6.33,1.29,13.74,13.74,0,0,1-1.17-5c-.31-5,1.49-10.22,3.69-14.61,2-3.92,5.18-8.57,9.73-9.63h.25l-.2-1.74Z"/><path class="cls-109" d="M46.34,299.5c-.24-.6-.5-1.24-.76-1.92-.13-.33-.26-.68-.38-1-.07-.17-.12-.34-.18-.51s-.05-.16-.07-.23v-.33l-.12-.37c-.08-.2-.15-.4-.22-.61-.13-.39-.27-.78-.41-1.17-.26-.78-.52-1.57-.76-2.35-.47-1.57-.88-3.13-1.16-4.58-.14-.72-.26-1.42-.34-2.06s-.14-1.25-.16-1.79v-2.75a.7.7,0,0,1,.06-.35l.06-.31a3.93,3.93,0,0,0,.06-.48,4.12,4.12,0,0,0-8.2-.81v2.61a4.64,4.64,0,0,0,.06.91c.06.33.07.65.11,1s.1.71.17,1.07c.12.74.3,1.52.5,2.32s.45,1.63.73,2.46a52.62,52.62,0,0,0,2,5c.36.83.75,1.64,1.13,2.43l1.07,2.17.07.14v.13l.1.17.19.3c.12.2.24.38.36.55l.68,1c.44.62.86,1.2,1.25,1.73.78,1.06,1.43,1.93,1.89,2.54a5.39,5.39,0,0,1,.7,1.32c.5.66,3.66-.35,3.26-1.29,0,0-1.21-3.71-1.69-4.9"/><path class="cls-26" d="M45.8,283.51c0-2.75-1.39-4.83-2.66-7.69-1.07-2.42-4.38-6.2-6-6.21-7.09,0-7.33,7.95-7.09,10.45.48,5,.8,11.48,1.44,15.39.38,2.36-1.72,6.26-1.89,11.48a58,58,0,0,0,8,.79c7.09,0,8.91-1,8.91-1a57,57,0,0,0-.44-9.14c-.75-5.18-.3-10.24-.25-14.07"/><path class="cls-110" d="M41.14,291.82a47.68,47.68,0,0,1-.67-15.07,5.52,5.52,0,0,1,1.34-3.16c-1.45-2-3.49-4-4.62-4-7.51,0-7.8,8-7.56,10.46.48,5,1.27,11.47,1.91,15.38.38,2.36-1.72,6.26-1.89,11.48a58,58,0,0,0,8,.79c7.09,0,8.91-1,8.91-1s.08-1.89,0-4.54a20.64,20.64,0,0,1-5.35-10.41"/><path class="cls-103" d="M39.62,270.25s-.29-1.77-.41-2.33-.27-1.11-.38-1.52l-.2-.69a2,2,0,0,0-3.85.48v.25a9,9,0,0,1-.54,3.4c0,1.73,3.12,3.44,4.57,3.25s1-1.33.82-2.78Z"/><path class="cls-111" d="M39.64,270.33a5.46,5.46,0,0,0,.1.69,5,5,0,0,0-.1-.69"/><path class="cls-104" d="M36.15,267.9c.24.49.49,1,.77,1.45s.42.69.64,1l.22.3c.54.51,1,1.15,1.54,1.65l.28.23.09.07a2.54,2.54,0,0,0,.05-1.61,5,5,0,0,0-.1-.69v-.12s-.11-.71-.23-1.37H39a4.51,4.51,0,0,1-2.84-1"/><path class="cls-109" d="M38.07,274.32c-.94-1.08-3.33-2.53-3.86-4.48-3,1.23-4.36,4.76-4.62,7.75a21.65,21.65,0,0,0,.14,3.94c.19,2,.39,4,.57,6,.19,2.28.35,4.55.46,6.83a21.58,21.58,0,0,1-.43,5c-.39,2.13-.81,4.25-1.08,6.39-.07.53-.13,1.07-.17,1.61,0,.27-.27,1.52-.11,1.7s.86.13,1,.16a58.92,58.92,0,0,0,13.72.68c-1-8.49-.71-17.07-1.74-25.57-.13-1.06-.55-6.09-3.91-10"/><path class="cls-102" d="M32.64,283.18c.39-3.79.94-7.58,1.68-11.32a3.54,3.54,0,0,1,.37-1,4.23,4.23,0,0,1-.44-1c-3,1.24-4.36,4.76-4.62,7.75a21.65,21.65,0,0,0,.14,3.94c.19,2,.39,4,.57,6,.19,2.28.35,4.55.46,6.83a21.58,21.58,0,0,1-.43,5c-.39,2.13-.81,4.25-1.08,6.39-.07.54-.13,1.07-.17,1.61,0,.27-.27,1.52-.11,1.7s.86.13,1,.16c1.64.23,3.42.46,5.22.62-2.69-4.23-2.94-26.21-2.62-26.64"/><path class="cls-103" d="M31,256.85c-1.69,2.75,4.73,10.67,4.73,10.67s2.25,2.63,6,.62c4.75-2.53-.92-13.24-.92-13.24s-8.52-.19-9.83,2"/><path class="cls-112" d="M40.26,253.79a8.05,8.05,0,0,0-8,1.15c-3,2.1-2.54,7.63-.36,10.24s2.91,2.28,2.91,2.28l.41-2.75c-.58.31-1.46-.46-1.39-2.15s2.18.21,2.18.21a8.07,8.07,0,0,1,0-3.32c.44-1.06,5.8-2,5.8-2a2.5,2.5,0,0,0-.9-3.41,2.6,2.6,0,0,0-.65-.26"/><path class="cls-112" d="M27.33,257.85c-1.38,2.21,1,8,3.3,6.39,3-2.09.87-6.89.87-6.89s-2.8-1.72-4.17.5"/><rect class="cls-25" x="16.99" y="244.62" width="61.48" height="125.55"/><path class="cls-109" d="M52.9,257.87a98.73,98.73,0,0,1-3.56,9.84c-.63,1.49-1,2.68-2.37,3.53-3.22,2-9.65,1.93-12.07,1.86a4.09,4.09,0,0,0-4.07,4.11v0a4.21,4.21,0,0,0,.14,1,4.32,4.32,0,0,0,4.1,3.25c2.74-.41,13.3-1.66,17.42-5.66,2.57-2.5,3.91-15.74,4.11-17.13.14-1-3.51-1.73-3.74-.87"/><path class="cls-102" d="M55.61,257.83v.57a5.1,5.1,0,0,1-.08.67c-.06.53-2.9,11.36-4,13.55-.43.86-1.66,1.7-5,3.7a15.61,15.61,0,0,1-8.76,2.08c-2.7-.15-3.58-2.62-3.7-5.22,0-.1-1,.44-1,.34A4.23,4.23,0,0,0,31,278.29a4.31,4.31,0,0,0,4.09,3.23c2.74-.4,13.3-1.66,17.42-5.65,2.57-2.5,3.91-15.74,4.11-17.13,0-.36-.41-.68-1-.91"/><path class="cls-103" d="M56.38,253c-.81-.2-1.81-1-2.37,0-1,1.63-1.54,4.89,0,5.36,2.32.72,3.39-1.16,3.78-3.43.24-1.37-.56-1.69-1.37-1.89"/><path class="cls-103" d="M59.44,250.59a.38.38,0,0,0-.53.09h0l-.16.23-.39.61-.53.88-.27.51c-.1.18-.18.36-.28.54s-.16.37-.25.55l-.22.54c-.07.18-.14.35-.19.52s-.11.33-.15.48l-.11.41a.59.59,0,0,1-.06.32l-.06.29a.5.5,0,1,0,1,.14v-.24a1.4,1.4,0,0,1,0-.29,1.53,1.53,0,0,1,.08-.37,2.08,2.08,0,0,1,.12-.44c0-.16.1-.31.16-.48s.12-.34.19-.52l.22-.52.24-.52.25-.5c.16-.32.33-.61.47-.87l.36-.59.14-.23a.38.38,0,0,0-.11-.52"/><path class="cls-103" d="M58.47,249.18a.43.43,0,0,0-.57.16l-.13.25c-.09.15-.21.37-.34.64l-.45.93-.23.53c-.07.18-.14.37-.22.56l-.2.57-.18.56a2.69,2.69,0,0,1-.14.54,2.26,2.26,0,0,1-.1.48c0,.15,0,.3-.07.42a1.82,1.82,0,0,0,0,.33v.29a.5.5,0,0,0,.47.53.51.51,0,0,0,.53-.47v-.91a3.12,3.12,0,0,1,.09-.44,2.42,2.42,0,0,1,.12-.5c0-.17.1-.35.15-.53l.18-.54c.06-.18.13-.36.2-.53s.13-.35.2-.52c.14-.33.28-.64.41-.9s.23-.48.31-.62l.12-.23a.43.43,0,0,0-.17-.56"/><path class="cls-103" d="M57.47,248.18a.44.44,0,0,0-.6.16h0l-.14.24-.34.65c-.13.27-.28.58-.43.93-.08.17-.16.35-.23.53l-.22.56c-.07.18-.14.38-.2.57s-.13.38-.18.56-.1.37-.14.54-.07.34-.1.49a1.54,1.54,0,0,1-.07.42c-.07.13,0,.24,0,.33v.29a.5.5,0,0,0,1,.07V254a1.15,1.15,0,0,1,0-.37l.09-.45a2.07,2.07,0,0,1,.12-.49,2.23,2.23,0,0,1,.15-.53l.18-.54c.07-.18.13-.36.2-.53l.21-.52c.14-.33.28-.64.41-.9l.31-.62.12-.23a.44.44,0,0,0-.17-.59"/><path class="cls-103" d="M55.53,248.59a.42.42,0,0,0-.54.25h0l-.1.27c-.06.18-.15.43-.24.72a21,21,0,0,0-.61,2.23,3.32,3.32,0,0,1-.13.61,4.31,4.31,0,0,1-.1.61c0,.2-.05.39-.08.57a2.26,2.26,0,0,0,0,.52v1.09a.48.48,0,0,0,.5.46h0a.49.49,0,0,0,.47-.51h0v-.23a1.5,1.5,0,0,1,0-.3V254l.06-.54a1.54,1.54,0,0,1,.08-.57,3.06,3.06,0,0,0,.11-.59c.16-.78.37-1.57.54-2.15.09-.29.17-.53.22-.7a1.14,1.14,0,0,1,.09-.26.43.43,0,0,0-.26-.53"/><path class="cls-103" d="M53.42,253.71a16.68,16.68,0,0,1,0-2c.07-1.11-.67-1-.67-1a21.55,21.55,0,0,0-.33,4.54c.52,3.29,1.54,2.94,1.54,2.94a3.27,3.27,0,0,0-.52-4.43"/><path class="cls-113" d="M43,264.05l-2.9.81a2.37,2.37,0,0,0,1.54.82c1.08,0,1.36-1.63,1.36-1.63"/><rect class="cls-25" x="16.99" y="244.62" width="61.48" height="125.55"/><text class="cls-114" transform="translate(83.29 108.84)">ANA<tspan class="cls-115" x="22.65" y="0">L</tspan><tspan class="cls-116" x="26.05" y="0">Y</tspan><tspan x="32.53" y="0">SER</tspan></text><text class="cls-117" transform="translate(86.91 276.34)">AMIABLE</text><text class="cls-114" transform="translate(261.24 108.84)">DRIVER</text><text class="cls-114" transform="translate(249.58 276.34)">EXPRE<tspan class="cls-118" x="30.81" y="0">S</tspan><tspan class="cls-119" x="37.05" y="0">SIVE</tspan></text><rect class="cls-26" x="94.41" y="185.95" width="198.36" height="8.58"/><text class="cls-120" transform="translate(140.99 194.2)">A<tspan class="cls-121" x="9.75" y="0">S</tspan><tspan class="cls-122" x="18.19" y="0">SE</tspan><tspan class="cls-123" x="34.34" y="0">R</tspan><tspan class="cls-124" x="42.62" y="0">T</tspan><tspan class="cls-122" x="51.16" y="0">IVE</tspan><tspan class="cls-125" x="73.05" y="0">N</tspan><tspan x="82.8" y="0">E</tspan><tspan class="cls-121" x="90.55" y="0">S</tspan><tspan class="cls-119" x="99" y="0">S</tspan></text><rect class="cls-26" x="188.72" y="194.53" width="9.37" height="91.06"/><text class="cls-126" transform="translate(189.79 202.78)">V</text><text class="cls-126" transform="translate(189.62 213.78)">N</text><text class="cls-126" transform="translate(190.62 224.78)">E</text><text class="cls-126" transform="translate(190.3 235.78)">S</text><text class="cls-126" transform="translate(190.3 246.78)">S</text><rect class="cls-26" x="188.91" y="110.31" width="9.37" height="75.64"/><text class="cls-126" transform="translate(190.39 118.56)">R</text><text class="cls-126" transform="translate(190.82 129.56)">E</text><text class="cls-126" transform="translate(190.5 140.56)">S</text><text class="cls-126" transform="translate(190.41 151.56)">P</text><text class="cls-126" transform="translate(189.27 162.56)">O</text><text class="cls-126" transform="translate(189.82 173.56)">N</text><text class="cls-126" transform="translate(190.5 184.56)">S</text></g></g></svg>