<svg xmlns="http://www.w3.org/2000/svg" viewBox="0 0 57.63 57.6"><defs><style>.cls-1{fill:#939598;}.cls-2{fill:#fff;}</style></defs><g id="Layer_2" data-name="Layer 2"><g id="Layer_1-2" data-name="Layer 1"><path class="cls-1" d="M28.79,0A28.84,28.84,0,0,0,.08,26.29c0,.34-.06.67-.08,1V28.8a28.82,28.82,0,0,0,57.49,2.9c0-.34,0-.67.07-1,0-.62.07-1.25.07-1.89A28.84,28.84,0,0,0,28.79,0"/><polygon class="cls-2" points="28.79 7.11 24.27 13.35 33.29 13.35 28.79 7.11"/><path class="cls-2" d="M35.72,24.28a4.72,4.72,0,0,0-6.67,0l-.26.27-.27-.27A4.72,4.72,0,1,0,21.86,31l.26.25,6.67,6.68,6.67-6.68.26-.25a4.75,4.75,0,0,0,0-6.68"/><path class="cls-2" d="M28.79,16.23A12.59,12.59,0,1,0,41.38,28.82h0A12.59,12.59,0,0,0,28.79,16.23m0,25.56a13,13,0,1,1,13-13,13,13,0,0,1-13,13"/><polygon class="cls-2" points="28.79 50.52 33.29 44.28 24.27 44.28 28.79 50.52"/><polygon class="cls-2" points="7.08 28.81 13.31 33.32 13.31 24.3 7.08 28.81"/><polygon class="cls-2" points="50.49 28.81 44.25 24.3 44.25 33.32 50.49 28.81"/></g></g></svg>