<svg xmlns="http://www.w3.org/2000/svg" xmlns:xlink="http://www.w3.org/1999/xlink" viewBox="0 0 393.14 379.37"><defs><style>.cls-1{fill:url(#linear-gradient);}.cls-2{fill:url(#linear-gradient-2);}.cls-3{fill:url(#linear-gradient-3);}.cls-4{fill:url(#linear-gradient-4);}.cls-5{fill:url(#linear-gradient-5);}.cls-6{fill:url(#linear-gradient-6);}.cls-7{fill:url(#linear-gradient-7);}.cls-8{fill:url(#linear-gradient-8);}.cls-9{fill:url(#radial-gradient);}.cls-10{fill:url(#radial-gradient-2);}.cls-11{fill:url(#radial-gradient-3);}.cls-12{fill:url(#radial-gradient-4);}.cls-13{fill:url(#linear-gradient-9);}.cls-14{fill:url(#linear-gradient-10);}.cls-15{fill:url(#linear-gradient-11);}.cls-16{fill:url(#linear-gradient-12);}.cls-17{fill:url(#linear-gradient-13);}.cls-18{fill:url(#linear-gradient-14);}.cls-19{fill:url(#linear-gradient-15);}.cls-20{fill:url(#linear-gradient-16);}.cls-21{fill:url(#linear-gradient-17);}.cls-22{fill:url(#linear-gradient-18);}.cls-23{fill:url(#linear-gradient-19);}.cls-24{fill:url(#linear-gradient-20);}.cls-25{fill:none;}.cls-114,.cls-117,.cls-26{fill:#fff;}.cls-27{fill:#1b3564;}.cls-114,.cls-28{opacity:0.4;}.cls-29{clip-path:url(#clip-path);}.cls-30{mask:url(#mask);}.cls-31{fill:url(#linear-gradient-21);}.cls-32{clip-path:url(#clip-path-2);}.cls-33{mask:url(#mask-2);}.cls-34{fill:url(#linear-gradient-22);}.cls-35{clip-path:url(#clip-path-3);}.cls-36{mask:url(#mask-3);}.cls-37{fill:url(#linear-gradient-23);}.cls-38{clip-path:url(#clip-path-4);}.cls-39{mask:url(#mask-4);}.cls-40{fill:url(#linear-gradient-24);}.cls-41{clip-path:url(#clip-path-5);}.cls-42{mask:url(#mask-5);}.cls-43{fill:url(#linear-gradient-25);}.cls-44{clip-path:url(#clip-path-6);}.cls-45{mask:url(#mask-6);}.cls-46{fill:url(#linear-gradient-26);}.cls-47{clip-path:url(#clip-path-7);}.cls-48{mask:url(#mask-7);}.cls-49{fill:url(#linear-gradient-27);}.cls-50{clip-path:url(#clip-path-8);}.cls-51{mask:url(#mask-8);}.cls-52{fill:url(#linear-gradient-28);}.cls-53{clip-path:url(#clip-path-9);}.cls-54{mask:url(#mask-9);}.cls-55{fill:url(#linear-gradient-29);}.cls-56{clip-path:url(#clip-path-10);}.cls-57{mask:url(#mask-10);}.cls-58{fill:url(#linear-gradient-30);}.cls-59{clip-path:url(#clip-path-11);}.cls-60{mask:url(#mask-11);}.cls-61{fill:url(#linear-gradient-31);}.cls-62{clip-path:url(#clip-path-12);}.cls-63{mask:url(#mask-12);}.cls-64{fill:url(#linear-gradient-32);}.cls-65{clip-path:url(#clip-path-13);}.cls-66{mask:url(#mask-13);}.cls-67{fill:url(#linear-gradient-33);}.cls-68{clip-path:url(#clip-path-14);}.cls-69{mask:url(#mask-14);}.cls-70{fill:url(#linear-gradient-34);}.cls-71{clip-path:url(#clip-path-15);}.cls-72{mask:url(#mask-15);}.cls-73{fill:url(#linear-gradient-35);}.cls-74{clip-path:url(#clip-path-16);}.cls-75{mask:url(#mask-16);}.cls-76{fill:url(#linear-gradient-36);}.cls-77{clip-path:url(#clip-path-17);}.cls-78{mask:url(#mask-17);}.cls-79{fill:url(#radial-gradient-5);}.cls-80{clip-path:url(#clip-path-18);}.cls-81{mask:url(#mask-18);}.cls-82{fill:url(#radial-gradient-6);}.cls-83{clip-path:url(#clip-path-19);}.cls-84{mask:url(#mask-19);}.cls-85{fill:url(#radial-gradient-7);}.cls-86{clip-path:url(#clip-path-20);}.cls-87{mask:url(#mask-20);}.cls-88{fill:url(#radial-gradient-8);}.cls-89{clip-path:url(#clip-path-21);}.cls-90{mask:url(#mask-21);}.cls-91{fill:url(#linear-gradient-37);}.cls-92{fill:#939598;}.cls-93{clip-path:url(#clip-path-22);}.cls-94{mask:url(#mask-22);}.cls-95{fill:url(#linear-gradient-38);}.cls-96{clip-path:url(#clip-path-23);}.cls-97{mask:url(#mask-23);}.cls-98{fill:url(#linear-gradient-39);}.cls-99{clip-path:url(#clip-path-24);}.cls-100{mask:url(#mask-24);}.cls-101{fill:url(#linear-gradient-40);}.cls-102{fill:#102649;}.cls-103{fill:#1c3564;}.cls-104{fill:#d11f43;}.cls-105{fill:#e3857e;}.cls-106{fill:#d87d7a;}.cls-107{fill:#293758;}.cls-108{fill:#e4837c;}.cls-109{fill:#c07042;}.cls-110{fill:#a35938;}.cls-111{fill:#663225;}.cls-112{fill:#ba1f3d;}.cls-113{fill:#231f20;}.cls-114,.cls-117,.cls-120,.cls-126{font-size:11px;font-family:SharpSansDisplayNo1-Bold, Sharp Sans Display No1;font-weight:700;}.cls-115{letter-spacing:-0.17em;}.cls-116{letter-spacing:-0.04em;}.cls-118{letter-spacing:0em;}.cls-119{letter-spacing:0em;}.cls-120{letter-spacing:0.2em;}.cls-121{letter-spacing:0.2em;}.cls-122{letter-spacing:0.2em;}.cls-123{letter-spacing:0.17em;}.cls-124{letter-spacing:0.2em;}.cls-125{letter-spacing:0.2em;}</style><linearGradient id="linear-gradient" x1="2217.58" y1="131.28" x2="2218.58" y2="131.28" gradientTransform="matrix(0, 100.7, 100.7, 0, -13147.2, -223266.23)" gradientUnits="userSpaceOnUse"><stop offset="0" stop-color="#fff"/><stop offset="0.13" stop-color="#fff"/><stop offset="0.34" stop-color="#fff"/><stop offset="0.51" stop-color="#fff"/><stop offset="0.68" stop-color="#fff"/><stop offset="0.83" stop-color="#fff"/><stop offset="0.98" stop-color="#fff"/><stop offset="1" stop-color="#fff"/></linearGradient><linearGradient id="linear-gradient-2" x1="2245.01" y1="160.33" x2="2246.01" y2="160.33" gradientTransform="matrix(-72.84, 0, 0, 72.84, 163671.54, -11608.67)" gradientUnits="userSpaceOnUse"><stop offset="0" stop-color="#fff"/><stop offset="0.13" stop-color="#fff"/><stop offset="0.32" stop-color="#fff"/><stop offset="0.49" stop-color="#fff"/><stop offset="0.64" stop-color="#fff"/><stop offset="0.78" stop-color="#fff"/><stop offset="0.98" stop-color="#fff"/><stop offset="1" stop-color="#fff"/></linearGradient><linearGradient id="linear-gradient-3" x1="2209.42" y1="174.18" x2="2210.42" y2="174.18" gradientTransform="matrix(0, -116.46, -116.46, 0, 20432.63, 257668.67)" gradientUnits="userSpaceOnUse"><stop offset="0" stop-color="#fff"/><stop offset="0.13" stop-color="#fff"/><stop offset="0.48" stop-color="#fff"/><stop offset="0.79" stop-color="#fff"/><stop offset="0.86" stop-color="#fff"/><stop offset="1" stop-color="#fff"/></linearGradient><linearGradient id="linear-gradient-4" x1="2188.85" y1="149.65" x2="2189.85" y2="149.65" gradientTransform="matrix(95.13, 0, 0, -95.13, -208192.58, 14548.79)" gradientUnits="userSpaceOnUse"><stop offset="0" stop-color="#fff"/><stop offset="0.13" stop-color="#fff"/><stop offset="0.54" stop-color="#fff"/><stop offset="0.89" stop-color="#fff"/><stop offset="0.98" stop-color="#fff"/><stop offset="1" stop-color="#fff"/></linearGradient><linearGradient id="linear-gradient-5" x1="2229.93" y1="157.48" x2="2230.93" y2="157.48" gradientTransform="matrix(-138.51, 0, 0, 138.51, 309210.49, -21575.22)" gradientUnits="userSpaceOnUse"><stop offset="0" stop-color="#fff"/><stop offset="0.41" stop-color="#fff"/><stop offset="0.98" stop-color="#fff"/><stop offset="1" stop-color="#fff"/></linearGradient><linearGradient id="linear-gradient-6" x1="2216.1" y1="139.01" x2="2217.15" y2="139.01" gradientTransform="matrix(0, 151.64, 151.64, 0, -20840.86, -335878.93)" gradientUnits="userSpaceOnUse"><stop offset="0" stop-color="#fff"/><stop offset="0.34" stop-color="#fff"/><stop offset="0.52" stop-color="#fff"/><stop offset="0.67" stop-color="#fff"/><stop offset="0.82" stop-color="#fff"/><stop offset="0.96" stop-color="#fff"/><stop offset="0.98" stop-color="#fff"/><stop offset="1" stop-color="#fff"/></linearGradient><linearGradient id="linear-gradient-7" x1="2191.09" y1="150.06" x2="2192.09" y2="150.06" gradientTransform="matrix(104.75, 0, 0, -104.75, -229324.03, 16031.06)" gradientUnits="userSpaceOnUse"><stop offset="0" stop-color="#fff"/><stop offset="0.36" stop-color="#fff"/><stop offset="0.53" stop-color="#fff"/><stop offset="0.68" stop-color="#fff"/><stop offset="0.82" stop-color="#fff"/><stop offset="0.96" stop-color="#fff"/><stop offset="0.98" stop-color="#fff"/><stop offset="1" stop-color="#fff"/></linearGradient><linearGradient id="linear-gradient-8" x1="2209.11" y1="175.79" x2="2210.06" y2="175.79" gradientTransform="matrix(0, -107.72, -107.72, 0, 19249.45, 238310.93)" gradientUnits="userSpaceOnUse"><stop offset="0" stop-color="#fff"/><stop offset="0.37" stop-color="#fff"/><stop offset="0.54" stop-color="#fff"/><stop offset="0.69" stop-color="#fff"/><stop offset="0.82" stop-color="#fff"/><stop offset="0.96" stop-color="#fff"/><stop offset="0.98" stop-color="#fff"/><stop offset="1" stop-color="#fff"/></linearGradient><radialGradient id="radial-gradient" cx="2163.15" cy="144.76" r="1" gradientTransform="matrix(46.28, 0, 0, -46.28, -99922.55, 6890.61)" gradientUnits="userSpaceOnUse"><stop offset="0" stop-color="#fff"/><stop offset="0.57" stop-color="#fff"/><stop offset="0.6" stop-color="#fff"/><stop offset="0.64" stop-color="#fff"/><stop offset="0.67" stop-color="#fff"/><stop offset="0.69" stop-color="#fff"/><stop offset="0.77" stop-color="#fff"/><stop offset="0.87" stop-color="#fff"/><stop offset="1" stop-color="#fff"/></radialGradient><radialGradient id="radial-gradient-2" cx="2185.29" cy="148.98" r="1" gradientTransform="matrix(83.01, 0, 0, -83.01, -181206.16, 12556.04)" gradientUnits="userSpaceOnUse"><stop offset="0" stop-color="#fff"/><stop offset="0.11" stop-color="#fff"/><stop offset="0.51" stop-color="#fff"/><stop offset="0.54" stop-color="#fff"/><stop offset="0.62" stop-color="#fff"/><stop offset="0.7" stop-color="#fff"/><stop offset="0.8" stop-color="#fff"/><stop offset="1" stop-color="#fff"/></radialGradient><radialGradient id="radial-gradient-3" cx="2156.11" cy="143.43" r="1" gradientTransform="matrix(40.58, 0, 0, -40.58, -87305.23, 6010.11)" gradientUnits="userSpaceOnUse"><stop offset="0" stop-color="#fff"/><stop offset="0.52" stop-color="#fff"/><stop offset="0.55" stop-color="#fff"/><stop offset="0.59" stop-color="#fff"/><stop offset="1" stop-color="#fff"/></radialGradient><radialGradient id="radial-gradient-4" cx="2155.37" cy="143.28" r="1" gradientTransform="matrix(40.06, 0, 0, -40.06, -86148.18, 5929.45)" gradientUnits="userSpaceOnUse"><stop offset="0" stop-color="#fff"/><stop offset="0.11" stop-color="#fff"/><stop offset="0.52" stop-color="#fff"/><stop offset="0.81" stop-color="#fff"/><stop offset="1" stop-color="#fff"/></radialGradient><linearGradient id="linear-gradient-9" x1="2194.45" y1="150.72" x2="2195.45" y2="150.72" gradientTransform="matrix(123.55, 0, 0, -123.55, -271074.96, 18766.1)" gradientUnits="userSpaceOnUse"><stop offset="0" stop-color="#fff"/><stop offset="0.2" stop-color="#fff"/><stop offset="0.35" stop-color="#fff"/><stop offset="0.47" stop-color="#fff"/><stop offset="0.59" stop-color="#fff"/><stop offset="0.69" stop-color="#fff"/><stop offset="0.98" stop-color="#fff"/><stop offset="1" stop-color="#fff"/></linearGradient><linearGradient id="linear-gradient-10" x1="2162.24" y1="144.59" x2="2163.24" y2="144.59" gradientTransform="matrix(45.46, 0, 0, -45.46, -98130.42, 6585.43)" gradientUnits="userSpaceOnUse"><stop offset="0" stop-color="#fff"/><stop offset="0.59" stop-color="#fff"/><stop offset="0.63" stop-color="#fff"/><stop offset="0.67" stop-color="#fff"/><stop offset="0.7" stop-color="#fff"/><stop offset="0.74" stop-color="#fff"/><stop offset="0.77" stop-color="#fff"/><stop offset="0.8" stop-color="#fff"/><stop offset="1" stop-color="#fff"/></linearGradient><linearGradient id="linear-gradient-11" x1="2221.99" y1="108.1" x2="2222.99" y2="108.1" gradientTransform="matrix(0, 50.16, 50.16, 0, -5048.95, -111301.92)" gradientUnits="userSpaceOnUse"><stop offset="0" stop-color="#fff"/><stop offset="0.28" stop-color="#fff"/><stop offset="0.4" stop-color="#fff"/><stop offset="0.5" stop-color="#fff"/><stop offset="0.6" stop-color="#fff"/><stop offset="0.69" stop-color="#fff"/><stop offset="0.78" stop-color="#fff"/><stop offset="0.85" stop-color="#fff"/><stop offset="1" stop-color="#fff"/></linearGradient><linearGradient id="linear-gradient-12" x1="2266.31" y1="164.39" x2="2267.31" y2="164.39" gradientTransform="matrix(-43.62, 0, 0, 43.62, 99075.54, -6803.85)" xlink:href="#linear-gradient-11"/><linearGradient id="linear-gradient-13" x1="2204.44" y1="200.33" x2="2205.44" y2="200.33" gradientTransform="matrix(0, -50.31, -50.31, 0, 10091.46, 111123.6)" xlink:href="#linear-gradient-11"/><linearGradient id="linear-gradient-14" x1="2209.79" y1="172.22" x2="2210.79" y2="172.22" gradientTransform="matrix(0, -129.14, -129.14, 0, 22388.44, 285548.39)" gradientUnits="userSpaceOnUse"><stop offset="0" stop-color="#fff"/><stop offset="0.13" stop-color="#fff"/><stop offset="0.34" stop-color="#fff"/><stop offset="0.52" stop-color="#fff"/><stop offset="0.68" stop-color="#fff"/><stop offset="0.83" stop-color="#fff"/><stop offset="0.98" stop-color="#fff"/><stop offset="1" stop-color="#fff"/></linearGradient><linearGradient id="linear-gradient-15" x1="2235.26" y1="158.48" x2="2236.26" y2="158.48" gradientTransform="matrix(-105.06, 0, 0, 105.06, 235178.12, -16579.68)" gradientUnits="userSpaceOnUse"><stop offset="0" stop-color="#fff"/><stop offset="0.13" stop-color="#fff"/><stop offset="0.43" stop-color="#fff"/><stop offset="0.63" stop-color="#fff"/><stop offset="0.95" stop-color="#fff"/><stop offset="1" stop-color="#fff"/></linearGradient><linearGradient id="linear-gradient-16" x1="2217.25" y1="133.02" x2="2218.25" y2="133.02" gradientTransform="matrix(0, 108.93, 108.93, 0, -14250.83, -241488.47)" xlink:href="#linear-gradient-15"/><linearGradient id="linear-gradient-17" x1="2208.79" y1="177.49" x2="2209.79" y2="177.49" gradientTransform="matrix(0, -99.84, -99.84, 0, 18033.27, 220699.54)" xlink:href="#linear-gradient-15"/><linearGradient id="linear-gradient-18" x1="2190.7" y1="150" x2="2191.7" y2="150" gradientTransform="matrix(102.94, 0, 0, -102.94, -225310.55, 15585.95)" xlink:href="#linear-gradient-15"/><linearGradient id="linear-gradient-19" x1="2216.32" y1="137.87" x2="2217.32" y2="137.87" gradientTransform="matrix(0, 141.15, 141.15, 0, -19387.99, -312643.76)" gradientUnits="userSpaceOnUse"><stop offset="0" stop-color="#fff"/><stop offset="0.13" stop-color="#fff"/><stop offset="0.42" stop-color="#fff"/><stop offset="0.63" stop-color="#fff"/><stop offset="0.71" stop-color="#fff"/><stop offset="1" stop-color="#fff"/></linearGradient><linearGradient id="linear-gradient-20" x1="2230.06" y1="157.49" x2="2231.06" y2="157.49" gradientTransform="matrix(-137.4, 0, 0, 137.4, 306616.96, -21402.75)" gradientUnits="userSpaceOnUse"><stop offset="0" stop-color="#fff"/><stop offset="0.13" stop-color="#fff"/><stop offset="0.45" stop-color="#fff"/><stop offset="0.72" stop-color="#fff"/><stop offset="0.79" stop-color="#fff"/><stop offset="1" stop-color="#fff"/></linearGradient><clipPath id="clip-path"><rect class="cls-25" x="35.4" y="32.5" width="74.96" height="74.96"/></clipPath><mask id="mask" x="35.4" y="32.5" width="74.95" height="74.96" maskUnits="userSpaceOnUse"><rect class="cls-1" x="35.4" y="32.5" width="74.95" height="74.96"/></mask><linearGradient id="linear-gradient-21" x1="2217.58" y1="131.28" x2="2218.58" y2="131.28" gradientTransform="matrix(0, 100.7, 100.7, 0, -13147.2, -223266.23)" gradientUnits="userSpaceOnUse"><stop offset="0" stop-color="#d41f44"/><stop offset="0.13" stop-color="#d41f44"/><stop offset="0.34" stop-color="#d11f43"/><stop offset="0.51" stop-color="#c61f41"/><stop offset="0.68" stop-color="#b41f3e"/><stop offset="0.83" stop-color="#9e1f39"/><stop offset="0.98"/><stop offset="1"/></linearGradient><clipPath id="clip-path-2"><rect class="cls-25" x="110.36" y="32.5" width="74.96" height="74.96"/></clipPath><mask id="mask-2" x="110.36" y="32.5" width="74.96" height="74.96" maskUnits="userSpaceOnUse"><rect class="cls-2" x="110.36" y="32.5" width="74.96" height="74.96"/></mask><linearGradient id="linear-gradient-22" x1="2245.01" y1="160.33" x2="2246.01" y2="160.33" gradientTransform="matrix(-72.84, 0, 0, 72.84, 163671.54, -11608.67)" gradientUnits="userSpaceOnUse"><stop offset="0" stop-color="#d41f44"/><stop offset="0.13" stop-color="#d41f44"/><stop offset="0.32" stop-color="#d11f43"/><stop offset="0.49" stop-color="#c61f41"/><stop offset="0.64" stop-color="#b41f3e"/><stop offset="0.78" stop-color="#9e1f39"/><stop offset="0.98"/><stop offset="1"/></linearGradient><clipPath id="clip-path-3"><rect class="cls-25" x="35.4" y="107.47" width="74.96" height="74.95"/></clipPath><mask id="mask-3" x="35.4" y="107.47" width="74.96" height="74.95" maskUnits="userSpaceOnUse"><rect class="cls-13" x="35.4" y="107.47" width="74.96" height="74.95"/></mask><linearGradient id="linear-gradient-23" x1="2194.45" y1="150.72" x2="2195.45" y2="150.72" gradientTransform="matrix(123.55, 0, 0, -123.55, -271074.96, 18766.1)" gradientUnits="userSpaceOnUse"><stop offset="0" stop-color="#d41f44"/><stop offset="0.2" stop-color="#d41f44"/><stop offset="0.35" stop-color="#d11f43"/><stop offset="0.47" stop-color="#c61f41"/><stop offset="0.59" stop-color="#b41f3e"/><stop offset="0.69" stop-color="#9e1f39"/><stop offset="0.98"/><stop offset="1"/></linearGradient><clipPath id="clip-path-4"><path class="cls-25" d="M110.36,107.47v74.95H151a42.8,42.8,0,0,1,34.35-34.31V107.47Z"/></clipPath><mask id="mask-4" x="110.36" y="107.47" width="74.96" height="74.96" maskUnits="userSpaceOnUse"><rect class="cls-18" x="110.36" y="107.47" width="74.96" height="74.96"/></mask><linearGradient id="linear-gradient-24" x1="2209.79" y1="172.22" x2="2210.79" y2="172.22" gradientTransform="matrix(0, -129.14, -129.14, 0, 22388.44, 285548.39)" gradientUnits="userSpaceOnUse"><stop offset="0" stop-color="#d41f44"/><stop offset="0.13" stop-color="#d41f44"/><stop offset="0.34" stop-color="#d11f43"/><stop offset="0.52" stop-color="#c61f41"/><stop offset="0.68" stop-color="#b41f3e"/><stop offset="0.83" stop-color="#9e1f39"/><stop offset="0.98"/><stop offset="1"/></linearGradient><clipPath id="clip-path-5"><rect class="cls-25" x="275.84" y="32.06" width="74.96" height="74.96"/></clipPath><mask id="mask-5" x="275.84" y="32.06" width="74.96" height="74.95" maskUnits="userSpaceOnUse"><rect class="cls-19" x="275.84" y="32.06" width="74.96" height="74.95"/></mask><linearGradient id="linear-gradient-25" x1="2235.26" y1="158.48" x2="2236.26" y2="158.48" gradientTransform="matrix(-105.06, 0, 0, 105.06, 235178.12, -16579.68)" gradientUnits="userSpaceOnUse"><stop offset="0" stop-color="#1b3564"/><stop offset="0.13" stop-color="#1b3564"/><stop offset="0.43" stop-color="#1b3561"/><stop offset="0.63" stop-color="#1b3459"/><stop offset="0.95" stop-color="#231f20"/><stop offset="1" stop-color="#231f20"/></linearGradient><clipPath id="clip-path-6"><rect class="cls-25" x="200.88" y="32.06" width="74.95" height="74.96"/></clipPath><mask id="mask-6" x="200.88" y="32.06" width="74.96" height="74.96" maskUnits="userSpaceOnUse"><rect class="cls-20" x="200.88" y="32.06" width="74.95" height="74.95"/></mask><linearGradient id="linear-gradient-26" x1="2217.25" y1="133.02" x2="2218.25" y2="133.02" gradientTransform="matrix(0, 108.93, 108.93, 0, -14250.83, -241488.49)" xlink:href="#linear-gradient-25"/><clipPath id="clip-path-7"><rect class="cls-25" x="275.84" y="107.02" width="74.96" height="74.96"/></clipPath><mask id="mask-7" x="275.84" y="107.02" width="74.96" height="74.96" maskUnits="userSpaceOnUse"><rect class="cls-21" x="275.84" y="107.02" width="74.96" height="74.96"/></mask><linearGradient id="linear-gradient-27" x1="2208.79" y1="177.49" x2="2209.79" y2="177.49" gradientTransform="matrix(0, -99.84, -99.84, 0, 18033.27, 220699.54)" xlink:href="#linear-gradient-25"/><clipPath id="clip-path-8"><path class="cls-25" d="M200.88,107v40.61A42.77,42.77,0,0,1,235.19,182H275.8V107Z"/></clipPath><mask id="mask-8" x="200.88" y="107.01" width="74.92" height="74.96" maskUnits="userSpaceOnUse"><rect class="cls-22" x="200.88" y="107.01" width="74.92" height="74.96"/></mask><linearGradient id="linear-gradient-28" x1="2190.7" y1="150" x2="2191.7" y2="150" gradientTransform="matrix(102.94, 0, 0, -102.94, -225310.55, 15585.95)" xlink:href="#linear-gradient-25"/><clipPath id="clip-path-9"><rect class="cls-25" x="35.55" y="197.39" width="74.96" height="79.64"/></clipPath><mask id="mask-9" x="35.55" y="197.39" width="74.95" height="79.64" maskUnits="userSpaceOnUse"><rect class="cls-23" x="35.55" y="197.39" width="74.95" height="79.64"/></mask><linearGradient id="linear-gradient-29" x1="2216.32" y1="137.87" x2="2217.32" y2="137.87" gradientTransform="matrix(0, 141.15, 141.15, 0, -19387.99, -312643.76)" gradientUnits="userSpaceOnUse"><stop offset="0" stop-color="#6d6e70"/><stop offset="0.13" stop-color="#6d6e70"/><stop offset="0.42" stop-color="#6a6b6d"/><stop offset="0.63" stop-color="#616265"/><stop offset="0.71" stop-color="#5b5d60"/><stop offset="1" stop-color="#5b5d60"/></linearGradient><clipPath id="clip-path-10"><path class="cls-25" d="M110.51,197.39V277h75V231.73a42.78,42.78,0,0,1-34.35-34.34Z"/></clipPath><mask id="mask-10" x="110.51" y="197.39" width="74.95" height="79.65" maskUnits="userSpaceOnUse"><rect class="cls-24" x="110.51" y="197.39" width="74.95" height="79.65"/></mask><linearGradient id="linear-gradient-30" x1="2230.06" y1="157.49" x2="2231.06" y2="157.49" gradientTransform="matrix(-137.4, 0, 0, 137.4, 306616.96, -21402.75)" gradientUnits="userSpaceOnUse"><stop offset="0" stop-color="#6d6e70"/><stop offset="0.13" stop-color="#6d6e70"/><stop offset="0.45" stop-color="#6a6b6d"/><stop offset="0.72" stop-color="#5f6164"/><stop offset="0.79" stop-color="#5b5d60"/><stop offset="1" stop-color="#5b5d60"/></linearGradient><clipPath id="clip-path-11"><rect class="cls-25" x="110.51" y="277.03" width="74.96" height="70.27"/></clipPath><mask id="mask-11" x="110.51" y="277.03" width="74.95" height="70.27" maskUnits="userSpaceOnUse"><rect class="cls-3" x="110.51" y="277.03" width="74.95" height="70.27"/></mask><linearGradient id="linear-gradient-31" x1="2209.42" y1="174.18" x2="2210.42" y2="174.18" gradientTransform="matrix(0, -116.46, -116.46, 0, 20432.63, 257668.67)" gradientUnits="userSpaceOnUse"><stop offset="0" stop-color="#6d6e70"/><stop offset="0.13" stop-color="#6d6e70"/><stop offset="0.48" stop-color="#6a6b6d"/><stop offset="0.79" stop-color="#5f6164"/><stop offset="0.86" stop-color="#5b5d60"/><stop offset="1" stop-color="#5b5d60"/></linearGradient><clipPath id="clip-path-12"><rect class="cls-25" x="35.55" y="277.03" width="74.96" height="70.27"/></clipPath><mask id="mask-12" x="35.55" y="277.03" width="74.96" height="70.27" maskUnits="userSpaceOnUse"><rect class="cls-4" x="35.55" y="277.03" width="74.96" height="70.27"/></mask><linearGradient id="linear-gradient-32" x1="2188.85" y1="149.65" x2="2189.85" y2="149.65" gradientTransform="matrix(95.13, 0, 0, -95.13, -208192.6, 14548.79)" gradientUnits="userSpaceOnUse"><stop offset="0" stop-color="#6d6e70"/><stop offset="0.13" stop-color="#6d6e70"/><stop offset="0.54" stop-color="#6a6b6d"/><stop offset="0.89" stop-color="#5f6164"/><stop offset="0.98" stop-color="#5b5d60"/><stop offset="1" stop-color="#5b5d60"/></linearGradient><clipPath id="clip-path-13"><rect class="cls-25" x="275.84" y="197.39" width="74.96" height="78.94"/></clipPath><mask id="mask-13" x="275.84" y="197.39" width="74.95" height="78.94" maskUnits="userSpaceOnUse"><rect class="cls-5" x="275.84" y="197.39" width="74.95" height="78.94"/></mask><linearGradient id="linear-gradient-33" x1="2229.93" y1="157.48" x2="2230.93" y2="157.48" gradientTransform="matrix(-138.51, 0, 0, 138.51, 309210.49, -21575.22)" gradientUnits="userSpaceOnUse"><stop offset="0" stop-color="#222223"/><stop offset="0.41" stop-color="#222223"/><stop offset="0.98" stop-color="#5b5d60"/><stop offset="1" stop-color="#5b5d60"/></linearGradient><clipPath id="clip-path-14"><path class="cls-25" d="M235.25,197.39c-3.2,18.38-16.85,32.78-34.3,36.17v42.78H275.9l-.06-78.95Z"/></clipPath><mask id="mask-14" x="200.95" y="197.39" width="74.96" height="78.95" maskUnits="userSpaceOnUse"><rect class="cls-6" x="200.95" y="197.39" width="74.96" height="78.95"/></mask><linearGradient id="linear-gradient-34" x1="2216.1" y1="139.01" x2="2217.15" y2="139.01" gradientTransform="matrix(0, 151.64, 151.64, 0, -20840.86, -335878.96)" gradientUnits="userSpaceOnUse"><stop offset="0" stop-color="#222223"/><stop offset="0.34" stop-color="#222223"/><stop offset="0.52" stop-color="#252526"/><stop offset="0.67" stop-color="#2f3031"/><stop offset="0.82" stop-color="#404143"/><stop offset="0.96" stop-color="#57595c"/><stop offset="0.98" stop-color="#5b5d60"/><stop offset="1" stop-color="#5b5d60"/></linearGradient><clipPath id="clip-path-15"><rect class="cls-25" x="200.88" y="276.33" width="74.95" height="70.98"/></clipPath><mask id="mask-15" x="200.88" y="276.33" width="74.96" height="70.98" maskUnits="userSpaceOnUse"><rect class="cls-7" x="200.88" y="276.33" width="74.95" height="70.98"/></mask><linearGradient id="linear-gradient-35" x1="2191.09" y1="150.06" x2="2192.09" y2="150.06" gradientTransform="matrix(104.75, 0, 0, -104.75, -229324.04, 16031.06)" gradientUnits="userSpaceOnUse"><stop offset="0" stop-color="#222223"/><stop offset="0.36" stop-color="#222223"/><stop offset="0.53" stop-color="#252526"/><stop offset="0.68" stop-color="#2f3031"/><stop offset="0.82" stop-color="#404143"/><stop offset="0.96" stop-color="#57595c"/><stop offset="0.98" stop-color="#5b5d60"/><stop offset="1" stop-color="#5b5d60"/></linearGradient><clipPath id="clip-path-16"><rect class="cls-25" x="275.84" y="276.33" width="74.96" height="70.98"/></clipPath><mask id="mask-16" x="275.84" y="276.33" width="74.96" height="70.98" maskUnits="userSpaceOnUse"><rect class="cls-8" x="275.84" y="276.33" width="74.96" height="70.98"/></mask><linearGradient id="linear-gradient-36" x1="2209.11" y1="175.79" x2="2210.06" y2="175.79" gradientTransform="matrix(0, -107.72, -107.72, 0, 19249.45, 238310.89)" gradientUnits="userSpaceOnUse"><stop offset="0" stop-color="#222223"/><stop offset="0.37" stop-color="#222223"/><stop offset="0.54" stop-color="#252526"/><stop offset="0.69" stop-color="#2f3031"/><stop offset="0.82" stop-color="#404143"/><stop offset="0.96" stop-color="#57595c"/><stop offset="0.98" stop-color="#5b5d60"/><stop offset="1" stop-color="#5b5d60"/></linearGradient><clipPath id="clip-path-17"><path class="cls-25" d="M158.6,190.5a36.21,36.21,0,1,0,36.2-36.2,36.2,36.2,0,0,0-36.2,36.2"/></clipPath><mask id="mask-17" x="158.6" y="154.3" width="72.41" height="72.41" maskUnits="userSpaceOnUse"><rect class="cls-9" x="158.6" y="154.3" width="72.41" height="72.41"/></mask><radialGradient id="radial-gradient-5" cx="2163.15" cy="144.76" r="1" gradientTransform="matrix(46.28, 0, 0, -46.28, -99922.55, 6890.61)" gradientUnits="userSpaceOnUse"><stop offset="0" stop-color="#939598"/><stop offset="0.57" stop-color="#939598"/><stop offset="0.6" stop-color="#adaeb0"/><stop offset="0.64" stop-color="#d2d2d3"/><stop offset="0.67" stop-color="#e9e9e9"/><stop offset="0.69" stop-color="#f1f1f1"/><stop offset="0.77" stop-color="#fcfcfc"/><stop offset="0.87" stop-color="#fff"/><stop offset="1" stop-color="#fff"/></radialGradient><clipPath id="clip-path-18"><path class="cls-25" d="M149.68,189.68a43.49,43.49,0,1,0,43.49-43.49,43.49,43.49,0,0,0-43.49,43.49"/></clipPath><mask id="mask-18" x="149.68" y="146.19" width="86.98" height="86.98" maskUnits="userSpaceOnUse"><rect class="cls-10" x="149.68" y="146.19" width="86.98" height="86.98"/></mask><radialGradient id="radial-gradient-6" cx="2185.29" cy="148.98" r="1" gradientTransform="matrix(83.01, 0, 0, -83.01, -181206.16, 12556.04)" gradientUnits="userSpaceOnUse"><stop offset="0" stop-color="#ededed"/><stop offset="0.11" stop-color="#ededed"/><stop offset="0.51" stop-color="#f1f1f1"/><stop offset="0.54" stop-color="#e6e6e6"/><stop offset="0.62" stop-color="#d4d4d4"/><stop offset="0.7" stop-color="#c9c9c9"/><stop offset="0.8" stop-color="#c6c6c6"/><stop offset="1" stop-color="#c6c6c6"/></radialGradient><clipPath id="clip-path-19"><path class="cls-25" d="M193.17,158a31.74,31.74,0,1,1-31.73,31.73A31.74,31.74,0,0,1,193.17,158"/></clipPath><mask id="mask-19" x="161.44" y="157.95" width="63.47" height="63.47" maskUnits="userSpaceOnUse"><rect class="cls-11" x="161.44" y="157.95" width="63.47" height="63.47"/></mask><radialGradient id="radial-gradient-7" cx="2156.11" cy="143.43" r="1" gradientTransform="matrix(40.58, 0, 0, -40.58, -87305.23, 6010.11)" gradientUnits="userSpaceOnUse"><stop offset="0" stop-color="#6d6e70"/><stop offset="0.52" stop-color="#939598"/><stop offset="0.55" stop-color="#a5a6a8"/><stop offset="0.59" stop-color="#c6c6c6"/><stop offset="1" stop-color="#c6c6c6"/></radialGradient><clipPath id="clip-path-20"><path class="cls-25" d="M171.71,189.68a21.46,21.46,0,1,0,21.46-21.46,21.46,21.46,0,0,0-21.46,21.46"/></clipPath><mask id="mask-20" x="171.71" y="168.22" width="42.92" height="42.92" maskUnits="userSpaceOnUse"><rect class="cls-12" x="171.71" y="168.22" width="42.92" height="42.92"/></mask><radialGradient id="radial-gradient-8" cx="2155.37" cy="143.28" r="1" gradientTransform="matrix(40.06, 0, 0, -40.06, -86148.19, 5929.45)" gradientUnits="userSpaceOnUse"><stop offset="0" stop-color="#ededed"/><stop offset="0.11" stop-color="#ededed"/><stop offset="0.52" stop-color="#ededed"/><stop offset="0.81" stop-color="#6d6e70"/><stop offset="1" stop-color="#6d6e70"/></radialGradient><clipPath id="clip-path-21"><polygon class="cls-25" points="167.94 25.23 186.6 25.23 186.6 25.19 191.1 25.19 191.1 25.18 193.17 25.18 193.17 0 167.94 25.23"/></clipPath><mask id="mask-21" x="167.94" y="0" width="25.23" height="25.22" maskUnits="userSpaceOnUse"><rect class="cls-14" x="167.94" width="25.23" height="25.22"/></mask><linearGradient id="linear-gradient-37" x1="2162.24" y1="144.59" x2="2163.24" y2="144.59" gradientTransform="matrix(45.46, 0, 0, -45.46, -98130.42, 6585.43)" gradientUnits="userSpaceOnUse"><stop offset="0" stop-color="#939598"/><stop offset="0.59" stop-color="#939598"/><stop offset="0.63" stop-color="#909295"/><stop offset="0.67" stop-color="#86878a"/><stop offset="0.7" stop-color="#757678"/><stop offset="0.74" stop-color="#5e5d5f"/><stop offset="0.77" stop-color="#403e3f"/><stop offset="0.8" stop-color="#231f20"/><stop offset="1" stop-color="#231f20"/></linearGradient><clipPath id="clip-path-22"><polygon class="cls-25" points="361.13 183.1 361.16 183.1 361.16 187.61 361.17 187.61 361.17 189.68 386.35 189.68 361.13 164.45 361.13 183.1"/></clipPath><mask id="mask-22" x="361.13" y="164.45" width="25.22" height="25.23" maskUnits="userSpaceOnUse"><rect class="cls-15" x="361.13" y="164.45" width="25.22" height="25.23"/></mask><linearGradient id="linear-gradient-38" x1="2221.99" y1="108.1" x2="2222.99" y2="108.1" gradientTransform="matrix(0, 50.16, 50.16, 0, -5048.95, -111301.93)" gradientUnits="userSpaceOnUse"><stop offset="0" stop-color="#939598"/><stop offset="0.28" stop-color="#939598"/><stop offset="0.4" stop-color="#909295"/><stop offset="0.5" stop-color="#86878a"/><stop offset="0.6" stop-color="#757678"/><stop offset="0.69" stop-color="#5e5d5f"/><stop offset="0.78" stop-color="#403e3f"/><stop offset="0.85" stop-color="#231f20"/><stop offset="1" stop-color="#231f20"/></linearGradient><clipPath id="clip-path-23"><polygon class="cls-25" points="199.17 354.14 199.17 354.17 195.25 354.17 195.25 354.18 193.17 354.18 193.17 379.37 218.4 354.14 199.17 354.14"/></clipPath><mask id="mask-23" x="193.17" y="354.14" width="25.23" height="25.23" maskUnits="userSpaceOnUse"><rect class="cls-16" x="193.17" y="354.14" width="25.23" height="25.23"/></mask><linearGradient id="linear-gradient-39" x1="2266.31" y1="164.39" x2="2267.31" y2="164.39" gradientTransform="matrix(-43.62, 0, 0, 43.62, 99075.54, -6803.85)" xlink:href="#linear-gradient-38"/><clipPath id="clip-path-24"><polygon class="cls-25" points="25.19 191.76 25.18 191.76 25.18 189.7 0.03 189.7 25.23 214.92 25.23 195.68 25.19 195.68 25.19 191.76"/></clipPath><mask id="mask-24" x="0.02" y="189.7" width="25.2" height="25.22" maskUnits="userSpaceOnUse"><rect class="cls-17" x="0.02" y="189.7" width="25.2" height="25.22"/></mask><linearGradient id="linear-gradient-40" x1="2204.44" y1="200.33" x2="2205.44" y2="200.33" gradientTransform="matrix(0, -50.31, -50.31, 0, 10091.46, 111123.6)" xlink:href="#linear-gradient-38"/></defs><g id="Layer_2" data-name="Layer 2"><g id="Layer_1-2" data-name="Layer 1"><polygon class="cls-26" points="374.73 189.07 373.53 189.07 373.75 189.68 373.53 190.29 374.73 190.29 374.73 189.07"/><rect class="cls-27" x="192.56" y="189.07" width="1.23" height="1.23"/><g class="cls-28"><g class="cls-29"><g class="cls-30"><rect class="cls-31" x="35.4" y="32.5" width="74.95" height="74.96"/></g></g></g><g class="cls-28"><g class="cls-32"><g class="cls-33"><rect class="cls-34" x="110.36" y="32.5" width="74.96" height="74.96"/></g></g></g><g class="cls-28"><g class="cls-35"><g class="cls-36"><rect class="cls-37" x="35.4" y="107.47" width="74.96" height="74.95"/></g></g></g><g class="cls-28"><g class="cls-38"><g class="cls-39"><rect class="cls-40" x="110.36" y="107.47" width="74.96" height="74.96"/></g></g></g><g class="cls-41"><g class="cls-42"><rect class="cls-43" x="275.84" y="32.06" width="74.96" height="74.95"/></g></g><g class="cls-44"><g class="cls-45"><rect class="cls-46" x="200.88" y="32.06" width="74.95" height="74.96"/></g></g><g class="cls-47"><g class="cls-48"><rect class="cls-49" x="275.84" y="107.02" width="74.96" height="74.96"/></g></g><g class="cls-50"><g class="cls-51"><rect class="cls-52" x="200.88" y="107.01" width="74.92" height="74.96"/></g></g><g class="cls-28"><g class="cls-53"><g class="cls-54"><rect class="cls-55" x="35.55" y="197.39" width="74.95" height="79.64"/></g></g></g><g class="cls-28"><g class="cls-56"><g class="cls-57"><rect class="cls-58" x="110.51" y="197.39" width="74.95" height="79.65"/></g></g></g><g class="cls-28"><g class="cls-59"><g class="cls-60"><rect class="cls-61" x="110.51" y="277.03" width="74.95" height="70.27"/></g></g></g><g class="cls-28"><g class="cls-62"><g class="cls-63"><rect class="cls-64" x="35.55" y="277.03" width="74.96" height="70.27"/></g></g></g><g class="cls-65"><g class="cls-66"><rect class="cls-67" x="275.84" y="197.39" width="74.95" height="78.94"/></g></g><g class="cls-68"><g class="cls-69"><rect class="cls-70" x="200.95" y="197.39" width="74.96" height="78.95"/></g></g><g class="cls-71"><g class="cls-72"><rect class="cls-73" x="200.88" y="276.33" width="74.95" height="70.98"/></g></g><g class="cls-74"><g class="cls-75"><rect class="cls-76" x="275.84" y="276.33" width="74.96" height="70.98"/></g></g><g class="cls-77"><g class="cls-78"><rect class="cls-79" x="158.6" y="154.3" width="72.41" height="72.41"/></g></g><g class="cls-80"><g class="cls-81"><rect class="cls-82" x="149.68" y="146.19" width="86.98" height="86.98"/></g></g><g class="cls-83"><g class="cls-84"><rect class="cls-85" x="161.44" y="157.95" width="63.47" height="63.47"/></g></g><g class="cls-86"><g class="cls-87"><rect class="cls-88" x="171.71" y="168.22" width="42.92" height="42.92"/></g></g><g class="cls-89"><g class="cls-90"><rect class="cls-91" x="167.94" width="25.23" height="25.22"/></g></g><polygon class="cls-92" points="218.4 25.23 193.17 0 193.17 25.18 195.25 25.18 195.25 25.19 199.17 25.19 199.17 25.23 218.4 25.23"/><polygon class="cls-92" points="361.17 191.76 361.16 191.76 361.16 195.68 361.13 195.68 361.13 214.92 386.35 189.68 361.17 189.68 361.17 191.76"/><g class="cls-93"><g class="cls-94"><rect class="cls-95" x="361.13" y="164.45" width="25.22" height="25.23"/></g></g><polygon class="cls-92" points="191.1 354.18 191.1 354.17 186.59 354.17 186.59 354.14 167.94 354.14 193.17 379.37 193.17 354.18 191.1 354.18"/><g class="cls-96"><g class="cls-97"><rect class="cls-98" x="193.17" y="354.14" width="25.23" height="25.23"/></g></g><polygon class="cls-92" points="25.18 187.61 25.19 187.61 25.19 183.1 25.23 183.1 25.23 164.45 0 189.68 0.03 189.7 25.18 189.7 25.18 187.61"/><g class="cls-99"><g class="cls-100"><rect class="cls-101" x="0.02" y="189.7" width="25.2" height="25.22"/></g></g><path class="cls-102" d="M363.24,352.52c-2.11-.73-7.83-2.3-7.83-2.3l6.8-21.25-10,1.12s-4.42,14.88-5.73,21.85a3.82,3.82,0,0,0,2.33,4.64c4,1.4,14.53,2.87,21.49,3.75l.94-4.8c-3.33-1.27-6.89-2.62-8-3"/><path class="cls-102" d="M377.8,358l-6.57-2.52-.94,4.8c3.8.48,6.57.77,6.57.77Z"/><path class="cls-103" d="M367,346.36c-1.42.94-5,3.95-5,3.95s6.57-16.2,6.72-16.9c1.17-5.26-2.48-7.23-2.48-7.23L356,329.1s-2.06,22.61-1.88,24.5-.42,6.28,4.4,6.62c3.46.25,14.2-10,20-15.7l-3.43-3.2c-3,1.88-6.79,4.14-8.07,5"/><path class="cls-103" d="M382.21,340.75l-2.82-2-4.31,2.6,3.43,3.19c2.25-2.23,3.76-3.8,3.76-3.8"/><path class="cls-104" d="M378.34,339c-.11-.27,3.33-4,3.83-3.84s8.7,10.11,8.6,11.15c0,.55-1.64,1.28-1.88,1.12a30.19,30.19,0,0,0-8.45-4.19s-.44-1.28.18-1.58l.32-.06a2.4,2.4,0,0,0-.46-1.65c-.54-.57-1.81-.27-2.11-.94"/><path class="cls-104" d="M375.26,356.7c.15-.26,5.22.23,5.36.74s-2.81,13-3.75,13.59c-.47.28-2-.55-2-.82a29.61,29.61,0,0,0-1.78-9.3s.76-1.12,1.38-.81l.25.21a2.4,2.4,0,0,0,1-1.36c.12-.77-.88-1.6-.52-2.25"/><path class="cls-105" d="M330.24,265.34l-.94-2.77a36.81,36.81,0,0,0,1.08-4.16,14.07,14.07,0,0,0-3-2.6c-.36,0-1.26,1.06-1.09,1.4s-.85,1.83-.77,2.3a5.81,5.81,0,0,0,.83,1.43,12.33,12.33,0,0,0-.63,2.53,22.19,22.19,0,0,0,1.64,3.61l3.23-1.07Z"/><path class="cls-105" d="M326.37,258.77a.57.57,0,0,1-.66.51.57.57,0,0,1-.51-.51v-1.13a.6.6,0,0,1,.48-.68.61.61,0,0,1,.69.48v.06a.33.33,0,0,1,0,.14Z"/><path class="cls-105" d="M385.13,270.31l1.63-2.4a39.43,39.43,0,0,1,.15-4.34,14,14,0,0,1,3.58-1.66c.35.1.94,1.37.67,1.64s.3,2,.08,2.42a5.64,5.64,0,0,1-1.19,1.15,12,12,0,0,1-.1,2.61,21.72,21.72,0,0,1-2.58,3l-2.81-1.92Z"/><path class="cls-105" d="M390.68,265.08a.59.59,0,0,0,.4.73.58.58,0,0,0,.72-.4l.31-1.09a.56.56,0,0,0-.37-.71h0a.59.59,0,0,0-.72.4h0Z"/><path class="cls-92" d="M331.32,264.86,326.17,267s5.22,12.65,7.05,16.41c1.87,4,9.23,17.37,9.23,17.37l5.08,31.43s13.38,2.3,24-4.75c0,0-4.75-11.65-5-13.62s-1-13.64-1-13.64,11.65-11.74,13-13.15,10-13.81,10-13.81L385.06,269l-12.88,13.68s-12.8,8.57-13.45,8.7-8.06.8-8.06.8-10-10.07-11.26-12.57-8.09-14.74-8.09-14.74"/><path class="cls-106" d="M357,293.1s-2.23,1.88-5.72,0l.51-6.17h4.69Z"/><path class="cls-107" d="M349.16,282.45s-.43-3.48.79-5.55c1.54-2.61,5.63-3.59,8.8-.82,2.25,1.95.65,7.27.65,7.27L352.6,280Z"/><path class="cls-106" d="M350.1,281.89a.75.75,0,0,0-1,.17h0c-.49.58-.31,2.87.82,2.93s.23-3.1.23-3.1"/><path class="cls-106" d="M358.86,282.38a.77.77,0,0,1,1,.28c.42.64,0,2.89-1.14,2.81s.11-3.11.11-3.11"/><path class="cls-108" d="M359.08,281.76a4.28,4.28,0,0,0-4.09-4.47h-.27a4.31,4.31,0,0,0-4.85,4s-.38,3.24-.38,3.4c-.14,2.43,2.65,5.63,4.5,5.77,2.12.11,5-3.4,5.11-5.24v-3.42"/><path class="cls-107" d="M358.61,272.15a3.28,3.28,0,0,1-3.05,3.51h-.41c-2,0-2.89-1.51-2.82-3.71s1.15-3.84,3.16-3.75,3.2,1.78,3.15,4"/><rect class="cls-25" x="316.51" y="248.09" width="75.63" height="122.99"/><path class="cls-104" d="M349.61,40l13.53,3A9.44,9.44,0,0,1,370,49.24l2.53,7.65a7.13,7.13,0,0,1-6.79,9.35H333.08a6.91,6.91,0,0,1-6.91-6.91,7.05,7.05,0,0,1,.35-2.18l2.63-7.91A9.4,9.4,0,0,1,336,43l13.59-3"/><path class="cls-109" d="M357.32,27.85c-.32,1.9.22,3.57,1.21,3.73s2-1.21,2.31-3.16-.22-3.57-1.21-3.73-2,1.21-2.31,3.16"/><path class="cls-109" d="M341.89,27.85c.31,1.9-.23,3.57-1.21,3.73s-2-1.21-2.31-3.16.23-3.57,1.21-3.73,2,1.21,2.31,3.16"/><path class="cls-110" d="M344.29,40.83c0,6,10.62,6,10.62,0V33.24H344.33Z"/><path class="cls-109" d="M359.28,24.64c0-6.67-4.33-10.89-9.69-10.89s-9.68,4.17-9.68,10.89c0,.31.63,6.15.68,6.44.61,4.22,6,8.48,9,8.48s8.37-4,9-8.11c0-.39.72-6.35.72-6.76"/><path class="cls-111" d="M349.58,13.8c-5.34,0-9.69,4.17-9.69,10.89,0,.31.63,6.15.68,6.44.62,4.22,6,8.48,9,8.48s8.36-4,9-8.11c0-.39.7-6.35.7-6.76,0-6.67-4.32-10.9-9.69-10.9M347,35.29a2.83,2.83,0,0,1,2.76-2.79h.33a2.82,2.82,0,0,1,2.82,2.82c0,3-5.95,3-5.95,0m9.25-3.67-2.06,2.43-.64-1.36a2.71,2.71,0,0,0-2.42-1.48h-2.42a2.7,2.7,0,0,0-2.46,1.42l-.71,1.42-2.21-2.43a6.94,6.94,0,0,1-1.81-4.16L341.1,22a2.9,2.9,0,0,1,2.67-3.1,3.05,3.05,0,0,1,1.49.28l1.47.71a6.77,6.77,0,0,0,5.8,0l1.53-.74a2.91,2.91,0,0,1,3.9,1.28h0a2.86,2.86,0,0,1,.3,1.62l-.41,5.68a6.87,6.87,0,0,1-1.6,3.92"/><path class="cls-111" d="M359.44,22.24a1.65,1.65,0,0,0,.68-2.23h0a1.69,1.69,0,0,0-1-.81,1.67,1.67,0,0,0-.06-2.35,1.73,1.73,0,0,0-1.28-.45,1.65,1.65,0,0,0-.38-1.84,1.72,1.72,0,0,0-1.86-.29,1.66,1.66,0,0,0-1-1.56,1.68,1.68,0,0,0-1.8.3,1.66,1.66,0,0,0-1.37-1.21,1.72,1.72,0,0,0-1.65.78,1.65,1.65,0,0,0-3,.42,1.66,1.66,0,0,0-2.8,1.21,1.66,1.66,0,0,0-2.24,2.13,1.66,1.66,0,0,0-1.78,1.53,1.63,1.63,0,0,0,.46,1.28,1.66,1.66,0,0,0-1.05,2.09h0a1.6,1.6,0,0,0,.83,1,1.39,1.39,0,0,0-.27.21,1.65,1.65,0,0,0,0,2.33,1.53,1.53,0,0,0,1,.48,15.73,15.73,0,0,1-.06-3.22,5,5,0,0,1,1.13-3,.63.63,0,0,1,.74-.09.33.33,0,0,1,.24,0l.13-.23a1.62,1.62,0,0,0,0-1.33,1.66,1.66,0,0,0,1.78-1.54v-.17a1.65,1.65,0,0,0,2.2-.77,1.08,1.08,0,0,0,.1-.27,1.66,1.66,0,0,0,2.35,0,1.58,1.58,0,0,0,.22-.29,1.66,1.66,0,0,0,2.28.57h0a1.21,1.21,0,0,0,.26-.2,1.66,1.66,0,0,0,2,1.15l.27-.11a1.69,1.69,0,0,0,.57,1.29,1.59,1.59,0,0,0,1.21.43,1.68,1.68,0,0,0,0,1.21.72.72,0,0,1,.72.12,4.77,4.77,0,0,1,1.5,3.64v.25a9.36,9.36,0,0,1,.23,2.53A1.72,1.72,0,0,0,360,23.11a1.79,1.79,0,0,0-.42-.76l-.25-.2"/><path class="cls-112" d="M335.14,68.12a5.06,5.06,0,0,1-2.52-.65l-4.26-2.36A5.21,5.21,0,1,1,333.42,56l4.26,2.42a5.21,5.21,0,0,1-2.54,9.76"/><path class="cls-110" d="M339.38,62.88h-.33a1.7,1.7,0,0,1-1.33-2l.69-3.56a1.7,1.7,0,0,1,3.33.64l-.69,3.56a1.69,1.69,0,0,1-1.66,1.37"/><path class="cls-112" d="M363.78,68.12a5.21,5.21,0,0,1-2.55-9.76l4.27-2.42a5.21,5.21,0,0,1,5,9.11l-4.25,2.36a5.1,5.1,0,0,1-2.53.65"/><path class="cls-110" d="M359.51,62.88a1.67,1.67,0,0,1-1.66-1.37L357.16,58a1.7,1.7,0,0,1,3.33-.64l.69,3.56a1.7,1.7,0,0,1-1.34,2h0a.91.91,0,0,1-.33,0"/><path class="cls-113" d="M345.83,65.76A3.78,3.78,0,1,0,349.61,62a3.78,3.78,0,0,0-3.78,3.78"/><path class="cls-113" d="M349.61,81.8a16,16,0,1,1,16-16,16,16,0,0,1-16,16m0-29.24a13.2,13.2,0,1,0,13.18,13.22h0a13.22,13.22,0,0,0-13.18-13.2"/><rect class="cls-25" x="325.15" y="5.59" width="67.99" height="80"/><polygon class="cls-113" points="361.98 71.05 348.02 67.69 349.3 63.63 362.67 68.84 361.98 71.05"/><polygon class="cls-113" points="334.59 68.84 347.98 63.63 349.25 67.69 335.28 71.05 334.59 68.84"/><path class="cls-109" d="M335.14,66.24a1.15,1.15,0,0,1-.37,0l-4.62-1.44a1.27,1.27,0,0,1,.77-2.42l4.65,1.38a1.29,1.29,0,0,1,.56,1.71,1.26,1.26,0,0,1-.9.67"/><path class="cls-109" d="M336,63.91a1,1,0,0,1-.42-.07l-4.61-1.55a1.29,1.29,0,0,1-.8-1.61,1.22,1.22,0,0,1,1.5-.84h.11l4.62,1.55a1.29,1.29,0,0,1,.82,1.6,1.27,1.27,0,0,1-1.22.88"/><path class="cls-109" d="M336.78,61.55a1.34,1.34,0,0,1-.4,0L331.77,60a1.27,1.27,0,1,1,.8-2.42h0l4.65,1.56a1.27,1.27,0,0,1-.41,2.47"/><path class="cls-109" d="M337.56,59.17l-.41-.06-4.61-1.57a1.26,1.26,0,0,1-.81-1.6h0a1.3,1.3,0,0,1,1.62-.81L338,56.7a1.24,1.24,0,0,1,.9,1.49,1.22,1.22,0,0,1-1.3.93"/><path class="cls-109" d="M361.9,66.24a1.22,1.22,0,1,1-.38-2.42l4.62-1.44a1.25,1.25,0,0,1,1.57.81v0a1.27,1.27,0,0,1-.83,1.59l-4.6,1.44a1.27,1.27,0,0,1-.39,0"/><path class="cls-109" d="M361.09,63.91a1.27,1.27,0,0,1-.4-2.48l4.61-1.55a1.28,1.28,0,0,1,1,2.36.6.6,0,0,1-.19.06l-4.61,1.55a1,1,0,0,1-.41.07"/><path class="cls-109" d="M360.29,61.55a1.26,1.26,0,0,1-1.21-.86,1.21,1.21,0,0,1,.68-1.57h.12l4.61-1.56a1.28,1.28,0,0,1,1,2.36.6.6,0,0,1-.19.06l-4.61,1.56a1.41,1.41,0,0,1-.41,0"/><path class="cls-109" d="M359.49,59.17a1.28,1.28,0,0,1-.53-2.44h.11l4.61-1.57a1.28,1.28,0,1,1,.81,2.43l-4.6,1.56a1.93,1.93,0,0,1-.41.06"/><rect class="cls-25" x="325.15" y="5.59" width="67.05" height="80"/><text class="cls-114" transform="translate(83.29 108.84)">ANA<tspan class="cls-115" x="22.65" y="0">L</tspan><tspan class="cls-116" x="26.05" y="0">Y</tspan><tspan x="32.53" y="0">SER</tspan></text><text class="cls-114" transform="translate(86.91 276.34)">AMIABLE</text><text class="cls-117" transform="translate(261.24 108.84)">DRIVER</text><text class="cls-117" transform="translate(249.58 276.34)">EXPRE<tspan class="cls-118" x="30.81" y="0">S</tspan><tspan class="cls-119" x="37.05" y="0">SIVE</tspan></text><rect class="cls-26" x="94.41" y="185.95" width="198.36" height="8.58"/><text class="cls-120" transform="translate(140.99 194.2)">A<tspan class="cls-121" x="9.75" y="0">S</tspan><tspan class="cls-122" x="18.19" y="0">SE</tspan><tspan class="cls-123" x="34.34" y="0">R</tspan><tspan class="cls-124" x="42.62" y="0">T</tspan><tspan class="cls-122" x="51.16" y="0">IVE</tspan><tspan class="cls-125" x="73.05" y="0">N</tspan><tspan x="82.8" y="0">E</tspan><tspan class="cls-121" x="90.55" y="0">S</tspan><tspan class="cls-119" x="99" y="0">S</tspan></text><rect class="cls-26" x="188.72" y="194.53" width="9.37" height="91.06"/><text class="cls-126" transform="translate(189.79 202.78)">V</text><text class="cls-126" transform="translate(189.62 213.78)">N</text><text class="cls-126" transform="translate(190.62 224.78)">E</text><text class="cls-126" transform="translate(190.3 235.78)">S</text><text class="cls-126" transform="translate(190.3 246.78)">S</text><rect class="cls-26" x="188.91" y="110.31" width="9.37" height="75.64"/><text class="cls-126" transform="translate(190.39 118.56)">R</text><text class="cls-126" transform="translate(190.82 129.56)">E</text><text class="cls-126" transform="translate(190.5 140.56)">S</text><text class="cls-126" transform="translate(190.41 151.56)">P</text><text class="cls-126" transform="translate(189.27 162.56)">O</text><text class="cls-126" transform="translate(189.82 173.56)">N</text><text class="cls-126" transform="translate(190.5 184.56)">S</text></g></g></svg>