<svg xmlns="http://www.w3.org/2000/svg" viewBox="0 0 57.64 57.6"><defs><style>.cls-1{fill:#fff;}.cls-2{fill:#d41f44;}</style></defs><g id="Layer_2" data-name="Layer 2"><g id="Layer_1-2" data-name="Layer 1"><rect class="cls-1" x="29.51" y="25.87" width="0.03" height="0.03" transform="translate(-9.66 28.43) rotate(-44.96)"/><rect class="cls-1" x="28.93" y="25.87" width="0.03" height="0.03" transform="translate(-9.83 28.02) rotate(-44.96)"/><path class="cls-2" d="M28.79,0A28.86,28.86,0,0,0,.08,26.29c0,.34-.06.67-.08,1V28.8a28.82,28.82,0,0,0,57.49,2.9c0-.34.06-.67.08-1,0-.62.07-1.25.07-1.89A28.85,28.85,0,0,0,28.79,0"/><path class="cls-1" d="M32.14,24.85a2.3,2.3,0,0,0-3.24,0l-.13.13-.13-.13a2.29,2.29,0,0,0-3.23,3.24l.13.13,3.25,3.23L32,28.22l.13-.13a2.29,2.29,0,0,0,0-3.24"/><rect class="cls-1" x="29.59" y="27.04" width="0.03" height="0.03" transform="translate(-7.84 41.41) rotate(-63.4)"/><rect class="cls-1" x="28.95" y="27.04" width="0.03" height="0.03" transform="translate(-8.19 40.84) rotate(-63.4)"/><path class="cls-1" d="M48.17,27a19.24,19.24,0,0,1-4,11.8l.88.69a20.47,20.47,0,0,0,0-25l-.87.7a19.24,19.24,0,0,1,4,11.81"/><path class="cls-1" d="M9.37,27a19.35,19.35,0,0,1,4-11.8l-.86-.7a20.47,20.47,0,0,0,0,25l.86-.69A19.28,19.28,0,0,1,9.37,27"/><path class="cls-1" d="M44.48,27a15.53,15.53,0,0,1-3.23,9.49l.88.7a16.8,16.8,0,0,0,0-20.4l-.88.7A15.58,15.58,0,0,1,44.48,27"/><path class="cls-1" d="M13.06,27a15.64,15.64,0,0,1,3.22-9.51l-.88-.7a16.83,16.83,0,0,0,0,20.4l.88-.7A15.58,15.58,0,0,1,13.06,27"/><path class="cls-1" d="M16.75,27a12,12,0,0,1,2.42-7.21l-.87-.69A13.05,13.05,0,0,0,18.3,35l.87-.7A11.9,11.9,0,0,1,16.75,27"/><path class="cls-1" d="M40.79,27a11.89,11.89,0,0,1-2.42,7.19l.86.7a13,13,0,0,0,0-15.84l-.86.69A12,12,0,0,1,40.79,27"/><path class="cls-1" d="M25.71,22.05a3.41,3.41,0,0,0-2.29.85,3.56,3.56,0,0,0-.36,5l.18.2,5.55,5.5,5.5-5.5a3.56,3.56,0,0,0-5-5l-.49.5-.4-.4a3.76,3.76,0,0,0-2.66-1.13m3.08,12.66-.31-.28-5.79-5.79a4.27,4.27,0,0,1-1.27-3.07,4.34,4.34,0,0,1,1.49-3.27,4.41,4.41,0,0,1,5.86.15,4.39,4.39,0,0,1,4.63-.92,3.78,3.78,0,0,1,1.35.87,4.66,4.66,0,0,1,1.35,2.68,4.33,4.33,0,0,1-1.25,3.56l-.22.22Z"/><rect class="cls-1" x="28.38" y="33.61" width="0.79" height="12.4"/></g></g></svg>