<svg xmlns="http://www.w3.org/2000/svg" viewBox="0 0 57.57 57.04"><defs><style>.cls-1{fill:#fff;}.cls-2{fill:#6d6e70;}</style></defs><g id="Layer_2" data-name="Layer 2"><g id="Layer_1-2" data-name="Layer 1"><polygon class="cls-1" points="29.54 39.29 29.54 39.17 29.36 39.1 29.54 39.29"/><polygon class="cls-1" points="17.12 28.55 17.13 28.56 17.13 28.55 17.12 28.55"/><path class="cls-1" d="M17.73,29.18l-.37-.37Z"/><path class="cls-2" d="M28.79,0A28.85,28.85,0,0,0,.08,26.29c0,.34-.06.67-.08,1V28.8a28.82,28.82,0,0,0,57.42,2.91,4.06,4.06,0,0,1,.08-1c0-.62.07-1.25.07-1.89A28.85,28.85,0,0,0,28.79,0"/><path class="cls-1" d="M32,24.51a3.33,3.33,0,0,1-2.91,3.3,3.75,3.75,0,0,1-.82,0v2.87H22.86a2.74,2.74,0,0,0-5.42,0H12a10.43,10.43,0,0,1,16.09-13.1l.15.16v3.5a2.82,2.82,0,0,1,.82,0A3.31,3.31,0,0,1,32,24.51"/><path class="cls-1" d="M44.75,31.49c-.24.28-.48.56-.74.82l-.59.58L29.09,47.23V40.07a3.75,3.75,0,0,1-.82,0,2.87,2.87,0,0,1,0-5.68,2.82,2.82,0,0,1,.82,0v-2.9h5.5a2.74,2.74,0,0,0,5.41,0Z"/><path class="cls-1" d="M28.41,31.35h.07v-.07h-.07Zm.47-.46H29v-.08h-.08Z"/><rect class="cls-1" x="28.41" y="31.28" width="0.07" height="0.07"/><path class="cls-1" d="M24.33,37.22a4.34,4.34,0,0,0,3.29,4.23v4.13L14.19,32.16h5L19,31.32a1,1,0,0,1,0-.24,1.13,1.13,0,0,1,0-.26,1.26,1.26,0,0,1,1.23-1,1.24,1.24,0,0,1,1.21,1,1,1,0,0,1,0,.25,1,1,0,0,1,0,.24l-.21.84h6.44V33a4.33,4.33,0,0,0-3.31,4.23Zm4-3.44h.19V31.37h-.07V31.3H22.27a.67.67,0,0,0,0-.2,1.7,1.7,0,0,0,0-.45,2.13,2.13,0,0,0-4.18,0,1.62,1.62,0,0,0,0,.44v.2H12.18l.28.34c.24.29.5.56.77.84L28.48,47.72v-7h-.19a3.48,3.48,0,0,1,0-6.93"/><rect class="cls-1" x="28.41" y="31.28" width="0.07" height="0.07"/><path class="cls-1" d="M45,30H38.36l.15.8a1.31,1.31,0,0,1,0,.28,1.13,1.13,0,0,1,0,.26,1.24,1.24,0,0,1-2.43,0,.49.49,0,0,1,0-.24,1.31,1.31,0,0,1,0-.28l.14-.8H29.77v-.81a4.8,4.8,0,0,0,0-9.34V18A9.75,9.75,0,0,1,45,30m-.83-12.59a10.61,10.61,0,0,0-15,0v0l-.24.24v3h.19a3.91,3.91,0,0,1,0,7.78h-.19v2.46h6.28v.19a2.3,2.3,0,0,0,.05.45,2.13,2.13,0,0,0,4.17,0,1.74,1.74,0,0,0,.06-.45v-.19h6l.07-.1a10.64,10.64,0,0,0-1.38-13.36Z"/></g></g></svg>