<svg xmlns="http://www.w3.org/2000/svg" viewBox="0 0 57.63 57.59"><defs><style>.cls-1{fill:#fff;}</style></defs><g id="Layer_2" data-name="Layer 2"><g id="Layer_1-2" data-name="Layer 1"><path d="M28.85,57.59a28.83,28.83,0,0,0,28.64-25.9,4.62,4.62,0,0,1,.07-1c0-.63.07-1.26.07-1.89A28.86,28.86,0,0,0,28.79,0"/><path d="M28.79,0A28.85,28.85,0,0,0,.08,26.29c0,.34-.06.68-.08,1V28.8A28.82,28.82,0,0,0,28.85,57.59"/><path class="cls-1" d="M28.84,23.4a5.43,5.43,0,1,0,5.42,5.43h0a5.44,5.44,0,0,0-5.42-5.42"/><path class="cls-1" d="M29,38.34V36.27A7.43,7.43,0,0,0,36.3,29h9.21A19.6,19.6,0,0,1,29,38.34Zm-.18-2.89a6.61,6.61,0,1,1-.18-13.22H29a6.61,6.61,0,1,1-.18,13.22m-.18,2.89A19.59,19.59,0,0,1,12.2,29h9.2v-.35H12.2a19.62,19.62,0,0,1,16.48-9.34v2.1a7.44,7.44,0,0,0,0,14.85Zm.34-19a19.63,19.63,0,0,1,16.49,9.34H36.28A7.45,7.45,0,0,0,29,21.42Zm23.15,8.14a1.29,1.29,0,0,0-1.27,1.2H46.72v-.09A20.65,20.65,0,0,0,29.07,18.29V11.64a1.41,1.41,0,0,0,1.26-1.42,1.45,1.45,0,1,0-2.89,0,1.43,1.43,0,0,0,1.24,1.42v6.65A20.64,20.64,0,0,0,11,28.57l0,.09H7A1.45,1.45,0,1,0,7,29h4l0,.09A20.64,20.64,0,0,0,28.68,39.38v6.93a1.28,1.28,0,1,0,.36,0V39.38A20.65,20.65,0,0,0,46.69,29.1V29h4.2a1.27,1.27,0,0,0,1.25,1,1.3,1.3,0,0,0,.23-2.59h-.2Z"/></g></g></svg>