<svg xmlns="http://www.w3.org/2000/svg" viewBox="0 0 175.69 181.57"><defs><style>.cls-1{fill:#395b64;}.cls-2{fill:#d41f44;}.cls-3{fill:#febf9e;}.cls-4{fill:#474c54;}.cls-5{fill:#1a2e35;}.cls-6{fill:#939598;}.cls-7{fill:#042954;}.cls-8{fill:#6d6e70;}.cls-9{fill:#f09c6e;}</style></defs><g id="Layer_2" data-name="Layer 2"><g id="Layer_1-2" data-name="Layer 1"><path class="cls-1" d="M88.76,166.31s9.56,4.26,16.55,7.48c6,2.78,11.85,6.31,13,5.56.65-.41.63-5.09-1.57-8.88-1.7-2.92-6.11-8.64-11.44-9-4.82-.34-14.13-5.09-14.13-5.09Z"/><path class="cls-2" d="M33.8,14.46c.12,1.32,1.88,2.26,4,2.13a.91.91,0,0,0,.23,0,.85.85,0,0,0,.23,0l.75,8.2,7.57-.69c-.2-2.42.94-4.5,2.55-4.65s3.1,1.69,3.35,4.11l7.34-.66L58,3.07,37.2,5l.6,6.62h-.23l-.23,0C35.24,11.9,33.68,13.13,33.8,14.46Z"/><path class="cls-3" d="M24.29,55.11l.77-.19a14.45,14.45,0,0,1,3.18-1.59,14.65,14.65,0,0,1,5.35-.39c.72.08,2.73.5,3.43,1.28a3.82,3.82,0,0,1,.76,1.54l1.59,1.11a17,17,0,0,0-5.23,1.88L32.83,57.4l-1.38.35c-5.77,1.21-9.13,1.48-11.12,1,0,0-4.49-2.13-5.18-3.68C14.56,53.74,24.29,55.11,24.29,55.11Z"/><path class="cls-4" d="M66.78,64.08c9.31-12.9,10.09-15.55,15.69-17.52,4.12-1.45,2.7,27.88,2.7,27.88S69.34,88.82,61.29,88.75C54.9,88.69,51,80.38,51,80.38S60.82,72.34,66.78,64.08Z"/><path class="cls-4" d="M68.86,77.35c-1.22-4.82-7.32-7.09-12.81-10.82-6.94-4.71-13.75-9.19-14.88-9.71-1.77-.8-8.39,2-8.29,3,.19,2.12,8.63,10.27,17.44,20.68,2.74,3.24,4.45,7.76,11,8.2C66,89.06,70.29,83,68.86,77.35Z"/><path class="cls-5" d="M105.12,177.8l61.57-8.49c12-3.48,10.2-15.37,4.9-21.3-5.62-2.75-16-5-24.75-3.26-19.59,4-45.47,17.13-45.47,17.13Z"/><path class="cls-5" d="M34.27,148.8l53.52,21.46,3.55-14.48S63.43,133.9,57.17,130.9a41,41,0,0,0-13.12-3.53C25.28,122.32,19.12,138.41,34.27,148.8Z"/><polygon class="cls-3" points="63.1 36.73 69.44 34.71 65.32 21.86 57.7 27.46 63.1 36.73"/><path class="cls-3" d="M63.17,23.51,59.8,18.73s-2.75-1.29-3.48-1.68-2-1.57-1.18-1.76S61.22,17,61.22,17l4.1,4.89Z"/><path class="cls-3" d="M63.66,23.46s-3.16-4.17-4.78-5c-1.22-.61-5.4-3.29-5.58-2.5a2,2,0,0,0,.41,1.56,13.72,13.72,0,0,0,3.87,2.75l3.73,4.5Z"/><path class="cls-3" d="M61.79,25.13A48.06,48.06,0,0,0,57.24,21c-1.09-.77-3.19-2.33-4.53-2.35-.49,0-.44,1,.22,1.69a17.26,17.26,0,0,0,2.76,2.22c.49.37,3.58,4.1,3.58,4.1Z"/><path class="cls-3" d="M60,26.55l-4.3-3.39S51.76,21,51.4,21.76c-.21.46.3,1,1.14,1.66s1.88,1.31,1.88,1.31l3.47,3.05Z"/><path class="cls-6" d="M0,10.22,1.8,30l7.8-.71v.08c0,.05,0,.1,0,.15l0,.23c.31,2,1.52,3.5,2.81,3.38s2.21-1.8,2.15-3.83c0-.07,0-.15,0-.23s0-.1,0-.15a.25.25,0,0,1,0-.08l8-.73-.7-7.74c-2.36.14-4.35-1-4.49-2.55s1.61-3,3.95-3.33l-.56-6.17Z"/><path d="M24.5,50.29,23.74,42c-2.39.09-4.35-1.07-4.5-2.69s1.58-3.12,3.94-3.45l-.65-7.17-7.32.67c0,2.31-1.13,4.21-2.7,4.35s-3-1.52-3.43-3.79L2,30.58,4,52.16Z"/><path class="cls-4" d="M45.77,48.35l-2-21.57-7.68.7a.12.12,0,0,1-.1,0,.12.12,0,0,1-.05-.09,1.85,1.85,0,0,0,0-.23A.76.76,0,0,0,36,27a.13.13,0,0,0,0-.06c-.21-2.1-1.42-3.7-2.7-3.59s-2.18,1.91-2,4v.08c0,.05,0,.1,0,.14a1.43,1.43,0,0,0,0,.23.12.12,0,0,1,0,.1.21.21,0,0,1-.1.06l-7.91.72L24,36.4a.11.11,0,0,1,0,.1.13.13,0,0,1-.09,0h0a.67.67,0,0,0-.2,0h0l-.19,0c-2,.26-3.55,1.44-3.43,2.68s1.8,2.14,3.84,2a.79.79,0,0,0,.22,0h0l.2,0h0a.14.14,0,0,1,.09,0,.11.11,0,0,1,.05.09l.81,8.86Z"/><path class="cls-5" d="M29.65,128.48c8.87-8,29.2-10.2,50-12.31.32.33.65.65,1,1l2.26-9.44,47,8.72s.76,10.9,1.33,10.86C145,134,153.2,136,171.59,148l-6.69,20.13s-27.32-8.14-41.56-14.23c-16.23-6.94-28.88-10.82-28.88-10.82l-1.45.28s-42.53,7.8-49.86,7.21C33.49,149.8,19.29,137.78,29.65,128.48Z"/><path class="cls-7" d="M101.05,0a2.78,2.78,0,0,1,1.38.35A9.24,9.24,0,0,1,104.24.1,20.61,20.61,0,0,1,113,2a12.11,12.11,0,0,1,6.06,4.24c2.79,3.3,3.93,9.64,4.09,10.73.67,4.41-1.3,12.53-6.52,15a37,37,0,0,0-5.84,3.4c0-.92.12-2.19.19-3.27a18,18,0,0,1-6.85,2.18C95.93,35,88.56,27.94,87.7,18.48S92.82.75,101.05,0Z"/><path class="cls-8" d="M76.08,117.19c-.36,4,38.72,15.18,57,11,7-1.16,5.39-26.81,3.91-47.07a132.32,132.32,0,0,0-4.71-25.9C128.43,42,103.2,43.09,103.2,43.09S85,43.58,80.83,47.68s.45,26.46.56,42.43C81.45,99.75,76.47,112.8,76.08,117.19Z"/><path class="cls-3" d="M95.06,43.67c-1.24.14-2.11.25-3.3.43,0,0,2.1,9,4.93,9.14,5.71.33,19.17-9.13,19.17-9.13-2-.37-2.82-.46-4.9-.74l.24-14.49-16,8.64Z"/><path class="cls-1" d="M73.82,181c1.92.37,11.9,1.37,18.73-.71a67,67,0,0,0,12-4.95l-2.78-11.67s-4,3.31-8.35,1.26c-3.72-1.74-8.32,4.57-11.18,4.09-11.16-1.88-15.25,1.55-17.88,4.63C61,177.61,68.27,179.92,73.82,181Z"/><path class="cls-4" d="M128.94,75.58C127.32,79.39,112.16,87,99.31,88.22c-15.09,1.42-18,.15-18,.15s.22,3.23,0-1.38-.9-12.24-.9-12.24C91.59,77,130.63,55.17,130.63,55.17,132,60.14,133.15,65.65,128.94,75.58Z"/><path class="cls-4" d="M34,58.8a25.47,25.47,0,0,0,1.9,4.54C36.78,64.58,38,66.7,38,66.7s-3.45-4-4.14-4.93-1.18-1.68-.95-2.07A2.65,2.65,0,0,1,34,58.8Z"/><path class="cls-4" d="M137.18,83.5s-.69,33.92-3.82,36.9c-6.64,6.29-19.08,8.2-19.08,8.2s15.68,1.68,19.86-.81c2.11-1.25,4.16-7.29,4.14-19.65C138.26,97.15,137.18,83.5,137.18,83.5Z"/><path class="cls-9" d="M111.2,28.88l-.4,7.06s-2.56,3.52-4.87,4.86c-4.34,2.52-10.87,2.09-10.87,2.09l.19-5.58a20.09,20.09,0,0,0,6.47-1.39C104.82,34.62,111.2,28.88,111.2,28.88Z"/><path class="cls-3" d="M110.88,28.44s.25.91,1.7.67,2.5-2.76,2.82-4c.57-2.15.22-3-.37-3.54-1-.93-3.09.26-3.09.26Z"/><path class="cls-3" d="M88.45,23.93c-.12,8.86,3.07,15.63,7.77,15.35,12.7-.75,15.92-8.68,15.73-17.18-.18-7.71-3.32-15.29-11-15.19C92.41,7,88.6,13.22,88.45,23.93Z"/><path class="cls-9" d="M94.71,20.83s-2.48,4.41-2.37,5a4.46,4.46,0,0,0,1.1,1.8C93.59,27.59,94.71,20.83,94.71,20.83Z"/><path class="cls-7" d="M88.28,7.1a12.24,12.24,0,0,0,5.24-2.95,7.72,7.72,0,0,1,5.25-1.59A8.07,8.07,0,0,1,102,4.23a6.43,6.43,0,0,0,2.58,1.49c3.4.5,5.33,3.69,7.27,7.25s.09,8.89.09,8.89l-.66,3.77a29.4,29.4,0,0,1-4.77-3.71c-1.17-1.41-.75-3.2-3.26-5.52-1.5-1.38-.91-3.59-1.16-4.75-.73-3.28-3.51-1.92-3.51-1.92s-2-.62-2.51-.23-1.2,3.1-2,3.9c-1.78,1.67-2.39.86-3.76,2.65a10.24,10.24,0,0,0-1.76,6.13,15.13,15.13,0,0,1-2.6-6.67C85.71,13.2,85.49,8.05,88.28,7.1Z"/><path class="cls-4" d="M79,69.4c-.16-2-1.09-9.88-.15-17a28.76,28.76,0,0,1,1.83-5.15l3-1.27S81.32,52.3,82.25,57A30.27,30.27,0,0,0,87.5,69.2a24.85,24.85,0,0,0,3.64,3.54s-7.18,3.18-10.73,2C80.41,74.75,79.38,74.31,79,69.4Z"/><path class="cls-8" d="M67.36,65c-3.09-12.5-5.06-26.91-5-27.6s7.11-3.73,8.19-3.18C72.05,35,80.25,52.58,84.12,61c15.72-5.58,33.23-14.6,41.65-10.78,9.65,4.38,4.84,17.52-.38,21.12S101.93,78,93.1,79.28c-3.87.57-10.7,1.59-15.33,1.52a10.34,10.34,0,0,1-4.45-.34c-2-.54-3.27-4.28-4.26-8.16A29.84,29.84,0,0,1,67.35,65Z"/></g></g></svg>