<svg xmlns="http://www.w3.org/2000/svg" viewBox="0 0 71.86 264.93"><defs><style>.cls-1{fill:#122d5b;}.cls-2{fill:#1a2e35;}.cls-3{fill:#0c2026;}.cls-4{fill:#25468f;}.cls-5{fill:#fe7358;stroke:#000;stroke-miterlimit:10;}.cls-6{fill:#febf9e;}.cls-7{fill:#f09c6e;}.cls-8{fill:#1a2d34;}.cls-9{fill:#1e3865;}</style></defs><g id="Layer_2" data-name="Layer 2"><g id="Layer_1-2" data-name="Layer 1"><path class="cls-1" d="M28.31,259.66c-8.72-.35-9.25,2.19-22.77,2.62-1.92.06-3.49.24-5.39-3.54-.74-1.46,1.08-3.34,11.11-7.17,8.6-3.29,12.19-5.7,12.19-5.7l-.84-3.75,11-.72c-1.25,6.41,4.67,7.89,3.58,15C36.85,258.75,33.64,259.88,28.31,259.66Z"/><path class="cls-2" d="M28.59,185.13h0l8.17-58.74-27.89-5c-2,23.48-2.79,42.39-2.86,63.22l13.52,58.08c2.27,2,12.07-.29,16.74-1.48Z"/><path class="cls-1" d="M58.14,264.93l-10.44-.11c-3-1.44-3.92-6.57-2.64-8.31a22.19,22.19,0,0,0,3.07-6.17l.21-6.21L59,243.81,59,250s1.81,5.37,2.24,6.8C61.48,257.75,61.52,264,58.14,264.93Z"/><path class="cls-2" d="M46.28,245.06s-6.61-44-7.53-54.76c-.86-10.05-.54-18.23-2-32.2-1.52-14.29-2.88-31.56-2.88-31.56l30.39-4c2.2,22.13-3.06,58.53-2.09,65.54,1.71,12.37-1.35,57.2-1.35,57.2C54.43,250.07,51.52,250.2,46.28,245.06Z"/><path class="cls-3" d="M8.54,125.34l25.32,7.31s10.39-.65,14.44-.76c8.23-.21,16.27,0,16.27,0l-.32-9.28L8.87,121.37Z"/><path class="cls-4" d="M21.84,81.41C16.27,79.79,5.14,85.54,4,82.51S4.11,71,4.31,64.87c.45-13.51,2.39-16.23,7.31-18.21a38.4,38.4,0,0,1,9.68-1.85Z"/><path class="cls-5" d="M67.49,68.08v0Z"/><path class="cls-4" d="M66.39,124.57c-.24,5.75-56.75,4.34-58.56-2.14s2-11.14,2.86-28.62c.91-18,3-47.39,3-47.39a71.39,71.39,0,0,1,23.44-2.2s18.25,4,24.1,5.72c2.22.65-.59,37.43,1.42,49.32C64.3,109,66.82,114.15,66.39,124.57Z"/><path class="cls-6" d="M46.08,46.23s-1.89,3.6-8.11,4c-4.61.27-7.27-.78-7.79-6,0-2.69,0-4.61,0-6.48,3.34,1.59,12.74-5,16.05-9.67,0,0,0,8.32,0,13.33C46.22,42.42,46.08,46.23,46.08,46.23Z"/><path class="cls-7" d="M30.17,42.09c1.4,1.9,5.47,3.5,11.38-2.57A17.33,17.33,0,0,0,46.08,31l.17-2.48S41.68,36.78,35,39.07c-3.61,1.24-4.76-.34-4.76-.34Z"/><path class="cls-6" d="M47.16,22.64c-.89,10.58-6.29,17.81-13.06,17.7-8.33-.14-9.45-7.13-9.29-19.21C25,10,27.81,4.37,36.9,5,46.82,5.69,47.85,14.39,47.16,22.64Z"/><path class="cls-7" d="M32.3,22.9s-1.61,4.51-1.92,5.19,1.82,2.14,1.82,2.14Z"/><path class="cls-8" d="M46.12,30.4s4.48-2.29,5.48-6.21a33,33,0,0,0,.65-11.26,12.71,12.71,0,0,0-3.7-7.58A10.46,10.46,0,0,0,42.13,2s-2.82-4-11.88-.59C26,2.93,18.58,7.32,19.12,14.23a7.76,7.76,0,0,0,3.48,6.34,3.26,3.26,0,0,0,2.32.82c0-.74,0-1.27.06-2.3L25.23,16A9.46,9.46,0,0,1,30,13.78a13.47,13.47,0,0,0,9-4.72s2.22,6.2,4.29,8.2c2.87,2.76,2.3,8.41,2.3,8.41L47,24.59l.49-4.89s-.88,5.53-1.11,7.68C46.14,29.16,46.12,30.4,46.12,30.4Z"/><path class="cls-8" d="M28.4,26h0L26,26a2.69,2.69,0,0,1-2.61-2.73v-.81a2.76,2.76,0,0,1,.8-1.9,2.62,2.62,0,0,1,1.85-.76h0l2.35,0a2.62,2.62,0,0,1,1.86.82,2.68,2.68,0,0,1,.74,1.91v.81a2.66,2.66,0,0,1-.79,1.89A2.59,2.59,0,0,1,28.4,26Zm-2.33-5.42a1.83,1.83,0,0,0-1.29.53,1.91,1.91,0,0,0-.56,1.33v.81a1.9,1.9,0,0,0,.52,1.34,1.85,1.85,0,0,0,1.3.57l2.35,0a1.81,1.81,0,0,0,1.31-.54,1.87,1.87,0,0,0,.56-1.32v-.81a1.9,1.9,0,0,0-.52-1.34,1.85,1.85,0,0,0-1.3-.57l-2.35,0Z"/><path class="cls-8" d="M39.86,26.15h-3.5a3,3,0,0,1-2.93-3V22.8a3,3,0,0,1,2.93-3h3.5a3,3,0,0,1,2.93,3v.36A3,3,0,0,1,39.86,26.15Zm-3.5-5.53a2.16,2.16,0,0,0-2.14,2.18v.36a2.16,2.16,0,0,0,2.14,2.18h3.5A2.16,2.16,0,0,0,42,23.16V22.8a2.16,2.16,0,0,0-2.14-2.18Z"/><path class="cls-8" d="M30.63,23.36l-.28-.76a6.5,6.5,0,0,1,1.83-.41A6,6,0,0,1,34,22.6l-.3.76A4.73,4.73,0,0,0,32.18,23,5.67,5.67,0,0,0,30.63,23.36Z"/><polygon class="cls-8" points="42.55 22.96 42.25 22.22 47.18 20.14 47.48 20.89 42.55 22.96"/><path class="cls-6" d="M50,23.84C49.9,27.06,46.21,28,46.21,28s.24-1.75.39-3.86-.25-3.95,1.61-3.54C49.51,20.9,50,21.72,50,23.84Z"/><path class="cls-9" d="M53.41,68.77,46.54,85.7C39.74,87.35,11,87.79,11,87.79s-.84,8-.84,12.31c0,0,22.85-1.63,28.78,0,10.81,3,17.67,8.27,19.17,11.63,2.09,4.65,3.24,15.27,3.24,15.27s3.48-.58,4.21-1.35,1.64-2.9,0-12.6-3.34-12.48-3.51-20.18-1-24.79-1-24.79l-5.18-6.8Z"/><path class="cls-9" d="M30.18,44.15S8.34,43.46,6,52.05C3.2,62.68,3,81,4.37,83s12.48-1.49,12.48-1.49-1.7-13.39.25-21.21S30.18,44.15,30.18,44.15Z"/><path class="cls-6" d="M21,84.06c-1,12-14.53,13.1-15.6-2.09-.5-7.14,11.24-33.91,11.24-33.91l5.58,3.22S21.87,73.44,21,84.06Z"/><path class="cls-6" d="M20.4,34.9l2.87-6.24a38.64,38.64,0,0,0,3.52-2.49c1.19-1.13,1.09-2,.45-1.92-1.81.28-6.07,2.54-6.07,2.54l-4,6.93c-.11,4.42-.71,9.89-.49,14.34l5.58,3.22c2.66-.76,4.13-4,5.43-13.66l-7.32-2.71Z"/><polygon class="cls-6" points="27.66 93.31 17.82 95.75 17.1 83.33 27.46 85.26 27.66 93.31"/><path class="cls-6" d="M57.73,81.74s.16,2.56.11,3.29l-30.38.23.2,8s22.88,5.17,27.34,6c7.32,1.43,12.31,1.23,13.52-4.21.65-2.93.48-6.92.62-12.7-.53.19-1.79.49-6.19.67C58,83.31,57.73,81.74,57.73,81.74Z"/><path class="cls-6" d="M10.43,86,7.55,88.08c-1.12.52-2.76.4-2.76-.41S9.57,83,9.57,83l7.53.37.13,2.55Z"/><path class="cls-6" d="M17.54,88.67,10.29,89A9.57,9.57,0,0,1,6,91.85c-1.56.54-4-.13-.86-2.48,1.32-1,4-3.34,4-3.34l8.11-.76Z"/><path class="cls-6" d="M17.5,91.79l-5.91-.27s-3.11,2.07-5,2.24c-1.16.11-2.48-.43-1.35-1.2,1.74-1.19,5-3.68,5-3.68l7.31-.17.36,1.65Z"/><path class="cls-6" d="M17.82,95.81l-5-1.32s-2.82,1-4.57,1.34c-1.37.28-2.22-.72-1.85-1.16a51.6,51.6,0,0,1,5.24-2.76l5.85-.12,1.1,2.79Z"/><path class="cls-4" d="M71.86,71.89C71.85,60.56,70,52.45,61.38,50c-2.69-.78-4.7-1.23-4.7-1.23s-1,14-1.17,18.09c-.34,7-1.1,16.31-1.1,16.31s3.44,3,9.94,2.94c5.16,0,7.16.31,7.29-3.07C71.82,78.86,71.77,76.45,71.86,71.89Z"/><path class="cls-3" d="M39.31,179.5s-.74,13.22,3.15,17.93,13.13-1.13,15.35-6.79,5.06-19.16,5.06-19.16l-.82,15s1.39,22.27.42,25.48-1.66,33.33-1.66,33.33-5,6.65-9.75,3.21l-4.78-3.45s-7.53-54.42-7.68-56.67A77.68,77.68,0,0,1,39.31,179.5Z"/><path class="cls-3" d="M28.41,182.41s-12,14.85-16.12,16.14c-2.51.77-5.1-8.88-5.1-8.88l6.62,28.44c1,4.11,4.36,25,6.72,25.33,6.14.76,15.74-2.25,15.74-2.25l-2.41-16.08Z"/><path class="cls-7" d="M19.55,34.46l3.32-6,3.58-1.85c-1.09.8-2.29,1.51-3.18,2.06l-2.91,6.25Z"/><path class="cls-6" d="M19.66,34.5l4.62-6a42.4,42.4,0,0,1,6.06-1.82c.68,0,.62,1.51-.86,2.42A21.76,21.76,0,0,1,25.7,30.7l-2.58,5C21.28,35.9,20.09,35.53,19.66,34.5Z"/><path class="cls-7" d="M25.29,30.4l-3.45,5.33,1.86-1.15,2-3.88a7.22,7.22,0,0,0,1-.37c.83-.32,2.5-1.14,2.5-1.14Z"/><path class="cls-7" d="M30.68,26.85a2.2,2.2,0,0,1-.37,1.3,7.85,7.85,0,0,1-1.18,1.12,3.25,3.25,0,0,0,1.43-1.34C30.88,27.17,30.68,26.85,30.68,26.85Z"/><path class="cls-6" d="M22.24,35.51l4.08-4.59A21.51,21.51,0,0,1,31,29.83c.69,0,.67,1.19-.2,1.73s-3.22,1.57-3.22,1.57l-2.31,3.3C23.42,36.93,22.4,36.65,22.24,35.51Z"/><path class="cls-7" d="M24.09,36.65l3.17-3.74,3.82-1.62a20.09,20.09,0,0,1-3.54,1.84l-2.31,3.3Z"/><path class="cls-6" d="M24.89,36.57l3.2-2.85s3.68-2.5,4-2.11c.62.8-.18,1.57-.73,2.11-.22.22-1.12.93-1.61,1.34a29.23,29.23,0,0,0-2.09,2.62A2,2,0,0,1,24.89,36.57Z"/><polygon class="cls-7" points="24.58 36.92 23.59 38.15 23.81 36.92 24.09 36.65 24.95 36.51 24.58 36.92"/></g></g></svg>