<svg xmlns="http://www.w3.org/2000/svg" viewBox="0 0 171.32 221.45"><defs><style>.cls-1{fill:#0c264c;}.cls-2{fill:#febf9e;}.cls-3{fill:#1b3564;}.cls-4{fill:#1e3865;}.cls-5{fill:#f48d60;}.cls-6{fill:#939598;}.cls-7{fill:#6d6e70;}.cls-8{fill:#d41f44;}.cls-9{fill:#fff;}</style></defs><g id="Layer_2" data-name="Layer 2"><g id="Layer_1-2" data-name="Layer 1"><path class="cls-1" d="M89.72,126.67c-.36,1.91-3.23,5.21-4.46,6.33-4.94,4.47-10.48,7.12-17,7.16l-19.37,1.29C46.55,139,91.49,117.34,89.72,126.67Z"/><path class="cls-2" d="M67.56,199.51a2.56,2.56,0,0,0-.43,2.73h0c.66,1.81,2.85,3.83,5.38,5.83l.87.71.19.17.15.14c2.37,2.15,1.49,2.65,5.74,7,4.85,5,8.17,5,9.11,4.58s-.85-3-2.66-6l-.27-.43-.72-1.19c-2.13-3.58-1.6-5.28-1.14-10.63.37-4.35,6.59-24.34,6.59-24.34l-9.24-1.52s-2.67,15.9-5.71,18.37c-1.63,1.31-3.46,1.34-5,2.32l-.33.21A12.26,12.26,0,0,0,67.56,199.51Z"/><path class="cls-2" d="M141.94,193.22c.59,2.85,4.65,2.35,9.18,1.2s3.46.19,9.91-.57,8.39-3.18,8.58-4.14-3-1.14-6.45-1.51l-1.29-.14c-3.87-.46-6.72-2.93-10.24-4.95-3.34-1.92-8.36-9.79-8.36-9.79l-8.85.77s4.7,7,6.52,10.08c1.07,1.79,1,4.18.91,6A11.33,11.33,0,0,0,141.94,193.22Z"/><path class="cls-1" d="M107.61,136.84l-8.12,22.34L88.88,188.34a17.51,17.51,0,0,1-5.74-.49,25,25,0,0,1-5.57-2.66s2.78-31.25,8.25-49.22c1.4-4.61,3-8.34,4.74-10.45C99.17,115.2,107.61,136.84,107.61,136.84Z"/><path class="cls-3" d="M98.94,101.53c-5.43-1.72-20.89.64-36.4,3.79L59.25,100,25.67,97.59S14.94,116.3,20,135c1.16,4.31,6.89,5.88,12.59,6.17,1.64,0,14.53.87,21,.21,18.2-1.87,34.37-14.5,36.78-15,3.94-.82,6.44,9.84,10.44,18.1s33.6,38.21,33.6,38.21,8.84-1.77,10.94-2.57a7.11,7.11,0,0,0,3.07-2S111.2,105.38,98.94,101.53Z"/><path class="cls-4" d="M55.27,1.88A12.12,12.12,0,0,0,48.8.28,20.14,20.14,0,0,1,45.6.1C32.87-1.5,26.27,16.93,24.93,22.31c-2.52,10.15-3.54,12.63,1.2,14.3C35.6,40,38,42.54,57.37,39.56S62.5,6.06,55.27,1.88Z"/><path class="cls-2" d="M49,47.66s-5.87,2.11-9.85.38c-3.74-1.63-6.51-7.5-6.45-7.51,1.69-.09,5.11-1.62,4.45-13.7l1.09,2.38,12.18,4.28S49.52,37.4,49,41.12C48.52,44.24,48.28,47.23,49,47.66Z"/><path class="cls-5" d="M50.37,33.49s-.52,2.74-1.24,6.65c-7-1.2-9.93-7.17-10.94-10.93Z"/><path class="cls-2" d="M51.09,38.06c-6.82.4-13.69-5.33-14.28-13.23C35.93,13.06,37.33,5.25,48,6.16s11.43,8.13,12.2,11.64C61.8,24.94,56.35,37.76,51.09,38.06Z"/><path class="cls-4" d="M60.22,10l-6.94.49s-3.6,9.59-12,10.51c-7.69.85-10.59-1.58-10.59-1.58A31.12,31.12,0,0,0,37.91,9.29c.8-1.84,2.13-4.78,4.08-5C47.47,3.76,58.24,5.07,60.22,10Z"/><path class="cls-4" d="M53.28,10.51s3.59,3.42,4.73,6,2.72,6.54,1.87,8.88c0,0,4.22-9,1-14.24C57.55,5.59,53.28,10.51,53.28,10.51Z"/><path class="cls-6" d="M66.57,76.05c-.94,27.19-4.24,26.65-6.48,27-1.17.16-4.23.73-7.51,1-10.32.76-28.48-.81-29.18-2.72-2.43-6.58-.76-8.64-2.82-18.73-.21-1.08-.48-2.24-.79-3.5-1.7-6.93-3.33-9.28,2.47-20.47,5.25-10.14,10.79-18.39,11.17-18.16,14,8.44,15.26,1.3,15.26,1.3S67.14,59.64,66.57,76.05Z"/><path class="cls-3" d="M99.49,159.18,88.88,188.34a17.51,17.51,0,0,1-5.74-.49c-2.59-.73-8.68-5.12-8.68-5.12S80.35,153.94,85.82,136Z"/><path class="cls-6" d="M48.69,41.68S63.18,44,64.92,50.25,76.92,93,76.92,93s-7.35,1.38-10.77-2-12-31.43-12-31.43Z"/><path class="cls-7" d="M52.58,104c-10.32.76-28.48-.81-29.18-2.72-2.43-6.58-1-10-3.1-20l5.16-12.75s-.71,15.62,3.92,19.69S48.29,96,50.55,99.36A12.69,12.69,0,0,1,52.58,104Z"/><path class="cls-2" d="M40.7,97.49S50.87,95.15,52.52,96s5.69,4.16,6.2,5.3-3.66-.85-5-1.2c-.88-.23-3.18.59-4.32,1-4.79,1.63-7.74.83-7.74.83Z"/><path class="cls-6" d="M33.43,40.39s-13.62,1-18.3,7.64C8.53,57.37-5.4,96,2.21,101.27c8.58,5.89,39.83,2.31,39.83,2.31s1-4.72-.44-7-26-8-26-8S28.06,68.46,26.76,63.12C26,60.05,33.43,40.39,33.43,40.39Z"/><path class="cls-2" d="M53,98.87a19.7,19.7,0,0,0,2.86,3.06,2,2,0,0,0,1.15.24l-1.45-2.58Z"/><path class="cls-2" d="M52.52,96l6.23,3a1.11,1.11,0,0,1-1,.4A14.85,14.85,0,0,1,55,98.69Z"/><polygon class="cls-8" points="54.56 106.38 103.64 106.03 118.14 69.22 69.14 69.56 54.56 106.38"/><polygon class="cls-8" points="104.2 104.59 39.4 105.05 39.41 106.48 103.64 106.03 104.2 104.59"/><path class="cls-9" d="M91.12,87.76a1.7,1.7,0,0,0-1.69-2.32,3.33,3.33,0,0,0-3,2.35,1.7,1.7,0,0,0,1.68,2.33A3.36,3.36,0,0,0,91.12,87.76Z"/><path class="cls-1" d="M71.74,196.25s-3.64,2-4.82,3.41-1.5,8.79-1.5,8.79l.57,1.24,3.36-4.26s3.93,4.17,4.77,4.87,4.9,6.39,6.65,8.1c1.2,1.17,2.81,1.64,5.2,2.48s3.45.69,3.45-.13-3.3-6.13-3.3-6.13L83,212.78Z"/><path class="cls-1" d="M141.37,189.05s-.48,4,0,5.78,6.18,6.25,6.18,6.25l1.32.26-1.5-5.11s5.58-.72,6.62-1,7.72-.27,10-.91a14.32,14.32,0,0,0,5.19-2.4c2-1.6,2.51-2.34,1.86-2.81s-7.76-1.3-7.76-1.3L161,189.67Z"/><path class="cls-2" d="M36,21.32s-1.87-2.47-2.8-.39c-.64,1.41.08,4.85,1.48,5.76a2.18,2.18,0,0,0,2.38.14Z"/><path class="cls-5" d="M55.44,25.12l1,4.35c.09.34-1.08.92-1.38,1S55.44,25.12,55.44,25.12Z"/></g></g></svg>