<svg xmlns="http://www.w3.org/2000/svg" viewBox="0 0 247 246"><defs><style>.cls-1{fill:#fff;}.cls-2{opacity:0.1;}.cls-3{fill:blue;}</style></defs><g id="Layer_2" data-name="Layer 2"><g id="Layer_1-2" data-name="Layer 1"><rect class="cls-1" width="247" height="246"/><g class="cls-2"><rect class="cls-1" x="7" y="7" width="50" height="50"/><path class="cls-3" d="M53,11V53H11V11H53m8-8H3V61H61V3Z"/></g><g class="cls-2"><rect class="cls-3" x="68" y="7" width="50" height="50"/><path class="cls-3" d="M114,11V53H72V11h42m8-8H64V61h58V3Z"/></g><g class="cls-2"><rect class="cls-1" x="129" y="7" width="50" height="50"/><path class="cls-3" d="M175,11V53H133V11h42m8-8H125V61h58V3Z"/></g><g class="cls-2"><rect class="cls-3" x="190" y="7" width="50" height="50"/><path class="cls-3" d="M236,11V53H194V11h42m8-8H186V61h58V3Z"/></g><g class="cls-2"><rect class="cls-1" x="190" y="68" width="50" height="50"/><path class="cls-3" d="M236,72v42H194V72h42m8-8H186v58h58V64Z"/></g><g class="cls-2"><rect class="cls-3" x="129" y="68" width="50" height="50"/><path class="cls-3" d="M175,72v42H133V72h42m8-8H125v58h58V64Z"/></g><g class="cls-2"><rect class="cls-1" x="68" y="68" width="50" height="50"/><path class="cls-3" d="M114,72v42H72V72h42m8-8H64v58h58V64Z"/></g><g class="cls-2"><rect class="cls-3" x="7" y="68" width="50" height="50"/><path class="cls-3" d="M53,72v42H11V72H53m8-8H3v58H61V64Z"/></g><g class="cls-2"><rect class="cls-1" x="7" y="128" width="50" height="50"/><path class="cls-3" d="M53,132v42H11V132H53m8-8H3v58H61V124Z"/></g><g class="cls-2"><rect class="cls-3" x="68" y="128" width="50" height="50"/><path class="cls-3" d="M114,132v42H72V132h42m8-8H64v58h58V124Z"/></g><g class="cls-2"><rect class="cls-1" x="129" y="128" width="50" height="50"/><path class="cls-3" d="M175,132v42H133V132h42m8-8H125v58h58V124Z"/></g><g class="cls-2"><rect class="cls-3" x="190" y="128" width="50" height="50"/><path class="cls-3" d="M236,132v42H194V132h42m8-8H186v58h58V124Z"/></g><g class="cls-2"><rect class="cls-1" x="190" y="189" width="50" height="50"/><path class="cls-3" d="M236,193v42H194V193h42m8-8H186v58h58V185Z"/></g><g class="cls-2"><rect class="cls-3" x="129" y="189" width="50" height="50"/><path class="cls-3" d="M175,193v42H133V193h42m8-8H125v58h58V185Z"/></g><g class="cls-2"><rect class="cls-1" x="68" y="189" width="50" height="50"/><path class="cls-3" d="M114,193v42H72V193h42m8-8H64v58h58V185Z"/></g><g class="cls-2"><rect class="cls-3" x="7" y="189" width="50" height="50"/><path class="cls-3" d="M53,193v42H11V193H53m8-8H3v58H61V185Z"/></g></g></g></svg>