<svg xmlns="http://www.w3.org/2000/svg" viewBox="0 0 300 295.1"><defs><style>.cls-1{fill:#fff;}.cls-2{fill:none;}.cls-3{fill:#f5f5f6;}</style></defs><g id="Layer_2" data-name="Layer 2"><g id="Layer_1-2" data-name="Layer 1"><rect class="cls-1" y="0.1" width="300" height="295"/><circle class="cls-2" cx="148.8" cy="183.8" r="23.9" transform="translate(-27.5 26.2) rotate(-9.2)"/><circle class="cls-2" cx="243.9" cy="109.2" r="23.9" transform="translate(49.7 292.7) rotate(-67.5)"/><circle class="cls-2" cx="130.3" cy="35.6" r="23.9" transform="translate(-4.7 30.9) rotate(-13.3)"/><path class="cls-3" d="M130.1,70.7A35.4,35.4,0,1,0,94.7,35.4,35.3,35.3,0,0,0,130.1,70.7Zm.2-59a23.9,23.9,0,1,1-23.9,23.9A23.9,23.9,0,0,1,130.3,11.7Z"/><path class="cls-3" d="M243.7,73.6A35.4,35.4,0,1,0,279.1,109,35.5,35.5,0,0,0,243.7,73.6Zm.2,59.5a23.9,23.9,0,1,1,23.9-23.9A23.9,23.9,0,0,1,243.9,133.1Z"/><path class="cls-3" d="M184,183.6A35.4,35.4,0,1,0,148.6,219,35.4,35.4,0,0,0,184,183.6Zm-35.2,24.1a23.9,23.9,0,1,1,23.9-23.9A23.9,23.9,0,0,1,148.8,207.7Z"/><circle class="cls-3" cx="40.8" cy="109" r="35.4" transform="translate(-75.5 105) rotate(-67.5)"/><circle class="cls-3" cx="83.7" cy="259.7" r="35.4"/><polygon class="cls-3" points="126.3 74.1 105.4 109 126.4 143.6 141.5 143.6 120.8 108.9 141.7 74.1 126.3 74.1"/><polygon class="cls-3" points="164.4 74.1 143.5 109 164.4 143.6 179.6 143.6 158.9 108.9 179.7 74.1 164.4 74.1"/><polygon class="cls-3" points="175.6 224.8 154.7 259.7 175.7 294.3 190.8 294.3 170.1 259.6 190.9 224.8 175.6 224.8"/><polygon class="cls-3" points="262.4 224.8 241.5 259.7 262.5 294.3 277.6 294.3 256.9 259.6 277.7 224.8 262.4 224.8"/><polygon class="cls-3" points="36.8 35.3 15.9 0.5 0.6 0.5 21.4 35.3 0.7 69.9 15.8 69.9 36.8 35.3"/><polygon class="cls-3" points="21.3 149.7 5.9 149.7 26.8 184.5 6.1 219.2 21.2 219.2 42.2 184.5 21.3 149.7"/><polygon class="cls-3" points="75.3 184.5 54.4 149.7 39.1 149.7 59.9 184.5 39.3 219.2 54.4 219.2 75.3 184.5"/><polygon class="cls-3" points="205.6 69.9 220.7 69.9 241.6 35.3 220.7 0.5 205.4 0.5 226.2 35.3 205.6 69.9"/><polygon class="cls-3" points="199.6 149.7 220.4 184.5 199.7 219.2 214.8 219.2 235.8 184.5 214.9 149.7 199.6 149.7"/><polygon class="cls-3" points="9.4 35.3 0 19.6 0 50.9 9.4 35.3"/><polygon class="cls-3" points="288.5 0.5 273.2 0.5 294 35.3 273.3 69.9 288.5 69.9 300 50.9 300 19.6 288.5 0.5"/></g></g></svg>